<svg xmlns="http://www.w3.org/2000/svg" version="1.0" width="307.000000pt" height="307.000000pt" viewBox="0 0 307.000000 307.000000" preserveAspectRatio="xMidYMid meet">

<g transform="translate(0.000000,307.000000) scale(0.100000,-0.100000)" fill="#a37e2c" stroke="none">
<path d="M2238 2955 c-15 -8 -30 -24 -33 -36 -5 -16 -12 -19 -28 -14 -82 27 -157 9 -174 -42 -27 -80 36 -170 161 -232 l68 -33 53 52 53 53 37 -74 c21 -41 44 -82 52 -91 15 -16 17 -16 52 1 20 10 71 33 114 51 89 37 117 69 117 133 0 31 -7 46 -35 74 -36 36 -49 38 -110 18 -16 -5 -23 1 -34 26 -18 40 -68 63 -107 49 -28 -11 -30 -10 -55 33 -11 19 -67 47 -91 47 -7 -1 -25 -7 -40 -15z" fill="#a37e2c"/>
<path d="M1235 2650 c-120 -10 -231 -32 -303 -61 -83 -34 -50 -44 64 -20 269 55 748 55 1017 0 55 -11 101 -18 104 -15 19 19 -82 56 -222 82 -96 17 -512 26 -660 14z" fill="#a37e2c"/>
<path d="M1087 2539 c-135 -13 -164 -34 -192 -144 -21 -82 -31 -185 -17 -185 12 0 18 17 27 80 11 76 44 176 64 194 26 24 115 36 264 36 106 0 127 2 127 15 0 12 -16 15 -92 14 -51 -1 -133 -6 -181 -10z" fill="#a37e2c"/>
<path d="M1650 2535 c0 -13 22 -15 134 -15 166 0 234 -11 263 -44 18 -22 40 -94 68 -233 10 -49 38 -44 30 5 -27 165 -59 247 -107 270 -31 14 -194 31 -310 32 -63 0 -78 -3 -78 -15z" fill="#a37e2c"/>
<path d="M2260 2543 c0 -5 7 -31 16 -58 13 -36 16 -70 12 -139 -5 -85 -4 -88 8 -51 16 52 17 193 1 224 -12 25 -37 40 -37 24z" fill="#a37e2c"/>
<path d="M1439 2521 c-23 -18 -23 -20 -6 -39 23 -26 65 -34 111 -21 47 13 57 36 27 61 -31 24 -101 24 -132 -1z" fill="#a37e2c"/>
<path d="M831 2440 c-36 -131 -69 -310 -59 -316 16 -10 21 3 50 143 15 76 34 158 43 182 18 54 18 58 1 64 -10 4 -19 -16 -35 -73z" fill="#a37e2c"/>
<path d="M2136 2512 c-3 -6 5 -50 19 -99 14 -48 33 -133 43 -187 10 -55 23 -101 30 -104 18 -6 15 28 -13 163 -36 174 -63 252 -79 227z" fill="#a37e2c"/>
<path d="M2407 2386 c-21 -44 -49 -95 -63 -113 -14 -19 -24 -37 -21 -39 9 -10 77 83 102 141 40 90 24 100 -18 11z" fill="#a37e2c"/>
<path d="M1113 2235 c-18 -8 -38 -25 -45 -40 -8 -18 -19 -25 -38 -25 -57 0 -93 -14 -131 -50 -70 -66 -53 -72 84 -31 94 28 273 51 452 58 185 7 474 -23 600 -62 121 -37 137 -33 90 24 -26 31 -98 64 -131 61 -33 -4 -42 0 -47 19 -10 41 -54 56 -180 60 -114 3 -120 2 -145 -21 -84 -77 -162 -79 -231 -4 -24 25 -29 26 -135 26 -73 -1 -122 -6 -143 -15z" fill="#a37e2c"/>
<path d="M583 2210 c-27 -11 -39 -51 -23 -79 14 -27 74 -28 113 -2 16 10 37 16 48 14 35 -9 20 13 -30 45 -50 33 -70 37 -108 22z" fill="#a37e2c"/>
<path d="M2317 2184 c-51 -40 -57 -49 -28 -41 11 2 32 -4 48 -14 15 -10 45 -19 66 -19 30 0 39 5 47 24 12 33 3 62 -26 75 -39 18 -58 13 -107 -25z" fill="#a37e2c"/>
<path d="M1320 2081 c-155 -15 -389 -66 -373 -82 4 -4 46 1 93 12 146 34 279 49 455 49 194 0 306 -11 454 -46 112 -26 164 -19 64 9 -180 50 -493 76 -693 58z" fill="#a37e2c"/>
<path d="M644 2046 c-95 -30 -176 -111 -215 -215 -21 -57 -47 -276 -36 -305 15 -38 24 -8 35 108 13 139 34 206 87 278 46 63 99 96 173 110 39 7 62 16 62 25 0 17 -51 16 -106 -1z" fill="#a37e2c"/>
<path d="M2260 2046 c0 -9 17 -16 48 -21 67 -9 126 -40 168 -88 68 -78 95 -164 110 -345 4 -54 11 -81 18 -79 16 6 10 188 -10 270 -31 127 -121 230 -232 263 -59 18 -102 18 -102 0z" fill="#a37e2c"/>
<path d="M1282 1950 c-70 -43 -82 -167 -27 -269 48 -87 199 -221 250 -221 61 0 230 163 265 256 54 144 -1 254 -128 254 -56 0 -83 -10 -118 -42 -19 -17 -22 -17 -34 -3 -40 48 -149 61 -208 25z" fill="#a37e2c"/>
<path d="M580 1903 c-97 -86 6 -235 124 -181 52 23 75 104 46 157 -29 55 -122 67 -170 24z" fill="#a37e2c"/>
<path d="M907 1913 c-3 -10 -8 -34 -11 -54 -4 -20 -24 -60 -46 -89 -39 -52 -66 -118 -72 -174 -5 -51 17 -38 30 16 7 29 26 71 43 93 47 63 79 135 79 183 0 42 -14 57 -23 25z" fill="#a37e2c"/>
<path d="M2077 1923 c-6 -10 7 -90 20 -123 6 -14 29 -49 52 -79 25 -35 45 -74 52 -108 12 -52 23 -66 32 -40 11 35 -31 145 -83 213 -20 26 -34 58 -38 89 -6 44 -23 68 -35 48z" fill="#a37e2c"/>
<path d="M2293 1910 c-38 -23 -56 -74 -42 -124 14 -52 42 -71 106 -71 48 0 58 4 79 28 46 53 44 109 -6 158 -35 35 -89 39 -137 9z" fill="#a37e2c"/>
<path d="M2343 1620 c-27 -11 -39 -53 -24 -86 8 -18 18 -24 44 -24 64 0 89 61 41 99 -30 23 -30 23 -61 11z" fill="#a37e2c"/>
<path d="M596 1604 c-35 -35 -6 -94 46 -94 14 0 32 8 41 18 35 39 10 92 -43 92 -16 0 -36 -7 -44 -16z" fill="#a37e2c"/>
<path d="M887 1472 c-9 -10 -17 -24 -17 -31 0 -13 -14 -12 -291 10 -144 12 -172 8 -182 -30 -7 -29 5 -41 64 -56 61 -17 264 -44 354 -47 l59 -3 12 -40 c15 -56 48 -61 70 -10 l15 37 52 -6 c283 -33 723 -33 975 0 39 5 43 3 53 -23 5 -15 15 -33 21 -40 16 -20 46 3 54 42 7 38 -19 31 221 55 112 12 248 41 265 58 14 14 -8 59 -32 67 -11 4 -78 2 -148 -4 -70 -6 -163 -13 -207 -16 l-80 -5 -17 31 c-22 38 -48 35 -68 -8 -8 -18 -22 -35 -30 -37 -8 -3 -82 -13 -165 -22 -204 -23 -502 -23 -723 1 l-173 18 -17 36 c-20 42 -41 49 -65 23z" fill="#a37e2c"/>
<path d="M446 1274 c-9 -23 -7 -54 5 -97 14 -52 67 -76 165 -77 58 0 77 4 105 23 32 22 34 26 37 91 2 52 0 67 -10 64 -8 -3 -15 -27 -18 -61 -3 -30 -8 -58 -12 -62 -26 -27 -162 -26 -205 1 -20 12 -23 23 -23 74 0 52 -2 60 -19 60 -10 0 -22 -7 -25 -16z" fill="#a37e2c"/>
<path d="M2518 1230 c-2 -33 -9 -65 -15 -71 -31 -31 -178 -32 -209 -2 -9 9 -14 35 -14 70 0 39 -4 54 -12 51 -8 -3 -14 -29 -16 -70 -3 -60 -1 -66 23 -82 61 -40 181 -38 253 6 31 19 32 21 32 89 0 61 -2 69 -19 69 -16 0 -19 -9 -23 -60z" fill="#a37e2c"/>
<path d="M1400 1162 c0 -9 -16 -39 -35 -66 -19 -27 -35 -59 -34 -70 0 -19 1 -19 10 3 5 13 23 39 39 58 19 21 30 45 30 63 0 17 -2 30 -5 30 -3 0 -5 -8 -5 -18z" fill="#a37e2c"/>
<path d="M1606 1171 c-4 -7 -5 -24 -1 -39 7 -30 66 -121 78 -122 14 0 6 24 -19 58 -15 19 -32 53 -39 75 -7 25 -15 36 -19 28z" fill="#a37e2c"/>
<path d="M1514 1110 c3 -63 30 -149 42 -137 3 3 -2 26 -11 50 -9 25 -21 69 -26 98 l-8 54 3 -65z" fill="#a37e2c"/>
<path d="M1245 939 c-16 -5 -49 -13 -72 -19 -38 -9 -43 -14 -43 -38 0 -16 6 -37 14 -47 13 -18 15 -18 97 0 46 10 88 22 93 26 6 5 5 24 -3 49 -13 43 -25 47 -86 29z" fill="#a37e2c"/>
<path d="M1571 873 c-23 -43 -41 -81 -41 -85 0 -13 53 -48 74 -48 18 0 29 16 59 81 20 45 37 85 37 90 0 11 -54 39 -74 39 -8 0 -32 -34 -55 -77z" fill="#a37e2c"/>
<path d="M1751 849 c-18 -51 -14 -68 17 -75 15 -3 49 -12 76 -20 72 -20 83 -18 95 17 20 59 17 64 -61 82 -40 10 -83 20 -94 23 -17 5 -24 -1 -33 -27z" fill="#a37e2c"/>
<path d="M362 763 c-67 -186 -102 -288 -102 -298 0 -7 59 -33 135 -60 74 -26 135 -48 135 -50 0 -1 -7 -19 -15 -38 l-15 -36 36 -11 c19 -7 37 -10 40 -7 6 6 144 386 144 397 0 13 -60 34 -69 24 -4 -5 -27 -64 -51 -131 l-44 -121 -94 34 c-52 19 -96 34 -98 34 -10 0 -1 35 39 145 l44 120 -30 13 c-40 17 -44 16 -55 -15z" fill="#a37e2c"/>
<path d="M2508 702 c-54 -20 -98 -42 -98 -48 0 -10 136 -380 146 -396 2 -4 18 -2 35 4 28 10 30 13 24 42 -14 63 -13 67 40 87 65 25 69 24 120 -12 40 -29 46 -30 79 -19 20 6 36 15 36 20 0 4 -22 25 -50 46 -27 21 -50 41 -50 44 1 3 7 16 15 30 40 70 2 179 -75 218 -61 30 -108 27 -222 -16z m194 -53 c11 -6 26 -26 34 -46 14 -31 13 -38 -3 -71 -15 -31 -29 -41 -88 -64 -38 -14 -73 -24 -77 -20 -9 9 -58 141 -58 157 0 16 94 52 138 54 18 0 42 -4 54 -10z m68 -129 c0 -5 -2 -10 -4 -10 -3 0 -8 5 -11 10 -3 6 -1 10 4 10 6 0 11 -4 11 -10z m-203 -129 c2 -13 -1 -29 -7 -36 -5 -6 -7 -15 -3 -19 4 -4 0 -4 -10 0 -9 3 -14 11 -10 16 3 6 6 24 5 40 -1 34 19 33 25 -1z m23 -103 c0 -5 -5 -8 -11 -8 -5 0 -7 5 -4 10 3 6 1 10 -5 10 -6 0 -8 5 -4 11 6 11 23 -6 24 -23z" fill="#a37e2c"/>
<path d="M915 598 c-6 -17 -45 -199 -45 -210 0 -4 7 -8 16 -8 8 0 13 4 10 8 -3 5 1 9 9 9 8 0 15 -4 15 -9 0 -5 9 -6 20 -3 24 8 25 2 4 -20 -9 -9 -15 -17 -13 -19 13 -9 204 -45 210 -39 4 5 9 21 11 37 3 29 3 29 -95 51 -53 12 -99 24 -101 26 -2 2 2 24 8 49 13 52 2 52 175 13 62 -14 117 -21 121 -16 5 4 10 21 12 38 l3 30 -145 31 c-212 47 -210 47 -215 32z m120 -238 c3 -5 1 -10 -4 -10 -6 0 -11 5 -11 10 0 6 2 10 4 10 3 0 8 -4 11 -10z" fill="#a37e2c"/>
<path d="M2070 560 c-128 -27 -175 -40 -175 -51 0 -33 39 -219 46 -219 4 0 15 7 23 16 9 8 16 12 16 8 0 -3 7 -1 15 6 20 16 26 10 18 -18 -4 -17 -13 -22 -39 -22 -19 0 -34 -2 -34 -4 0 -7 31 -161 35 -173 3 -8 52 -1 167 23 212 45 199 40 192 72 -4 15 -10 30 -13 35 -4 4 -69 -6 -144 -22 -75 -16 -139 -25 -142 -21 -3 5 -8 28 -11 52 l-6 43 98 20 99 20 -2 33 c0 18 -3 35 -5 38 -3 2 -49 -5 -103 -16 -54 -11 -102 -17 -106 -13 -4 5 -10 27 -14 50 -6 39 -5 43 17 48 13 2 66 14 118 25 52 11 105 22 118 25 15 4 22 12 21 28 -1 56 0 56 -189 17z m-90 -316 c0 -8 -4 -12 -10 -9 -5 3 -10 10 -10 16 0 5 5 9 10 9 6 0 10 -7 10 -16z" fill="#a37e2c"/>
<path d="M1400 503 c0 -5 32 -104 71 -220 l71 -213 39 0 c28 0 42 5 46 17 4 10 37 109 74 221 l67 203 -40 -3 -41 -3 -49 -145 c-28 -85 -45 -152 -42 -164 6 -18 7 -18 19 -3 17 24 25 21 25 -8 0 -14 -7 -28 -15 -31 -8 -3 -17 -14 -20 -25 -8 -24 -27 -25 -23 -2 2 10 -5 19 -16 21 -12 3 -16 0 -11 -8 5 -8 3 -11 -6 -8 -8 3 -14 18 -13 39 0 19 -4 37 -9 40 -6 4 -5 14 1 24 9 17 10 17 16 -3 4 -12 4 -26 1 -32 -4 -6 5 -10 21 -10 20 0 24 3 16 13 -5 6 -31 78 -58 160 l-48 147 -38 0 c-21 0 -38 -3 -38 -7z" fill="#a37e2c"/>
<path d="M847 292 c-24 -111 -25 -109 36 -121 28 -6 107 -23 174 -38 68 -15 124 -25 127 -22 2 2 7 18 10 36 l7 31 -70 16 c-39 9 -103 23 -142 32 l-71 16 6 44 c6 46 0 77 -14 69 -5 -3 -11 -1 -15 5 -17 27 -33 5 -48 -68z m43 32 c0 -8 -4 -12 -10 -9 -5 3 -10 10 -10 16 0 5 5 9 10 9 6 0 10 -7 10 -16z" fill="#a37e2c"/>
</g>
</svg>