<?xml version="1.0" encoding="UTF-8"?> <svg xmlns="http://www.w3.org/2000/svg" width="352" height="337" viewBox="0 0 352 337" fill="none"><path d="M80.8088 42.4127L80.8614 22.926C80.5981 17.87 78.5441 13.4987 74.1728 11.4447C71.1181 10.0227 67.5894 10.0753 64.5874 11.6027C60.4268 13.7093 58.4254 18.028 58.2674 23.0313C58.2674 25.1907 58.2674 39.99 58.2674 42.4127C58.5834 47.3633 60.6901 51.5767 64.9561 53.578C67.9581 54.9473 71.5394 54.8947 74.4888 53.3673C78.5441 51.3133 80.5454 47.2053 80.8088 42.4127ZM82.6521 42.7287C81.9148 49.4173 76.7008 54.6313 70.3281 55C70.0121 55 69.7488 55 69.4854 55C62.7968 55 57.2668 49.6807 56.4768 42.7287L56.4241 22.926C56.8454 15.9213 62.1648 10.3913 68.7481 9.97C68.8008 9.97 68.8008 9.97 68.8008 10.0227C69.0641 9.97 69.3274 9.97 69.5908 9.97C76.5428 9.97 82.2308 15.7107 82.7048 22.926L82.6521 42.7287ZM122.96 39.832V42.0967C122.96 42.0967 122.117 39.7793 118.483 38.884V38.6207C120.01 38.726 121.696 38.7787 122.96 39.832ZM120.274 54.7893V55H114.112V52.946C114.112 52.8407 114.112 52.7353 114.112 52.63C114.112 51.208 114.112 29.562 114.112 24.2427C114.112 18.7653 112.005 13.9727 107.37 11.8133C104.368 10.3913 100.787 10.444 97.7851 11.9713C93.5191 14.1307 91.5705 18.6073 91.4125 23.7687C91.4125 23.9267 91.4125 24.7167 91.4125 24.9273C91.5705 31.8793 95.2045 37.62 103.262 38.094H104.474V38.3047C104.263 38.3047 102.894 38.3573 102.683 38.3573C102.472 38.3573 102.209 38.3047 101.998 38.3047C95.2571 37.936 89.8851 32.1953 89.5691 25.0853C89.5691 24.822 89.5691 24.5587 89.5691 24.348C89.5691 24.0847 89.5691 23.874 89.5691 23.6107C89.8851 16.448 95.2571 10.76 101.998 10.3387C102.262 10.3387 102.525 10.3387 102.841 10.3387C109.793 10.3387 115.481 16.0793 115.955 23.3473L116.008 52.5247C116.008 54.7367 119.273 54.7893 120.274 54.7893ZM156.249 55H154.353L154.406 22.926C154.195 17.9227 152.194 13.604 148.033 11.4447C145.031 9.91733 141.503 9.86466 138.448 11.2867C133.813 13.4987 131.759 18.2913 131.707 23.874C131.707 29.246 131.759 54.8947 131.759 54.8947H129.863L129.916 22.926C130.39 15.6053 136.078 9.812 143.03 9.812C143.293 9.812 143.557 9.812 143.82 9.812H143.873C150.509 10.2333 155.828 15.9213 156.249 23.0313V55ZM187.653 9.86466H189.549L189.496 42.044C189.022 49.312 183.334 55 176.382 55C176.119 55 175.855 55 175.592 55H175.539C168.903 54.6313 163.584 48.996 163.163 41.9913V9.97H165.059L165.006 41.9913C165.217 46.942 167.218 51.2607 171.379 53.3673C174.328 54.8947 177.909 54.9473 180.964 53.5253C185.599 51.366 187.653 46.5733 187.705 41.096C187.705 35.7767 187.653 9.86466 187.653 9.86466ZM224.691 41.6227C224.691 41.886 224.691 42.202 224.639 42.4653C224.27 49.2593 218.477 54.684 211.314 55C211.051 55 210.787 55 210.577 55C210.313 55 210.05 55 209.839 55C202.624 54.684 196.831 49.2593 196.462 42.4653C196.462 42.2547 196.462 41.9913 196.462 41.7807C196.462 41.5173 196.462 40.2007 196.462 39.99H196.673V41.1487C197.147 49.312 202.94 52.946 209.997 53.1567C210.155 53.1567 210.945 53.1567 211.156 53.1567C216.317 52.9987 220.847 50.9973 223.059 46.6787C224.586 43.6767 224.639 40.0953 223.217 37.0407C221.005 32.3533 216.159 30.4047 210.629 30.4047C204.731 30.352 199.938 25.6647 199.938 20.082C199.938 19.8713 199.938 19.6607 199.938 19.45C199.938 19.45 199.938 19.45 199.938 19.3973C200.254 14.236 204.678 10.0753 210.208 9.812C210.366 9.812 210.577 9.812 210.787 9.812C210.945 9.812 211.156 9.812 211.314 9.812C216.844 10.0753 221.268 14.236 221.584 19.3973C221.584 19.608 221.584 19.766 221.584 19.9767C221.584 20.1347 221.584 21.188 221.584 21.346H221.426V20.398C221.057 14.1833 216.633 11.392 211.209 11.234C211.051 11.234 210.471 11.234 210.313 11.234C206.311 11.3393 202.887 12.8667 201.202 16.1847C199.991 18.502 199.991 21.2407 201.044 23.6107C202.729 27.192 206.416 28.14 210.629 28.1927C218.424 28.1927 224.691 34.302 224.691 41.6227ZM257.947 55H256.051L256.104 22.926C255.893 17.9227 253.892 13.604 249.731 11.4447C246.729 9.91733 243.201 9.86466 240.146 11.2867C235.511 13.4987 233.457 18.2913 233.405 23.874C233.405 29.246 233.457 54.8947 233.457 54.8947H231.561L231.614 22.926C232.088 15.6053 237.776 9.812 244.728 9.812C244.991 9.812 245.255 9.812 245.518 9.812H245.571C252.207 10.2333 257.526 15.9213 257.947 23.0313V55ZM289.351 9.86466H291.247L291.194 42.044C290.72 49.312 285.032 55 278.08 55C277.817 55 277.553 55 277.29 55H277.237C270.601 54.6313 265.282 48.996 264.861 41.9913V9.97H266.757L266.704 41.9913C266.915 46.942 268.916 51.2607 273.077 53.3673C276.026 54.8947 279.607 54.9473 282.662 53.5253C287.297 51.366 289.351 46.5733 289.403 41.096C289.403 35.7767 289.351 9.86466 289.351 9.86466Z" fill="black"></path><path d="M8.94506 114.36V115.752C8.94506 117.656 7.76106 119.16 5.21706 119.16C2.67306 119.16 1.50506 117.656 1.50506 115.752V108.888C1.50506 108.008 1.37706 107.8 0.561063 107.8V107.4H4.25706V107.8C3.44106 107.8 3.34506 108.008 3.34506 108.888V110.248C3.34506 111.208 3.44106 111.4 4.32106 111.4H6.38506C7.80906 111.4 9.61706 111.496 10.1611 112.024L8.35306 112.808C7.72906 112.264 6.44906 111.784 5.10506 111.784H4.32106C3.44106 111.784 3.34506 111.896 3.34506 112.968V116.312C3.34506 118.472 4.54506 118.792 5.21706 118.792C5.90506 118.792 7.10506 118.472 7.10506 116.312V114.36H8.94506ZM14.0863 118.6V119H10.3423V118.6C11.1583 118.6 11.2863 118.376 11.2863 117.496V110.648C11.2863 108.744 12.4543 107.24 14.9983 107.24C17.5423 107.24 18.7103 108.744 18.7103 110.648V111.576C18.7103 112.456 18.8063 112.68 19.6383 112.68V113.08H15.9263V112.68C16.7423 112.68 16.8703 112.456 16.8703 111.576V110.088C16.8703 107.928 15.6863 107.608 14.9983 107.608C14.3263 107.608 13.1263 107.928 13.1263 110.088V117.496C13.1423 118.376 13.2703 118.6 14.0863 118.6ZM29.4333 118.6V119H25.7213V118.6C26.5373 118.6 26.6493 118.376 26.6493 117.496V115.96C26.6493 115.672 26.5213 115.656 26.3613 115.704C26.1373 115.784 25.5133 115.976 24.8093 115.976C22.2653 115.976 21.1613 114.472 21.1613 112.568V108.904C21.1613 108.024 21.0333 107.8 20.2173 107.8V107.4H23.9133V107.8C23.0973 107.8 23.0013 108.024 23.0013 108.904V113.128C23.0013 115.288 24.1853 115.608 24.8733 115.608C25.4653 115.608 26.6493 115.336 26.6493 113.544V112.904C26.6493 112.024 26.5373 111.8 25.7213 111.8V111.4H29.4333V111.8C28.6013 111.8 28.4893 112.024 28.4893 112.904V117.496C28.4893 118.376 28.6013 118.6 29.4333 118.6Z" fill="#252222"></path><path d="M59.0466 114.36V115.752C59.0466 117.656 57.8626 119.16 55.3186 119.16C52.7746 119.16 51.6066 117.656 51.6066 115.752V108.888C51.6066 108.008 51.4786 107.8 50.6626 107.8V107.4H54.3586V107.8C53.5426 107.8 53.4466 108.008 53.4466 108.888V110.248C53.4466 111.208 53.5426 111.4 54.4226 111.4H56.4866C57.9106 111.4 59.7186 111.496 60.2626 112.024L58.4546 112.808C57.8306 112.264 56.5506 111.784 55.2066 111.784H54.4226C53.5426 111.784 53.4466 111.896 53.4466 112.968V116.312C53.4466 118.472 54.6466 118.792 55.3186 118.792C56.0066 118.792 57.2066 118.472 57.2066 116.312V114.36H59.0466ZM64.1879 118.6V119H60.4439V118.6C61.2599 118.6 61.3879 118.376 61.3879 117.496V110.648C61.3879 108.744 62.5559 107.24 65.0999 107.24C67.6439 107.24 68.8119 108.744 68.8119 110.648V111.576C68.8119 112.456 68.9079 112.68 69.7399 112.68V113.08H66.0279V112.68C66.8439 112.68 66.9719 112.456 66.9719 111.576V110.088C66.9719 107.928 65.7879 107.608 65.0999 107.608C64.4279 107.608 63.2279 107.928 63.2279 110.088V117.496C63.2439 118.376 63.3719 118.6 64.1879 118.6ZM77.9509 113.848C78.8469 113.848 80.1109 113.336 80.1109 110.808C80.1109 108.376 78.9429 107.608 77.9509 107.608C77.1349 107.608 75.8229 108.072 75.8229 110.808C75.8229 113.384 77.1989 113.848 77.9509 113.848ZM82.7349 116.152L80.9109 116.936C80.3669 116.504 79.6149 115.928 78.3509 115.928H76.1429C75.8709 115.928 75.8229 115.96 75.8229 116.28V117.496C75.8229 118.376 75.9349 118.6 76.7509 118.6V119H73.0389V118.6C73.8709 118.6 73.9829 118.376 73.9829 117.496V116.328C73.9829 115.96 73.9349 115.928 73.6629 115.928C73.4709 115.928 73.2629 115.928 73.0709 115.944C71.7909 115.976 70.6869 115.944 69.9349 115.352L71.7429 114.568C72.1269 115.064 72.7509 115.496 73.7109 115.512C73.9189 115.512 73.9829 115.432 73.9829 115.128V110.904C73.9829 108.712 75.5509 107.24 77.9509 107.24C80.4949 107.24 82.0149 108.936 82.0149 110.808C82.0149 112.84 80.5749 114.216 78.0629 114.216C77.3749 114.216 76.6069 114.008 76.1269 113.768C75.8869 113.64 75.8229 113.8 75.8229 114.152V115.208C75.8229 115.608 76.1429 115.528 76.4949 115.528H79.2469C81.0389 115.528 82.2709 115.688 82.7349 116.152Z" fill="#252222"></path><path d="M111.661 118.488V118.888C111.405 118.984 110.717 119.112 110.445 119.112C109.869 119.112 109.117 119.112 108.413 118.568L105.277 116.184C104.925 115.928 104.605 115.752 104.141 115.752H103.885V115.336C103.965 115.32 104.445 115.16 104.541 115.144C104.941 114.984 105.981 114.76 106.877 115.464L107.229 115.736C107.757 116.136 108.173 116.088 108.685 115.784C109.805 115.144 110.637 113.48 110.637 111.576C110.637 109.16 109.837 107.608 108.253 107.608C106.717 107.608 105.885 108.808 105.885 111.624H104.029C104.029 108.872 105.741 107.24 108.269 107.24C110.781 107.24 112.541 109 112.541 111.432C112.541 113.576 111.389 115.304 108.717 116.232C108.221 116.408 108.365 116.696 108.941 117.128L110.317 118.12C110.669 118.376 110.973 118.488 111.405 118.488C111.501 118.488 111.565 118.488 111.661 118.488ZM117.11 118.6V119H113.366V118.6C114.182 118.6 114.31 118.376 114.31 117.496V110.648C114.31 108.744 115.478 107.24 118.022 107.24C120.566 107.24 121.734 108.744 121.734 110.648V111.576C121.734 112.456 121.83 112.68 122.662 112.68V113.08H118.95V112.68C119.766 112.68 119.894 112.456 119.894 111.576V110.088C119.894 107.928 118.71 107.608 118.022 107.608C117.35 107.608 116.15 107.928 116.15 110.088V117.496C116.166 118.376 116.294 118.6 117.11 118.6ZM130.873 113.848C131.769 113.848 133.033 113.336 133.033 110.808C133.033 108.376 131.865 107.608 130.873 107.608C130.057 107.608 128.745 108.072 128.745 110.808C128.745 113.384 130.121 113.848 130.873 113.848ZM135.657 116.152L133.833 116.936C133.289 116.504 132.537 115.928 131.273 115.928H129.065C128.793 115.928 128.745 115.96 128.745 116.28V117.496C128.745 118.376 128.857 118.6 129.673 118.6V119H125.961V118.6C126.793 118.6 126.905 118.376 126.905 117.496V116.328C126.905 115.96 126.857 115.928 126.585 115.928C126.393 115.928 126.185 115.928 125.993 115.944C124.713 115.976 123.609 115.944 122.857 115.352L124.665 114.568C125.049 115.064 125.673 115.496 126.633 115.512C126.841 115.512 126.905 115.432 126.905 115.128V110.904C126.905 108.712 128.473 107.24 130.873 107.24C133.417 107.24 134.937 108.936 134.937 110.808C134.937 112.84 133.497 114.216 130.985 114.216C130.297 114.216 129.529 114.008 129.049 113.768C128.809 113.64 128.745 113.8 128.745 114.152V115.208C128.745 115.608 129.065 115.528 129.417 115.528H132.169C133.961 115.528 135.193 115.688 135.657 116.152Z" fill="#252222"></path><path d="M164.501 116.6V119.16H164.005C164.005 118.344 163.349 118.008 162.629 117.736L156.117 115.128C156.837 114.072 160.677 107.24 164.037 107.24V110.36H163.621C163.621 109.576 163.109 109.256 162.629 109.256C162.341 109.256 160.661 109.4 157.941 113.288C157.733 113.592 157.589 113.832 158.021 113.992L164.501 116.6ZM174.324 114.584V115.752C174.324 117.656 173.14 119.16 170.596 119.16C168.052 119.16 166.884 117.656 166.884 115.752V110.216C166.884 109.336 166.772 109.112 165.78 109.112C164.228 109.112 163.204 108.776 162.676 108.152L164.468 107.384C164.74 107.928 165.908 108.712 167.14 108.712H169.636V109.112C168.82 109.112 168.724 109.336 168.724 110.216V116.312C168.724 118.472 169.908 118.792 170.596 118.792C171.284 118.792 172.468 118.472 172.468 116.312V114.584C172.468 113.704 172.356 113.48 171.54 113.48V113.08H175.236V113.48C174.42 113.48 174.324 113.704 174.324 114.584ZM182.292 112.232V110.568C182.292 108.376 181.316 107.608 180.164 107.608C178.868 107.608 177.956 108.712 177.956 110.968C177.956 112.888 178.916 114.12 180.404 114.12C181.604 114.12 182.292 113.208 182.292 112.232ZM185.06 118.6V119H181.348V118.6C182.18 118.6 182.292 118.376 182.292 117.496V114.296C182.292 114.008 182.228 113.928 182.052 114.04C181.492 114.392 180.676 114.536 180.292 114.536C177.092 114.536 176.036 112.456 176.036 110.92C176.036 109.176 177.268 107.24 180.132 107.24C182.692 107.24 184.132 108.712 184.132 110.776V112.712C184.132 113.704 184.26 113.816 184.98 113.816C186.228 113.816 187.588 113.848 188.26 114.44L186.452 115.192C186.052 114.872 185.508 114.184 184.756 114.184C184.26 114.184 184.132 114.312 184.132 115.352V117.496C184.132 118.376 184.228 118.6 185.06 118.6Z" fill="#252222"></path><path d="M217.912 118.6V119H214.216V118.6C215.032 118.6 215.16 118.376 215.16 117.496V110.088C215.16 107.928 213.96 107.608 213.272 107.608C212.6 107.608 211.4 107.928 211.4 110.088V117.496C211.4 118.376 211.496 118.6 212.312 118.6V119H208.616V118.6C209.432 118.6 209.56 118.376 209.56 117.496V110.648C209.56 108.744 210.728 107.24 213.272 107.24C215.816 107.24 217 108.744 217 110.648V117.496C217 118.376 217.096 118.6 217.912 118.6ZM227.084 115.368V115.784C225.932 115.784 224.044 115.512 224.044 113.48C224.044 111.592 223.02 110.952 221.676 110.952C221.388 110.952 221.244 111.016 221.244 111.368V117.496C221.244 118.376 221.34 118.6 222.156 118.6V119H218.46V118.6C219.276 118.6 219.404 118.376 219.404 117.496V108.904C219.404 108.024 219.276 107.8 218.46 107.8V107.4H222.156V107.8C221.34 107.8 221.244 108.024 221.244 108.904V109.96C221.244 110.376 221.276 110.52 221.884 110.52C224.108 110.52 225.884 111.176 225.884 113.464C225.884 114.616 226.46 115.368 227.084 115.368ZM231.094 118.6V119H227.35V118.6C228.166 118.6 228.294 118.376 228.294 117.496V110.648C228.294 108.744 229.462 107.24 232.006 107.24C234.55 107.24 235.718 108.744 235.718 110.648V111.576C235.718 112.456 235.814 112.68 236.646 112.68V113.08H232.934V112.68C233.75 112.68 233.878 112.456 233.878 111.576V110.088C233.878 107.928 232.694 107.608 232.006 107.608C231.334 107.608 230.134 107.928 230.134 110.088V117.496C230.15 118.376 230.278 118.6 231.094 118.6ZM238.169 117.512V110.648C238.169 108.744 239.337 107.24 241.881 107.24C244.425 107.24 245.609 108.744 245.609 110.648V112.152H243.769V110.088C243.769 107.928 242.569 107.608 241.881 107.608C241.209 107.608 240.009 107.928 240.009 110.088V112.664C240.009 113.624 240.105 113.816 240.985 113.816H242.873C244.297 113.816 246.025 113.912 246.569 114.424L244.745 115.224C244.121 114.68 242.857 114.184 241.689 114.184H240.985C240.105 114.184 240.009 114.36 240.009 115.384V117.512C240.009 118.392 240.105 118.6 240.921 118.6V119H237.225V118.6C238.041 118.6 238.169 118.392 238.169 117.512Z" fill="#252222"></path><path d="M274.356 114.776H276.196C276.196 117.528 274.484 119.16 271.956 119.16C269.444 119.16 267.684 117.336 267.684 114.904C267.684 112.872 268.692 111 271.284 110.136C271.78 109.96 271.636 109.704 271.044 109.272L269.668 108.28C269.316 108.008 268.772 107.912 268.324 107.912C268.228 107.912 268.164 107.912 268.084 107.912V107.512C268.324 107.416 269.124 107.24 269.428 107.24C270.004 107.24 270.884 107.288 271.604 107.832L274.724 110.232C275.076 110.504 275.412 110.648 275.876 110.648H276.132V111.064C276.052 111.08 275.572 111.24 275.476 111.256C275.076 111.416 274.036 111.64 273.14 110.936L272.788 110.664C272.26 110.264 271.844 110.312 271.332 110.616C270.212 111.256 269.588 112.984 269.588 114.824C269.588 117.24 270.388 118.792 271.972 118.792C273.508 118.792 274.356 117.592 274.356 114.776ZM277.872 117.512V110.648C277.872 108.744 279.04 107.24 281.584 107.24C284.128 107.24 285.312 108.744 285.312 110.648V112.152H283.472V110.088C283.472 107.928 282.272 107.608 281.584 107.608C280.912 107.608 279.712 107.928 279.712 110.088V112.664C279.712 113.624 279.808 113.816 280.688 113.816H282.576C284 113.816 285.728 113.912 286.272 114.424L284.448 115.224C283.824 114.68 282.56 114.184 281.392 114.184H280.688C279.808 114.184 279.712 114.36 279.712 115.384V117.512C279.712 118.392 279.808 118.6 280.624 118.6V119H276.928V118.6C277.744 118.6 277.872 118.392 277.872 117.512ZM295.927 114.088V112.904C295.927 111.912 295.703 111.816 294.695 111.816C293.095 111.816 292.503 112.6 292.503 114.152C292.503 115.816 293.287 116.392 294.247 116.392C295.239 116.392 295.927 115.752 295.927 114.088ZM301.911 112.024L300.087 112.792C299.703 112.456 299.175 111.8 298.407 111.8C297.815 111.8 297.767 111.912 297.767 112.84V113.544C297.767 115.64 296.359 116.76 294.247 116.76C292.247 116.76 290.615 115.768 290.615 114.088C290.615 112.184 292.039 111.4 294.055 111.4H294.871C295.815 111.4 295.927 111.32 295.927 110.488C295.927 107.848 293.719 107.608 292.583 107.608C290.599 107.608 289.415 108.808 289.415 111.784V117.496C289.415 118.376 289.511 118.6 290.327 118.6V119H286.631V118.6C287.447 118.6 287.575 118.376 287.575 117.496V111.88C287.575 108.888 289.111 107.24 292.583 107.24C295.127 107.24 297.655 108.104 297.767 110.84C297.799 111.336 297.863 111.4 298.407 111.4C299.879 111.384 301.223 111.432 301.911 112.024Z" fill="#252222"></path><path d="M331.801 118.6V119H328.089V118.6C328.905 118.6 329.017 118.376 329.017 117.496V115.96C329.017 115.672 328.889 115.656 328.729 115.704C328.505 115.784 327.881 115.976 327.177 115.976C324.633 115.976 323.529 114.472 323.529 112.568V108.904C323.529 108.024 323.401 107.8 322.585 107.8V107.4H326.281V107.8C325.465 107.8 325.369 108.024 325.369 108.904V113.128C325.369 115.288 326.553 115.608 327.241 115.608C327.833 115.608 329.017 115.336 329.017 113.544V112.904C329.017 112.024 328.905 111.8 328.089 111.8V111.4H331.801V111.8C330.969 111.8 330.857 112.024 330.857 112.904V117.496C330.857 118.376 330.969 118.6 331.801 118.6ZM341.534 115.496V115.896H337.838V115.496C338.654 115.496 338.782 115.272 338.782 114.392V113.048C338.782 110.888 337.598 110.568 336.91 110.568C336.302 110.568 335.134 110.84 335.134 112.632V117.496C335.134 118.376 335.23 118.6 336.046 118.6V119H332.35V118.6C333.166 118.6 333.294 118.376 333.294 117.496V108.904C333.294 108.024 333.166 107.8 332.35 107.8V107.4H336.046V107.8C335.23 107.8 335.134 108.024 335.134 108.904V110.184C335.134 110.456 335.23 110.536 335.406 110.472C335.63 110.392 336.27 110.2 336.958 110.2C339.502 110.2 340.622 111.704 340.622 113.608V114.392C340.622 115.272 340.718 115.496 341.534 115.496ZM345.829 118.6V119H342.085V118.6C342.901 118.6 343.029 118.376 343.029 117.496V110.648C343.029 108.744 344.197 107.24 346.741 107.24C349.285 107.24 350.453 108.744 350.453 110.648V111.576C350.453 112.456 350.549 112.68 351.381 112.68V113.08H347.669V112.68C348.485 112.68 348.613 112.456 348.613 111.576V110.088C348.613 107.928 347.429 107.608 346.741 107.608C346.069 107.608 344.869 107.928 344.869 110.088V117.496C344.885 118.376 345.013 118.6 345.829 118.6Z" fill="#252222"></path><path d="M59.1429 143.8H63.2229V155H61.6869V145.192H59.1429V143.8Z" fill="#252222"></path><path d="M61.5181 187.736C63.7741 187.736 65.1661 188.808 65.1661 190.584C65.1661 191.704 64.5101 192.568 63.4381 193.016C64.8461 193.464 65.7261 194.472 65.7261 195.864C65.7261 197.848 64.1101 199.08 61.5341 199.08C58.9581 199.08 57.3421 197.864 57.3421 195.896C57.3421 194.488 58.2541 193.464 59.6941 193.016C58.5581 192.536 57.8861 191.672 57.8861 190.536C57.8861 188.792 59.2941 187.736 61.5181 187.736ZM61.5341 188.856C60.0621 188.856 59.1981 189.528 59.1981 190.664C59.1981 191.816 60.0621 192.488 61.5341 192.488C63.0061 192.488 63.8541 191.816 63.8541 190.664C63.8541 189.528 63.0061 188.856 61.5341 188.856ZM61.5181 193.704C59.8061 193.704 58.7981 194.456 58.7981 195.72C58.7981 197.064 59.8061 197.848 61.5341 197.848C63.2461 197.848 64.2701 197.064 64.2701 195.736C64.2701 194.472 63.2461 193.704 61.5181 193.704Z" fill="#252222"></path><path d="M56.221 231.8H60.301V243H58.765V233.192H56.221V231.8ZM67.1033 235.976C69.6153 235.976 71.2153 237.4 71.2153 239.336C71.2153 241.592 69.5513 243.08 66.9913 243.08C65.6473 243.08 64.0793 242.568 62.9433 241.816L63.5673 240.584C64.5433 241.304 65.7433 241.704 66.8473 241.704C68.5273 241.704 69.5833 240.824 69.5833 239.448C69.5833 238.168 68.5913 237.368 66.7513 237.368C66.1593 237.368 64.6233 237.464 63.7913 237.592V231.8H70.7513V233.192H65.2313V236.04C65.7913 235.992 66.6073 235.976 67.1033 235.976Z" fill="#252222"></path><path d="M58.874 285.608H64.954V287H56.858V285.816L61.194 281.32C62.122 280.392 62.73 279.4 62.73 278.712C62.73 277.704 61.914 277.096 60.538 277.096C59.498 277.096 58.298 277.608 57.37 278.456L56.714 277.288C57.898 276.328 59.322 275.736 60.73 275.736C62.89 275.736 64.33 276.808 64.33 278.504C64.33 279.592 63.482 280.872 62.25 282.152L58.874 285.608ZM68.124 285.608H74.204V287H66.108V285.816L70.444 281.32C71.372 280.392 71.98 279.4 71.98 278.712C71.98 277.704 71.164 277.096 69.788 277.096C68.748 277.096 67.548 277.608 66.62 278.456L65.964 277.288C67.148 276.328 68.572 275.736 69.98 275.736C72.14 275.736 73.58 276.808 73.58 278.504C73.58 279.592 72.732 280.872 71.5 282.152L68.124 285.608Z" fill="#252222"></path><path d="M58.9287 329.608H65.0087V331H56.9127V329.816L61.2487 325.32C62.1767 324.392 62.7847 323.4 62.7847 322.712C62.7847 321.704 61.9687 321.096 60.5927 321.096C59.5527 321.096 58.3527 321.608 57.4247 322.456L56.7687 321.288C57.9527 320.328 59.3767 319.736 60.7847 319.736C62.9447 319.736 64.3847 320.808 64.3847 322.504C64.3847 323.592 63.5367 324.872 62.3047 326.152L58.9287 329.608ZM67.4587 329.08C68.1787 329.528 69.1227 329.784 69.9867 329.784C72.2907 329.784 73.4267 327.928 73.2827 325.112C72.7547 326.344 71.6187 327 70.0667 327C67.8427 327 66.4827 325.624 66.4827 323.448C66.4827 321.16 68.0187 319.736 70.3387 319.736C73.1067 319.736 74.8027 321.72 74.8027 325.144C74.8027 328.728 72.9787 331.08 70.0827 331.08C69.0267 331.08 67.7627 330.744 66.8507 330.248L67.4587 329.08ZM70.4347 321.064C68.9467 321.064 67.9227 321.96 67.9227 323.464C67.9227 324.872 68.8667 325.768 70.3387 325.768C72.0187 325.768 72.9947 324.632 72.9947 323.368C72.9947 322.344 72.2267 321.064 70.4347 321.064Z" fill="#252222"></path><path d="M119.999 153.608H126.079V155H117.983V153.816L122.319 149.32C123.247 148.392 123.855 147.4 123.855 146.712C123.855 145.704 123.039 145.096 121.663 145.096C120.623 145.096 119.423 145.608 118.495 146.456L117.839 145.288C119.023 144.328 120.447 143.736 121.855 143.736C124.015 143.736 125.455 144.808 125.455 146.504C125.455 147.592 124.607 148.872 123.375 150.152L119.999 153.608Z" fill="#252222"></path><path d="M109.334 197.08C110.054 197.528 110.998 197.784 111.862 197.784C114.166 197.784 115.302 195.928 115.158 193.112C114.63 194.344 113.494 195 111.942 195C109.718 195 108.358 193.624 108.358 191.448C108.358 189.16 109.894 187.736 112.214 187.736C114.982 187.736 116.678 189.72 116.678 193.144C116.678 196.728 114.854 199.08 111.958 199.08C110.902 199.08 109.638 198.744 108.726 198.248L109.334 197.08ZM112.31 189.064C110.822 189.064 109.798 189.96 109.798 191.464C109.798 192.872 110.742 193.768 112.214 193.768C113.894 193.768 114.87 192.632 114.87 191.368C114.87 190.344 114.102 189.064 112.31 189.064Z" fill="#252222"></path><path d="M110.549 231.8H114.629V243H113.093V233.192H110.549V231.8ZM124.727 233.72C124.007 233.272 123.047 233.016 122.183 233.016C119.847 233.016 118.711 234.872 118.855 237.672C119.399 236.456 120.535 235.8 122.103 235.8C124.343 235.8 125.719 237.176 125.719 239.352C125.719 241.64 124.167 243.08 121.831 243.08C119.031 243.08 117.335 241.08 117.335 237.64C117.335 234.072 119.175 231.736 122.071 231.736C123.143 231.736 124.423 232.056 125.335 232.552L124.727 233.72ZM121.831 237.032C120.135 237.032 119.143 238.152 119.159 239.416C119.143 240.456 119.927 241.736 121.735 241.736C123.239 241.736 124.279 240.84 124.279 239.336C124.279 237.912 123.319 237.032 121.831 237.032Z" fill="#252222"></path><path d="M109.819 285.608H115.899V287H107.803V285.816L112.139 281.32C113.067 280.392 113.675 279.4 113.675 278.712C113.675 277.704 112.859 277.096 111.483 277.096C110.443 277.096 109.243 277.608 108.315 278.456L107.659 277.288C108.843 276.328 110.267 275.736 111.675 275.736C113.835 275.736 115.275 276.808 115.275 278.504C115.275 279.592 114.427 280.872 113.195 282.152L109.819 285.608ZM121.325 280.552C123.517 280.68 124.989 281.752 124.989 283.544C124.989 285.624 123.309 287.08 120.637 287.08C119.197 287.08 117.693 286.6 116.685 285.912L117.341 284.664C118.221 285.352 119.389 285.768 120.541 285.768C122.397 285.768 123.485 284.888 123.485 283.592C123.485 282.248 122.365 281.56 120.493 281.56H118.957V280.584L122.397 277.192H117.229L117.213 275.8H124.413V276.776L120.653 280.504L121.325 280.552Z" fill="#252222"></path><path d="M111.013 324.552C113.205 324.68 114.677 325.752 114.677 327.544C114.677 329.624 112.997 331.08 110.325 331.08C108.885 331.08 107.381 330.6 106.373 329.912L107.029 328.664C107.909 329.352 109.077 329.768 110.229 329.768C112.085 329.768 113.173 328.888 113.173 327.592C113.173 326.248 112.053 325.56 110.181 325.56H108.645V324.584L112.085 321.192H106.917L106.901 319.8H114.101V320.776L110.341 324.504L111.013 324.552ZM121.284 319.736C124.292 319.736 125.972 321.752 125.972 325.4C125.972 329.048 124.292 331.08 121.284 331.08C118.26 331.08 116.596 329.048 116.596 325.4C116.596 321.752 118.26 319.736 121.284 319.736ZM121.284 320.952C119.236 320.952 118.18 322.424 118.18 325.4C118.18 328.36 119.236 329.848 121.284 329.848C123.332 329.848 124.388 328.36 124.388 325.4C124.388 322.424 123.332 320.952 121.284 320.952Z" fill="#252222"></path><path d="M176.2 148.552C178.392 148.68 179.864 149.752 179.864 151.544C179.864 153.624 178.184 155.08 175.512 155.08C174.072 155.08 172.568 154.6 171.56 153.912L172.216 152.664C173.096 153.352 174.264 153.768 175.416 153.768C177.272 153.768 178.36 152.888 178.36 151.592C178.36 150.248 177.24 149.56 175.368 149.56H173.832V148.584L177.272 145.192H172.104L172.088 143.8H179.288V144.776L175.528 148.504L176.2 148.552Z" fill="#252222"></path><path d="M161.455 187.8H165.535V199H163.999V189.192H161.455V187.8ZM173.058 187.736C176.066 187.736 177.746 189.752 177.746 193.4C177.746 197.048 176.066 199.08 173.058 199.08C170.034 199.08 168.37 197.048 168.37 193.4C168.37 189.752 170.034 187.736 173.058 187.736ZM173.058 188.952C171.01 188.952 169.954 190.424 169.954 193.4C169.954 196.36 171.01 197.848 173.058 197.848C175.106 197.848 176.162 196.36 176.162 193.4C176.162 190.424 175.106 188.952 173.058 188.952Z" fill="#252222"></path><path d="M164.104 231.8H168.184V243H166.648V233.192H164.104V231.8ZM170.138 231.8H178.522V233L173.642 243H172.01L176.794 233.192H171.53L171.514 234.808H170.138V231.8Z" fill="#252222"></path><path d="M166.772 285.608H172.852V287H164.756V285.816L169.092 281.32C170.02 280.392 170.628 279.4 170.628 278.712C170.628 277.704 169.812 277.096 168.436 277.096C167.396 277.096 166.196 277.608 165.268 278.456L164.612 277.288C165.796 276.328 167.22 275.736 168.628 275.736C170.788 275.736 172.228 276.808 172.228 278.504C172.228 279.592 171.38 280.872 170.148 282.152L166.772 285.608ZM182.374 282.744V284.12H180.646V287H179.206V284.12H173.654V282.936L177.654 275.8H179.158L175.318 282.744H179.206V279.88H180.646V282.744H182.374Z" fill="#252222"></path><path d="M165.247 324.552C167.439 324.68 168.911 325.752 168.911 327.544C168.911 329.624 167.231 331.08 164.559 331.08C163.119 331.08 161.615 330.6 160.607 329.912L161.263 328.664C162.143 329.352 163.311 329.768 164.463 329.768C166.319 329.768 167.407 328.888 167.407 327.592C167.407 326.248 166.287 325.56 164.415 325.56H162.879V324.584L166.319 321.192H161.151L161.135 319.8H168.335V320.776L164.575 324.504L165.247 324.552ZM169.823 319.8H173.903V331H172.367V321.192H169.823V319.8Z" fill="#252222"></path><path d="M236.249 150.744V152.12H234.521V155H233.081V152.12H227.529V150.936L231.529 143.8H233.033L229.193 150.744H233.081V147.88H234.521V150.744H236.249Z" fill="#252222"></path><path d="M226.19 187.8H230.27V199H228.734V189.192H226.19V187.8ZM232.096 187.8H236.176V199H234.64V189.192H232.096V187.8Z" fill="#252222"></path><path d="M224.557 231.8H228.637V243H227.101V233.192H224.557V231.8ZM235.471 231.736C237.727 231.736 239.119 232.808 239.119 234.584C239.119 235.704 238.463 236.568 237.391 237.016C238.799 237.464 239.679 238.472 239.679 239.864C239.679 241.848 238.063 243.08 235.487 243.08C232.911 243.08 231.295 241.864 231.295 239.896C231.295 238.488 232.207 237.464 233.647 237.016C232.511 236.536 231.839 235.672 231.839 234.536C231.839 232.792 233.247 231.736 235.471 231.736ZM235.487 232.856C234.015 232.856 233.151 233.528 233.151 234.664C233.151 235.816 234.015 236.488 235.487 236.488C236.959 236.488 237.807 235.816 237.807 234.664C237.807 233.528 236.959 232.856 235.487 232.856ZM235.471 237.704C233.759 237.704 232.751 238.456 232.751 239.72C232.751 241.064 233.759 241.848 235.487 241.848C237.199 241.848 238.223 241.064 238.223 239.736C238.223 238.472 237.199 237.704 235.471 237.704Z" fill="#252222"></path><path d="M226.077 285.608H232.157V287H224.061V285.816L228.397 281.32C229.325 280.392 229.933 279.4 229.933 278.712C229.933 277.704 229.117 277.096 227.741 277.096C226.701 277.096 225.501 277.608 224.573 278.456L223.917 277.288C225.101 276.328 226.525 275.736 227.933 275.736C230.093 275.736 231.533 276.808 231.533 278.504C231.533 279.592 230.685 280.872 229.453 282.152L226.077 285.608ZM237.775 279.976C240.287 279.976 241.887 281.4 241.887 283.336C241.887 285.592 240.223 287.08 237.663 287.08C236.319 287.08 234.751 286.568 233.615 285.816L234.239 284.584C235.215 285.304 236.415 285.704 237.519 285.704C239.199 285.704 240.255 284.824 240.255 283.448C240.255 282.168 239.263 281.368 237.423 281.368C236.831 281.368 235.295 281.464 234.463 281.592V275.8H241.423V277.192H235.903V280.04C236.463 279.992 237.279 279.976 237.775 279.976Z" fill="#252222"></path><path d="M281.15 147.976C283.662 147.976 285.262 149.4 285.262 151.336C285.262 153.592 283.598 155.08 281.038 155.08C279.694 155.08 278.126 154.568 276.99 153.816L277.614 152.584C278.59 153.304 279.79 153.704 280.894 153.704C282.574 153.704 283.63 152.824 283.63 151.448C283.63 150.168 282.638 149.368 280.798 149.368C280.206 149.368 278.67 149.464 277.838 149.592V143.8H284.798V145.192H279.278V148.04C279.838 147.992 280.654 147.976 281.15 147.976Z" fill="#252222"></path><path d="M271.518 187.8H275.598V199H274.062V189.192H271.518V187.8ZM279.952 197.608H286.032V199H277.936V197.816L282.272 193.32C283.2 192.392 283.808 191.4 283.808 190.712C283.808 189.704 282.992 189.096 281.616 189.096C280.576 189.096 279.376 189.608 278.448 190.456L277.792 189.288C278.976 188.328 280.4 187.736 281.808 187.736C283.968 187.736 285.408 188.808 285.408 190.504C285.408 191.592 284.56 192.872 283.328 194.152L279.952 197.608Z" fill="#252222"></path><path d="M270.573 231.8H274.653V243H273.117V233.192H270.573V231.8ZM278.287 241.08C279.007 241.528 279.951 241.784 280.815 241.784C283.119 241.784 284.255 239.928 284.111 237.112C283.583 238.344 282.447 239 280.895 239C278.671 239 277.311 237.624 277.311 235.448C277.311 233.16 278.847 231.736 281.167 231.736C283.935 231.736 285.631 233.72 285.631 237.144C285.631 240.728 283.807 243.08 280.911 243.08C279.855 243.08 278.591 242.744 277.679 242.248L278.287 241.08ZM281.263 233.064C279.775 233.064 278.751 233.96 278.751 235.464C278.751 236.872 279.695 237.768 281.167 237.768C282.847 237.768 283.823 236.632 283.823 235.368C283.823 234.344 283.055 233.064 281.263 233.064Z" fill="#252222"></path><path d="M271.905 285.608H277.985V287H269.889V285.816L274.225 281.32C275.153 280.392 275.761 279.4 275.761 278.712C275.761 277.704 274.945 277.096 273.569 277.096C272.529 277.096 271.329 277.608 270.401 278.456L269.745 277.288C270.929 276.328 272.353 275.736 273.761 275.736C275.921 275.736 277.361 276.808 277.361 278.504C277.361 279.592 276.513 280.872 275.281 282.152L271.905 285.608ZM286.899 277.72C286.179 277.272 285.219 277.016 284.355 277.016C282.019 277.016 280.883 278.872 281.027 281.672C281.571 280.456 282.707 279.8 284.275 279.8C286.515 279.8 287.891 281.176 287.891 283.352C287.891 285.64 286.339 287.08 284.003 287.08C281.203 287.08 279.507 285.08 279.507 281.64C279.507 278.072 281.347 275.736 284.243 275.736C285.315 275.736 286.595 276.056 287.507 276.552L286.899 277.72ZM284.003 281.032C282.307 281.032 281.315 282.152 281.331 283.416C281.315 284.456 282.099 285.736 283.907 285.736C285.411 285.736 286.451 284.84 286.451 283.336C286.451 281.912 285.491 281.032 284.003 281.032Z" fill="#252222"></path><path d="M338.774 145.72C338.054 145.272 337.094 145.016 336.23 145.016C333.894 145.016 332.758 146.872 332.902 149.672C333.446 148.456 334.582 147.8 336.15 147.8C338.39 147.8 339.766 149.176 339.766 151.352C339.766 153.64 338.214 155.08 335.878 155.08C333.078 155.08 331.382 153.08 331.382 149.64C331.382 146.072 333.222 143.736 336.118 143.736C337.19 143.736 338.47 144.056 339.382 144.552L338.774 145.72ZM335.878 149.032C334.182 149.032 333.19 150.152 333.206 151.416C333.19 152.456 333.974 153.736 335.782 153.736C337.286 153.736 338.326 152.84 338.326 151.336C338.326 149.912 337.366 149.032 335.878 149.032Z" fill="#252222"></path><path d="M328.963 187.8H333.043V199H331.507V189.192H328.963V187.8ZM339.653 192.552C341.845 192.68 343.317 193.752 343.317 195.544C343.317 197.624 341.637 199.08 338.965 199.08C337.525 199.08 336.021 198.6 335.013 197.912L335.669 196.664C336.549 197.352 337.717 197.768 338.869 197.768C340.725 197.768 341.813 196.888 341.813 195.592C341.813 194.248 340.693 193.56 338.821 193.56H337.285V192.584L340.725 189.192H335.557L335.541 187.8H342.741V188.776L338.981 192.504L339.653 192.552Z" fill="#252222"></path><path d="M327.812 241.608H333.892V243H325.796V241.816L330.132 237.32C331.06 236.392 331.668 235.4 331.668 234.712C331.668 233.704 330.852 233.096 329.476 233.096C328.436 233.096 327.236 233.608 326.308 234.456L325.652 233.288C326.836 232.328 328.26 231.736 329.668 231.736C331.828 231.736 333.267 232.808 333.267 234.504C333.267 235.592 332.42 236.872 331.188 238.152L327.812 241.608ZM340.23 231.736C343.238 231.736 344.918 233.752 344.918 237.4C344.918 241.048 343.238 243.08 340.23 243.08C337.206 243.08 335.542 241.048 335.542 237.4C335.542 233.752 337.206 231.736 340.23 231.736ZM340.23 232.952C338.182 232.952 337.126 234.424 337.126 237.4C337.126 240.36 338.182 241.848 340.23 241.848C342.278 241.848 343.334 240.36 343.334 237.4C343.334 234.424 342.278 232.952 340.23 232.952Z" fill="#252222"></path><path d="M329.96 285.608H336.04V287H327.944V285.816L332.28 281.32C333.208 280.392 333.816 279.4 333.816 278.712C333.816 277.704 333 277.096 331.624 277.096C330.584 277.096 329.384 277.608 328.456 278.456L327.8 277.288C328.984 276.328 330.408 275.736 331.816 275.736C333.976 275.736 335.416 276.808 335.416 278.504C335.416 279.592 334.568 280.872 333.336 282.152L329.96 285.608ZM336.81 275.8H345.194V277L340.314 287H338.682L343.466 277.192H338.202L338.186 278.808H336.81V275.8Z" fill="#252222"></path><path d="M5.68494 187.8H14.0689V189L9.18894 199H7.55694L12.3409 189.192H7.07694L7.06094 190.808H5.68494V187.8Z" fill="#252222"></path><path d="M0.416313 231.8H4.49631V243H2.96031V233.192H0.416313V231.8ZM15.2026 238.744V240.12H13.4746V243H12.0346V240.12H6.48256V238.936L10.4826 231.8H11.9866L8.14656 238.744H12.0346V235.88H13.4746V238.744H15.2026Z" fill="#252222"></path><path d="M3.04588 285.608H9.12588V287H1.02988V285.816L5.36588 281.32C6.29388 280.392 6.90188 279.4 6.90188 278.712C6.90188 277.704 6.08588 277.096 4.70988 277.096C3.66988 277.096 2.46988 277.608 1.54188 278.456L0.885875 277.288C2.06988 276.328 3.49388 275.736 4.90188 275.736C7.06188 275.736 8.50187 276.808 8.50187 278.504C8.50187 279.592 7.65388 280.872 6.42188 282.152L3.04588 285.608ZM9.76788 275.8H13.8479V287H12.3119V277.192H9.76788V275.8Z" fill="#252222"></path><path d="M2.91306 329.608H8.99306V331H0.897063V329.816L5.23306 325.32C6.16106 324.392 6.76906 323.4 6.76906 322.712C6.76906 321.704 5.95306 321.096 4.57706 321.096C3.53706 321.096 2.33706 321.608 1.40906 322.456L0.753063 321.288C1.93706 320.328 3.36106 319.736 4.76906 319.736C6.92906 319.736 8.36906 320.808 8.36906 322.504C8.36906 323.592 7.52106 324.872 6.28906 326.152L2.91306 329.608ZM14.6431 319.736C16.8991 319.736 18.2911 320.808 18.2911 322.584C18.2911 323.704 17.6351 324.568 16.5631 325.016C17.9711 325.464 18.8511 326.472 18.8511 327.864C18.8511 329.848 17.2351 331.08 14.6591 331.08C12.0831 331.08 10.4671 329.864 10.4671 327.896C10.4671 326.488 11.3791 325.464 12.8191 325.016C11.6831 324.536 11.0111 323.672 11.0111 322.536C11.0111 320.792 12.4191 319.736 14.6431 319.736ZM14.6591 320.856C13.1871 320.856 12.3231 321.528 12.3231 322.664C12.3231 323.816 13.1871 324.488 14.6591 324.488C16.1311 324.488 16.9791 323.816 16.9791 322.664C16.9791 321.528 16.1311 320.856 14.6591 320.856ZM14.6431 325.704C12.9311 325.704 11.9231 326.456 11.9231 327.72C11.9231 329.064 12.9311 329.848 14.6591 329.848C16.3711 329.848 17.3951 329.064 17.3951 327.736C17.3951 326.472 16.3711 325.704 14.6431 325.704Z" fill="#252222"></path></svg> 