<?xml version="1.0" encoding="UTF-8"?> <svg xmlns="http://www.w3.org/2000/svg" width="944" height="963" viewBox="0 0 944 963" fill="none"><path fill-rule="evenodd" clip-rule="evenodd" d="M248.575 1.18876C247.037 2.01476 245.35 3.81877 244.825 5.19877C244.248 6.71677 243.871 40.1058 243.871 89.7198V171.732L246.794 174.655C251.586 179.447 259.573 177.741 261.763 171.459C262.538 169.235 262.871 144.264 262.871 88.3298C262.871 17.1868 262.695 8.00976 261.275 5.01576C259.058 0.345756 253.35 -1.37424 248.575 1.18876ZM74.3257 74.0328C72.4787 75.8788 71.8708 77.5548 71.8708 80.7938V85.1008L130.641 143.839C193.817 206.982 191.037 204.612 197.812 201.108C201.145 199.385 202.791 195.3 201.855 191.078C201.361 188.846 186.533 173.422 143.903 130.795C112.395 99.2888 85.8027 73.0768 84.8087 72.5448C81.5257 70.7878 76.9157 71.4418 74.3257 74.0328ZM364.151 128.828C332.603 160.316 306.094 187.37 305.243 188.949C301.869 195.206 306.469 202.578 313.746 202.578C317.18 202.578 320.161 199.769 376.112 143.819C434.462 85.4678 434.871 85.0308 434.871 81.0058C434.871 75.5028 430.922 71.5778 425.386 71.5778C421.599 71.5778 420.209 72.8768 364.151 128.828ZM190.622 106.284C186.049 109.205 185.381 113.25 188.24 120.706C195.81 140.441 212.952 180.104 214.642 181.794C218.788 185.94 228.103 183.485 229.511 177.876C230.374 174.44 229.332 170.966 222.678 155.078C219.684 147.928 214.16 134.653 210.403 125.578C206.646 116.503 202.825 108.276 201.912 107.296C199.466 104.671 193.925 104.175 190.622 106.284ZM306.871 105.802C304.123 107.205 301.882 111.276 295.987 125.578C293.833 130.803 288.651 143.305 284.471 153.36C274.764 176.711 274.62 180.251 283.248 183.531C285.561 184.411 286.816 184.278 289.692 182.851C293.122 181.148 293.785 179.823 306.567 149.111C314.288 130.559 319.871 115.79 319.871 113.917C319.871 107.529 312.502 102.929 306.871 105.802ZM107.948 189.167C105.513 191.216 104.871 192.543 104.871 195.531C104.871 200.656 107.925 203.491 117.588 207.336C121.869 209.04 134.146 214.108 144.871 218.599C174.096 230.837 174.22 230.877 178.297 229.174C182.162 227.558 183.871 225.012 183.871 220.866C183.871 216.783 181.315 213.702 176.004 211.385C153.018 201.357 115.929 186.578 113.746 186.578C112.249 186.578 109.64 187.743 107.948 189.167ZM385.871 188.209C381.927 189.96 358.961 199.489 342.371 206.259C325.85 213.001 324.751 213.621 323.339 217.001C319.536 226.101 328.923 233.167 338.407 228.343C340.037 227.514 353.746 221.776 368.871 215.592C398.368 203.532 401.871 201.398 401.871 195.485C401.871 191.159 397.12 186.565 392.698 186.617C390.868 186.639 387.796 187.355 385.871 188.209ZM4.98074 244.961C-0.641259 248.106 -1.69224 255.169 2.79376 259.655L5.71676 262.578H88.3598C143.129 262.578 171.651 262.231 172.926 261.548C175.803 260.009 178.1 254.897 177.383 251.631C177.044 250.09 175.63 247.76 174.239 246.454L171.711 244.078L89.5408 243.851C22.4828 243.666 6.93074 243.87 4.98074 244.961ZM335.259 244.558C332.078 245.844 328.871 250.477 328.871 253.79C328.871 255.708 329.888 257.749 331.794 259.655L334.717 262.578H417.572C508.298 262.578 503.246 262.916 505.83 256.677C506.777 254.391 506.798 252.887 505.921 250.228C503.631 243.29 507.39 243.571 417.72 243.641C373.528 243.676 336.421 244.089 335.259 244.558ZM140.871 289.665C119.969 298.322 108.614 303.549 107.121 305.2C102.025 310.838 106.034 320.096 113.515 319.966C118.505 319.879 179.617 294.497 182.121 291.471C183.083 290.308 183.871 287.797 183.871 285.89C183.871 281.44 179.324 276.568 175.198 276.599C173.643 276.61 158.196 282.49 140.871 289.665ZM327.371 277.786C324.085 279.671 322.936 281.847 322.903 286.255C322.854 292.646 320.499 291.359 369.175 311.539C381.167 316.51 391.652 320.578 392.475 320.578C395.373 320.578 399.969 317.451 400.98 314.791C402.272 311.393 401.357 306.307 399.101 304.353C396.606 302.19 334.293 276.572 331.617 276.608C330.381 276.625 328.471 277.155 327.371 277.786ZM190.371 304.755C185.999 305.927 71.9158 420.286 71.7558 423.658C71.5398 428.195 72.0488 430.077 74.0858 432.276C76.8598 435.271 81.0738 436.05 84.5478 434.209C89.0328 431.834 201.855 318.321 201.982 316.058C202.233 311.558 201.585 308.961 199.703 306.929C197.312 304.348 194.411 303.672 190.371 304.755ZM309.185 305.523C307.432 306.594 305.479 308.442 304.843 309.63C301.912 315.107 302.043 315.257 363.35 376.557C421.758 434.959 421.837 435.033 425.958 435.033C431.325 435.033 434.871 431.295 434.871 425.637C434.871 421.909 433.331 420.268 376.269 363.193C344.038 330.955 317.075 304.578 316.351 304.578C315.627 304.578 314.435 304.352 313.703 304.076C312.97 303.8 310.937 304.451 309.185 305.523ZM712.871 321.247C712.046 321.569 710.358 322.754 709.121 323.88L706.871 325.927V400.671C706.871 441.78 707.151 476.143 707.492 477.033C708.33 479.216 713.108 481.578 716.685 481.578C718.499 481.578 720.593 480.584 722.235 478.942L724.871 476.305V401.497V326.69L722.621 324.133C720.354 321.557 715.647 320.164 712.871 321.247ZM215.79 324.062C213.669 325.215 210.822 331.237 199.851 357.772C190.865 379.503 186.525 391.214 186.589 393.55C186.787 400.69 196.786 404.49 201.677 399.284C204.434 396.35 229.843 335.01 229.859 331.251C229.875 327.439 224.985 322.564 221.198 322.618C219.643 322.64 217.209 323.29 215.79 324.062ZM281.186 323.585C278.388 324.712 276.871 327.579 276.871 331.739C276.871 336.024 302.303 397.479 305.048 399.828C308.265 402.582 314.452 402.134 317.419 398.932C321.85 394.15 321.936 394.44 301.771 346.078C299.019 339.478 296.032 332.358 295.134 330.255C292.299 323.617 287.181 321.17 281.186 323.585ZM248.313 330.343C247.731 330.747 246.494 332.191 245.563 333.551C244.007 335.824 243.871 342.66 243.871 418.377V500.732L246.794 503.655C252.421 509.282 260.897 506.44 262.348 498.44C262.684 496.591 262.826 459.002 262.665 414.908L262.371 334.738L259.947 332.158C258.103 330.195 256.547 329.582 253.447 329.593C251.205 329.602 248.895 329.939 248.313 330.343ZM556.175 386.534C552.204 388.955 550.945 393.924 553.218 398.207C555.874 403.212 656.014 502.472 659.383 503.438C665.702 505.25 670.871 501.316 670.871 494.696V490.123L619.621 438.786C591.434 410.55 567.156 386.803 565.671 386.013C562.061 384.095 559.989 384.208 556.175 386.534ZM866.371 385.561C863.26 386.892 762.083 488.755 761.018 491.629C758.686 497.919 763.056 503.578 770.245 503.578C774.333 503.578 774.565 503.362 826.553 451.328C861.88 415.969 878.974 398.183 879.427 396.309C881.205 388.965 873.41 382.549 866.371 385.561ZM657.794 417.501C656.038 419.257 654.871 421.479 654.871 423.066C654.871 425.309 672.088 468.516 678.032 481.188C681.284 488.122 687.981 489.622 693.051 484.552C695.606 481.997 696.003 480.948 695.606 477.802C695.347 475.754 690.085 461.928 683.912 447.078C677.739 432.228 672.45 419.499 672.159 418.791C671.402 416.954 666.431 414.578 663.344 414.578C661.774 414.578 659.541 415.754 657.794 417.501ZM763.072 415.627C760.349 416.72 759.078 419.383 745.784 451.841C740.332 465.152 735.871 477.473 735.871 479.222C735.871 483.186 740.633 487.578 744.932 487.578C749.913 487.578 753.157 483.268 758.856 469.078C761.728 461.928 764.684 454.728 765.426 453.078C772.638 437.038 776.935 424.807 776.391 421.871C775.315 416.065 769.166 413.182 763.072 415.627ZM353.347 444.998C350.405 446.256 347.871 450.069 347.871 453.236C347.871 454.097 352.416 465.438 357.971 478.439C410.348 601.024 445.825 736.941 457.324 859.078C460.048 888.013 459.802 886.609 462.605 889.207C466.194 892.534 471.402 892.402 475.066 888.891C478.561 885.543 478.634 882.616 475.884 856.334C462.611 729.472 431.908 609.483 380.886 485.078C365.111 446.615 364.548 445.572 358.871 444.276C357.496 443.962 355.01 444.287 353.347 444.998ZM587.228 488.57C584.432 489.698 581.871 493.418 581.871 496.35C581.871 499.185 584.322 504.14 586.084 504.867C586.792 505.159 599.925 510.614 615.268 516.988C630.611 523.363 644.483 528.578 646.095 528.578C650.117 528.578 654.871 523.753 654.871 519.671C654.871 514.751 650.631 511.313 638.371 506.293C632.321 503.816 619.693 498.591 610.308 494.683C593.105 487.52 591.128 486.996 587.228 488.57ZM830.371 490.884C825.971 492.734 812.783 498.219 801.065 503.071C778.425 512.446 776.871 513.54 776.871 520.105C776.871 523.678 781.876 528.574 785.544 528.59C787.099 528.596 801.577 523.12 817.718 516.42C844.914 505.131 847.178 504.001 848.603 501.013C851.324 495.308 848 488.892 841.871 488.018C839.33 487.656 836.179 488.441 830.371 490.884ZM304.326 504.033C302.739 505.619 301.871 507.622 301.871 509.696C301.871 511.508 305.627 521.648 310.5 532.991C324.782 566.237 342.634 613.763 354.666 650.578C380.626 730 396.739 802.747 402.511 866.578C404.21 885.371 404.373 886.178 406.995 888.828C412.138 894.024 420.284 891.683 421.734 884.593C422.121 882.702 421.855 874.388 421.143 866.117C413.707 779.723 385.821 671.789 342.593 562.078C327.303 523.273 318.731 504.109 316.013 502.654C312.402 500.722 306.999 501.359 304.326 504.033ZM490.361 542.773C488.176 545.369 487.778 546.633 488.238 549.523C488.566 551.586 489.89 554.022 491.393 555.328L493.983 557.578H568.79H643.598L646.235 554.942C649.806 551.371 649.888 545.504 646.416 542.033L643.962 539.578H568.505H493.049L490.361 542.773ZM785.326 542.033C783.519 543.839 782.871 545.568 782.871 548.578C782.871 551.588 783.519 553.317 785.326 555.123L787.78 557.578H862.77H937.759L940.543 555.184C942.767 553.271 943.326 551.945 943.326 548.578C943.326 545.211 942.767 543.885 940.543 541.972L937.759 539.578H862.77H787.78L785.326 542.033ZM613.876 580.608C595.331 588.397 584.777 593.361 583.649 594.827C579.748 599.893 582.89 607.928 589.238 609.119C591.885 609.616 596.077 608.261 610.945 602.103C621.079 597.906 633.871 592.627 639.371 590.372C653.285 584.667 657.257 579.926 653.708 573.262C649.935 566.178 646.908 566.736 613.876 580.608ZM779.46 571.655C776.688 574.949 776.223 578.063 777.942 581.835C779.361 584.948 780.33 585.489 795.973 591.907C803.342 594.929 816.036 600.142 824.183 603.49C832.329 606.839 839.754 609.576 840.683 609.574C844.228 609.566 848.744 605.773 849.405 602.247C850.52 596.303 848.057 593.256 839.15 589.565C834.871 587.792 827.321 584.64 822.371 582.561C784.005 566.441 783.875 566.408 779.46 571.655ZM605.144 645.814C563.711 687.22 552.751 698.702 552.284 701.193C550.98 708.142 557.423 713.871 564.074 711.676C566.428 710.899 582.456 695.509 619.133 658.807L670.871 607.033V602.48C670.871 596.389 668.016 593.578 661.829 593.578H657.416L605.144 645.814ZM763.16 595.828C760.323 598.928 759.628 601.798 760.892 605.196C762.469 609.439 863.54 710.313 867.535 711.632C874.802 714.031 881.818 706.693 878.928 699.717C878.303 698.208 854.512 673.709 826.059 645.276L774.326 593.578H769.773C766.328 593.578 764.718 594.126 763.16 595.828ZM681.871 610.868C679.838 611.893 677.087 617.635 667.143 641.603C660.417 657.814 654.904 672.255 654.893 673.693C654.862 677.398 658.366 681.393 662.293 682.129C666.096 682.843 671.611 680.507 672.57 677.776C672.898 676.842 678.275 663.723 684.519 648.622C690.762 633.522 695.871 620.155 695.871 618.919C695.871 611.562 688.687 607.431 681.871 610.868ZM740.371 610.731C734.438 614.297 734.544 618.409 740.969 633.836C743.773 640.569 747.659 649.903 749.605 654.578C759.723 678.887 760.105 679.648 762.96 681.124C766.703 683.06 768.744 682.953 772.567 680.622C778.661 676.906 778.338 675.284 765.187 643.518C758.688 627.82 752.628 613.95 751.719 612.696C749.772 610.006 743.41 608.905 740.371 610.731ZM709.326 618.033L706.871 620.487V695.858V771.229L709.427 773.631C713.175 777.151 719.274 776.973 722.477 773.25L724.871 770.466V695.709V620.952L722.066 618.265C718.318 614.674 712.785 614.573 709.326 618.033ZM586.196 738.521C583.375 740.242 582.519 741.996 578.513 754.268C565.667 793.619 558.482 826.296 553.914 866.144C550.558 895.421 550.267 951.576 553.44 957.711C555.426 961.552 560.644 963.118 565.163 961.229C567.068 960.433 568.946 959.266 569.336 958.635C569.726 958.004 570.16 940.971 570.302 920.783C570.443 900.595 571.096 879.353 571.753 873.578C576.542 831.494 583.543 798.64 595.427 762.496C600.308 747.649 600.762 745.562 599.741 742.634C598.966 740.412 597.532 738.916 595.268 737.97C590.92 736.154 589.986 736.211 586.196 738.521Z" fill="black"></path></svg> 