<?xml version="1.0" encoding="UTF-8"?> <svg xmlns="http://www.w3.org/2000/svg" width="160" height="376" viewBox="0 0 160 376" fill="none"><path d="M146.931 240.48V248.343C146.931 248.343 144.006 240.297 131.389 237.188V236.274C136.691 236.64 142.543 236.823 146.931 240.48ZM137.606 292.411V293.143H116.211V286.011C116.211 285.645 116.211 285.28 116.211 284.914C116.211 279.977 116.211 204.823 116.211 186.354C116.211 167.337 108.897 150.697 92.8057 143.2C82.3829 138.263 69.9486 138.445 59.5257 143.748C44.7143 151.245 37.9486 166.788 37.4 184.708C37.4 185.257 37.4 188 37.4 188.731C37.9486 212.868 50.5657 232.8 78.5429 234.445H82.7486V235.177C82.0171 235.177 77.2629 235.36 76.5314 235.36C75.8 235.36 74.8857 235.177 74.1543 235.177C50.7486 233.897 32.0971 213.965 31 189.28C31 188.365 31 187.451 31 186.72C31 185.805 31 185.074 31 184.16C32.0971 159.291 50.7486 139.543 74.1543 138.08C75.0686 138.08 75.9829 138.08 77.08 138.08C101.217 138.08 120.966 158.011 122.611 183.245L122.794 284.548C122.794 292.228 134.131 292.411 137.606 292.411Z" fill="black"></path><path d="M84.2971 234.057C84.2971 234.24 84.2971 234.423 84.2971 234.606H82.6514C82.8343 228.389 81.5543 222.171 78.6286 216.503C71.1314 201.874 55.9543 194.926 38.2171 194.377H14.8114V48.4571C14.8114 40.7771 3.29143 40.5943 0 40.5943V39.68H21.3943C21.3943 39.68 21.2114 160 21.2114 187.977H38.9486C63.4514 189.44 83.0171 207.909 84.2971 231.131C84.2971 232.046 84.2971 232.96 84.2971 234.057Z" fill="black"></path></svg> 