<?xml version="1.0" encoding="UTF-8"?> <svg xmlns="http://www.w3.org/2000/svg" width="352" height="305" viewBox="0 0 352 305" fill="none"><path d="M8.94506 77.36V78.752C8.94506 80.656 7.76106 82.16 5.21706 82.16C2.67306 82.16 1.50506 80.656 1.50506 78.752V71.888C1.50506 71.008 1.37706 70.8 0.561063 70.8V70.4H4.25706V70.8C3.44106 70.8 3.34506 71.008 3.34506 71.888V73.248C3.34506 74.208 3.44106 74.4 4.32106 74.4H6.38506C7.80906 74.4 9.61706 74.496 10.1611 75.024L8.35306 75.808C7.72906 75.264 6.44906 74.784 5.10506 74.784H4.32106C3.44106 74.784 3.34506 74.896 3.34506 75.968V79.312C3.34506 81.472 4.54506 81.792 5.21706 81.792C5.90506 81.792 7.10506 81.472 7.10506 79.312V77.36H8.94506ZM14.0863 81.6V82H10.3423V81.6C11.1583 81.6 11.2863 81.376 11.2863 80.496V73.648C11.2863 71.744 12.4543 70.24 14.9983 70.24C17.5423 70.24 18.7103 71.744 18.7103 73.648V74.576C18.7103 75.456 18.8063 75.68 19.6383 75.68V76.08H15.9263V75.68C16.7423 75.68 16.8703 75.456 16.8703 74.576V73.088C16.8703 70.928 15.6863 70.608 14.9983 70.608C14.3263 70.608 13.1263 70.928 13.1263 73.088V80.496C13.1423 81.376 13.2703 81.6 14.0863 81.6ZM29.4333 81.6V82H25.7213V81.6C26.5373 81.6 26.6493 81.376 26.6493 80.496V78.96C26.6493 78.672 26.5213 78.656 26.3613 78.704C26.1373 78.784 25.5133 78.976 24.8093 78.976C22.2653 78.976 21.1613 77.472 21.1613 75.568V71.904C21.1613 71.024 21.0333 70.8 20.2173 70.8V70.4H23.9133V70.8C23.0973 70.8 23.0013 71.024 23.0013 71.904V76.128C23.0013 78.288 24.1853 78.608 24.8733 78.608C25.4653 78.608 26.6493 78.336 26.6493 76.544V75.904C26.6493 75.024 26.5373 74.8 25.7213 74.8V74.4H29.4333V74.8C28.6013 74.8 28.4893 75.024 28.4893 75.904V80.496C28.4893 81.376 28.6013 81.6 29.4333 81.6Z" fill="black"></path><path d="M59.0466 77.36V78.752C59.0466 80.656 57.8626 82.16 55.3186 82.16C52.7746 82.16 51.6066 80.656 51.6066 78.752V71.888C51.6066 71.008 51.4786 70.8 50.6626 70.8V70.4H54.3586V70.8C53.5426 70.8 53.4466 71.008 53.4466 71.888V73.248C53.4466 74.208 53.5426 74.4 54.4226 74.4H56.4866C57.9106 74.4 59.7186 74.496 60.2626 75.024L58.4546 75.808C57.8306 75.264 56.5506 74.784 55.2066 74.784H54.4226C53.5426 74.784 53.4466 74.896 53.4466 75.968V79.312C53.4466 81.472 54.6466 81.792 55.3186 81.792C56.0066 81.792 57.2066 81.472 57.2066 79.312V77.36H59.0466ZM64.1879 81.6V82H60.4439V81.6C61.2599 81.6 61.3879 81.376 61.3879 80.496V73.648C61.3879 71.744 62.5559 70.24 65.0999 70.24C67.6439 70.24 68.8119 71.744 68.8119 73.648V74.576C68.8119 75.456 68.9079 75.68 69.7399 75.68V76.08H66.0279V75.68C66.8439 75.68 66.9719 75.456 66.9719 74.576V73.088C66.9719 70.928 65.7879 70.608 65.0999 70.608C64.4279 70.608 63.2279 70.928 63.2279 73.088V80.496C63.2439 81.376 63.3719 81.6 64.1879 81.6ZM77.9509 76.848C78.8469 76.848 80.1109 76.336 80.1109 73.808C80.1109 71.376 78.9429 70.608 77.9509 70.608C77.1349 70.608 75.8229 71.072 75.8229 73.808C75.8229 76.384 77.1989 76.848 77.9509 76.848ZM82.7349 79.152L80.9109 79.936C80.3669 79.504 79.6149 78.928 78.3509 78.928H76.1429C75.8709 78.928 75.8229 78.96 75.8229 79.28V80.496C75.8229 81.376 75.9349 81.6 76.7509 81.6V82H73.0389V81.6C73.8709 81.6 73.9829 81.376 73.9829 80.496V79.328C73.9829 78.96 73.9349 78.928 73.6629 78.928C73.4709 78.928 73.2629 78.928 73.0709 78.944C71.7909 78.976 70.6869 78.944 69.9349 78.352L71.7429 77.568C72.1269 78.064 72.7509 78.496 73.7109 78.512C73.9189 78.512 73.9829 78.432 73.9829 78.128V73.904C73.9829 71.712 75.5509 70.24 77.9509 70.24C80.4949 70.24 82.0149 71.936 82.0149 73.808C82.0149 75.84 80.5749 77.216 78.0629 77.216C77.3749 77.216 76.6069 77.008 76.1269 76.768C75.8869 76.64 75.8229 76.8 75.8229 77.152V78.208C75.8229 78.608 76.1429 78.528 76.4949 78.528H79.2469C81.0389 78.528 82.2709 78.688 82.7349 79.152Z" fill="black"></path><path d="M111.661 81.488V81.888C111.405 81.984 110.717 82.112 110.445 82.112C109.869 82.112 109.117 82.112 108.413 81.568L105.277 79.184C104.925 78.928 104.605 78.752 104.141 78.752H103.885V78.336C103.965 78.32 104.445 78.16 104.541 78.144C104.941 77.984 105.981 77.76 106.877 78.464L107.229 78.736C107.757 79.136 108.173 79.088 108.685 78.784C109.805 78.144 110.637 76.48 110.637 74.576C110.637 72.16 109.837 70.608 108.253 70.608C106.717 70.608 105.885 71.808 105.885 74.624H104.029C104.029 71.872 105.741 70.24 108.269 70.24C110.781 70.24 112.541 72 112.541 74.432C112.541 76.576 111.389 78.304 108.717 79.232C108.221 79.408 108.365 79.696 108.941 80.128L110.317 81.12C110.669 81.376 110.973 81.488 111.405 81.488C111.501 81.488 111.565 81.488 111.661 81.488ZM117.11 81.6V82H113.366V81.6C114.182 81.6 114.31 81.376 114.31 80.496V73.648C114.31 71.744 115.478 70.24 118.022 70.24C120.566 70.24 121.734 71.744 121.734 73.648V74.576C121.734 75.456 121.83 75.68 122.662 75.68V76.08H118.95V75.68C119.766 75.68 119.894 75.456 119.894 74.576V73.088C119.894 70.928 118.71 70.608 118.022 70.608C117.35 70.608 116.15 70.928 116.15 73.088V80.496C116.166 81.376 116.294 81.6 117.11 81.6ZM130.873 76.848C131.769 76.848 133.033 76.336 133.033 73.808C133.033 71.376 131.865 70.608 130.873 70.608C130.057 70.608 128.745 71.072 128.745 73.808C128.745 76.384 130.121 76.848 130.873 76.848ZM135.657 79.152L133.833 79.936C133.289 79.504 132.537 78.928 131.273 78.928H129.065C128.793 78.928 128.745 78.96 128.745 79.28V80.496C128.745 81.376 128.857 81.6 129.673 81.6V82H125.961V81.6C126.793 81.6 126.905 81.376 126.905 80.496V79.328C126.905 78.96 126.857 78.928 126.585 78.928C126.393 78.928 126.185 78.928 125.993 78.944C124.713 78.976 123.609 78.944 122.857 78.352L124.665 77.568C125.049 78.064 125.673 78.496 126.633 78.512C126.841 78.512 126.905 78.432 126.905 78.128V73.904C126.905 71.712 128.473 70.24 130.873 70.24C133.417 70.24 134.937 71.936 134.937 73.808C134.937 75.84 133.497 77.216 130.985 77.216C130.297 77.216 129.529 77.008 129.049 76.768C128.809 76.64 128.745 76.8 128.745 77.152V78.208C128.745 78.608 129.065 78.528 129.417 78.528H132.169C133.961 78.528 135.193 78.688 135.657 79.152Z" fill="black"></path><path d="M164.501 79.6V82.16H164.005C164.005 81.344 163.349 81.008 162.629 80.736L156.117 78.128C156.837 77.072 160.677 70.24 164.037 70.24V73.36H163.621C163.621 72.576 163.109 72.256 162.629 72.256C162.341 72.256 160.661 72.4 157.941 76.288C157.733 76.592 157.589 76.832 158.021 76.992L164.501 79.6ZM174.324 77.584V78.752C174.324 80.656 173.14 82.16 170.596 82.16C168.052 82.16 166.884 80.656 166.884 78.752V73.216C166.884 72.336 166.772 72.112 165.78 72.112C164.228 72.112 163.204 71.776 162.676 71.152L164.468 70.384C164.74 70.928 165.908 71.712 167.14 71.712H169.636V72.112C168.82 72.112 168.724 72.336 168.724 73.216V79.312C168.724 81.472 169.908 81.792 170.596 81.792C171.284 81.792 172.468 81.472 172.468 79.312V77.584C172.468 76.704 172.356 76.48 171.54 76.48V76.08H175.236V76.48C174.42 76.48 174.324 76.704 174.324 77.584ZM182.292 75.232V73.568C182.292 71.376 181.316 70.608 180.164 70.608C178.868 70.608 177.956 71.712 177.956 73.968C177.956 75.888 178.916 77.12 180.404 77.12C181.604 77.12 182.292 76.208 182.292 75.232ZM185.06 81.6V82H181.348V81.6C182.18 81.6 182.292 81.376 182.292 80.496V77.296C182.292 77.008 182.228 76.928 182.052 77.04C181.492 77.392 180.676 77.536 180.292 77.536C177.092 77.536 176.036 75.456 176.036 73.92C176.036 72.176 177.268 70.24 180.132 70.24C182.692 70.24 184.132 71.712 184.132 73.776V75.712C184.132 76.704 184.26 76.816 184.98 76.816C186.228 76.816 187.588 76.848 188.26 77.44L186.452 78.192C186.052 77.872 185.508 77.184 184.756 77.184C184.26 77.184 184.132 77.312 184.132 78.352V80.496C184.132 81.376 184.228 81.6 185.06 81.6Z" fill="black"></path><path d="M217.912 81.6V82H214.216V81.6C215.032 81.6 215.16 81.376 215.16 80.496V73.088C215.16 70.928 213.96 70.608 213.272 70.608C212.6 70.608 211.4 70.928 211.4 73.088V80.496C211.4 81.376 211.496 81.6 212.312 81.6V82H208.616V81.6C209.432 81.6 209.56 81.376 209.56 80.496V73.648C209.56 71.744 210.728 70.24 213.272 70.24C215.816 70.24 217 71.744 217 73.648V80.496C217 81.376 217.096 81.6 217.912 81.6ZM227.084 78.368V78.784C225.932 78.784 224.044 78.512 224.044 76.48C224.044 74.592 223.02 73.952 221.676 73.952C221.388 73.952 221.244 74.016 221.244 74.368V80.496C221.244 81.376 221.34 81.6 222.156 81.6V82H218.46V81.6C219.276 81.6 219.404 81.376 219.404 80.496V71.904C219.404 71.024 219.276 70.8 218.46 70.8V70.4H222.156V70.8C221.34 70.8 221.244 71.024 221.244 71.904V72.96C221.244 73.376 221.276 73.52 221.884 73.52C224.108 73.52 225.884 74.176 225.884 76.464C225.884 77.616 226.46 78.368 227.084 78.368ZM231.094 81.6V82H227.35V81.6C228.166 81.6 228.294 81.376 228.294 80.496V73.648C228.294 71.744 229.462 70.24 232.006 70.24C234.55 70.24 235.718 71.744 235.718 73.648V74.576C235.718 75.456 235.814 75.68 236.646 75.68V76.08H232.934V75.68C233.75 75.68 233.878 75.456 233.878 74.576V73.088C233.878 70.928 232.694 70.608 232.006 70.608C231.334 70.608 230.134 70.928 230.134 73.088V80.496C230.15 81.376 230.278 81.6 231.094 81.6ZM238.169 80.512V73.648C238.169 71.744 239.337 70.24 241.881 70.24C244.425 70.24 245.609 71.744 245.609 73.648V75.152H243.769V73.088C243.769 70.928 242.569 70.608 241.881 70.608C241.209 70.608 240.009 70.928 240.009 73.088V75.664C240.009 76.624 240.105 76.816 240.985 76.816H242.873C244.297 76.816 246.025 76.912 246.569 77.424L244.745 78.224C244.121 77.68 242.857 77.184 241.689 77.184H240.985C240.105 77.184 240.009 77.36 240.009 78.384V80.512C240.009 81.392 240.105 81.6 240.921 81.6V82H237.225V81.6C238.041 81.6 238.169 81.392 238.169 80.512Z" fill="black"></path><path d="M274.356 77.776H276.196C276.196 80.528 274.484 82.16 271.956 82.16C269.444 82.16 267.684 80.336 267.684 77.904C267.684 75.872 268.692 74 271.284 73.136C271.78 72.96 271.636 72.704 271.044 72.272L269.668 71.28C269.316 71.008 268.772 70.912 268.324 70.912C268.228 70.912 268.164 70.912 268.084 70.912V70.512C268.324 70.416 269.124 70.24 269.428 70.24C270.004 70.24 270.884 70.288 271.604 70.832L274.724 73.232C275.076 73.504 275.412 73.648 275.876 73.648H276.132V74.064C276.052 74.08 275.572 74.24 275.476 74.256C275.076 74.416 274.036 74.64 273.14 73.936L272.788 73.664C272.26 73.264 271.844 73.312 271.332 73.616C270.212 74.256 269.588 75.984 269.588 77.824C269.588 80.24 270.388 81.792 271.972 81.792C273.508 81.792 274.356 80.592 274.356 77.776ZM277.872 80.512V73.648C277.872 71.744 279.04 70.24 281.584 70.24C284.128 70.24 285.312 71.744 285.312 73.648V75.152H283.472V73.088C283.472 70.928 282.272 70.608 281.584 70.608C280.912 70.608 279.712 70.928 279.712 73.088V75.664C279.712 76.624 279.808 76.816 280.688 76.816H282.576C284 76.816 285.728 76.912 286.272 77.424L284.448 78.224C283.824 77.68 282.56 77.184 281.392 77.184H280.688C279.808 77.184 279.712 77.36 279.712 78.384V80.512C279.712 81.392 279.808 81.6 280.624 81.6V82H276.928V81.6C277.744 81.6 277.872 81.392 277.872 80.512ZM295.927 77.088V75.904C295.927 74.912 295.703 74.816 294.695 74.816C293.095 74.816 292.503 75.6 292.503 77.152C292.503 78.816 293.287 79.392 294.247 79.392C295.239 79.392 295.927 78.752 295.927 77.088ZM301.911 75.024L300.087 75.792C299.703 75.456 299.175 74.8 298.407 74.8C297.815 74.8 297.767 74.912 297.767 75.84V76.544C297.767 78.64 296.359 79.76 294.247 79.76C292.247 79.76 290.615 78.768 290.615 77.088C290.615 75.184 292.039 74.4 294.055 74.4H294.871C295.815 74.4 295.927 74.32 295.927 73.488C295.927 70.848 293.719 70.608 292.583 70.608C290.599 70.608 289.415 71.808 289.415 74.784V80.496C289.415 81.376 289.511 81.6 290.327 81.6V82H286.631V81.6C287.447 81.6 287.575 81.376 287.575 80.496V74.88C287.575 71.888 289.111 70.24 292.583 70.24C295.127 70.24 297.655 71.104 297.767 73.84C297.799 74.336 297.863 74.4 298.407 74.4C299.879 74.384 301.223 74.432 301.911 75.024Z" fill="black"></path><path d="M331.801 81.6V82H328.089V81.6C328.905 81.6 329.017 81.376 329.017 80.496V78.96C329.017 78.672 328.889 78.656 328.729 78.704C328.505 78.784 327.881 78.976 327.177 78.976C324.633 78.976 323.529 77.472 323.529 75.568V71.904C323.529 71.024 323.401 70.8 322.585 70.8V70.4H326.281V70.8C325.465 70.8 325.369 71.024 325.369 71.904V76.128C325.369 78.288 326.553 78.608 327.241 78.608C327.833 78.608 329.017 78.336 329.017 76.544V75.904C329.017 75.024 328.905 74.8 328.089 74.8V74.4H331.801V74.8C330.969 74.8 330.857 75.024 330.857 75.904V80.496C330.857 81.376 330.969 81.6 331.801 81.6ZM341.534 78.496V78.896H337.838V78.496C338.654 78.496 338.782 78.272 338.782 77.392V76.048C338.782 73.888 337.598 73.568 336.91 73.568C336.302 73.568 335.134 73.84 335.134 75.632V80.496C335.134 81.376 335.23 81.6 336.046 81.6V82H332.35V81.6C333.166 81.6 333.294 81.376 333.294 80.496V71.904C333.294 71.024 333.166 70.8 332.35 70.8V70.4H336.046V70.8C335.23 70.8 335.134 71.024 335.134 71.904V73.184C335.134 73.456 335.23 73.536 335.406 73.472C335.63 73.392 336.27 73.2 336.958 73.2C339.502 73.2 340.622 74.704 340.622 76.608V77.392C340.622 78.272 340.718 78.496 341.534 78.496ZM345.829 81.6V82H342.085V81.6C342.901 81.6 343.029 81.376 343.029 80.496V73.648C343.029 71.744 344.197 70.24 346.741 70.24C349.285 70.24 350.453 71.744 350.453 73.648V74.576C350.453 75.456 350.549 75.68 351.381 75.68V76.08H347.669V75.68C348.485 75.68 348.613 75.456 348.613 74.576V73.088C348.613 70.928 347.429 70.608 346.741 70.608C346.069 70.608 344.869 70.928 344.869 73.088V80.496C344.885 81.376 345.013 81.6 345.829 81.6Z" fill="black"></path><path d="M13.0431 39.64C18.4431 39.64 20.7231 32.84 20.7231 25.52C20.7231 18.16 18.4431 11.36 13.0431 11.36C7.64313 11.36 5.36313 18.16 5.36313 25.52C5.36313 32.84 7.64313 39.64 13.0431 39.64ZM13.0431 40.4C6.20313 40.4 1.60313 34 1.60313 25.52C1.60313 16.84 6.20313 10.6 13.0831 10.6C19.9231 10.6 24.4831 16.84 24.4831 25.52C24.4831 34 19.8831 40.4 13.0431 40.4ZM35.7472 39.12C38.9472 39.12 40.5472 36.16 40.5472 30.32C40.5472 25.08 38.8672 21.92 35.6672 21.92C32.4672 21.92 30.7872 25.2 30.7872 30.48C30.7872 35.72 32.5472 39.12 35.7472 39.12ZM46.3472 49.2V50H38.1872V49.2C40.3872 49.2 40.5872 48.44 40.5872 46.24V37.88C40.5872 37.4 40.2672 37.56 40.1872 37.68C38.7472 39.72 36.8272 40.4 35.3872 40.4C30.3072 40.4 27.2672 35.68 27.2672 30.48C27.2672 25.28 29.9872 20.6 34.9872 20.6C37.0672 20.6 38.9472 21.64 40.1472 23.8C40.2672 24 40.5472 24.24 40.5472 23.88V21H46.3472V21.8C44.1472 21.8 43.9472 22.56 43.9472 24.72V36.28C43.9472 39.04 44.0672 39.2 45.7872 39.2H50.7472V40H45.7872C44.1872 40 43.9472 40.16 43.9472 42.92V46.24C43.9472 48.44 44.1472 49.2 46.3472 49.2ZM71.935 39.2V40H63.775V39.2C65.975 39.2 66.175 38.44 66.175 36.24V26.56C66.175 23.44 64.735 22.24 62.775 22.24C61.695 22.24 60.015 22.96 58.575 25.48C58.415 25.76 58.135 26.6 58.135 27.12V36.24C58.135 38.44 58.335 39.2 60.535 39.2V40H52.375V39.2C54.575 39.2 54.775 38.44 54.775 36.24V24.72C54.775 22.56 54.575 21.8 52.375 21.8V21H58.135V24.32C58.135 24.56 58.455 24.64 58.695 24.24C60.375 21.36 62.375 20.6 64.135 20.6C66.895 20.6 69.535 21.96 69.535 26.44V36.24C69.535 38.44 69.735 39.2 71.935 39.2ZM93.4975 39.2V40H87.7375V36.68C87.7375 36.44 87.4175 36.36 87.1775 36.76C85.4975 39.64 83.4975 40.4 81.7375 40.4C78.9775 40.4 76.3375 39.04 76.3375 34.56V24.76C76.3375 22.56 76.1375 21.8 73.9375 21.8V21H79.6975V34.44C79.6975 37.56 81.1375 38.76 83.0975 38.76C84.1775 38.76 85.8575 38.04 87.2975 35.52C87.4575 35.24 87.7375 34.4 87.7375 33.88V24.76C87.7375 22.56 87.5375 21.8 85.3375 21.8V21H91.0975V36.28C91.0975 38.44 91.2975 39.2 93.4975 39.2ZM124.66 39.2V40H116.5V39.2C118.7 39.2 118.94 38.44 118.94 36.24V26.56C118.94 23.44 117.66 22.24 115.94 22.24C115.06 22.24 113.66 22.92 112.22 25.44C112.06 25.72 111.78 26.6 111.78 27.12V36.24C111.78 38.44 111.98 39.2 114.18 39.2V40H108.42V36.68C108.42 36.44 108.14 36.36 107.9 36.76C106.22 39.64 104.7 40.4 103.1 40.4C100.34 40.4 97.9 39.04 97.9 34.56V24.76C97.9 22.56 97.7 21.8 95.5 21.8V21H101.26V34.44C101.26 37.56 102.54 38.76 104.26 38.76C105.14 38.76 106.54 38.08 107.98 35.56C108.14 35.28 108.42 34.4 108.42 33.88V24.76C108.42 22.56 108.22 21.8 106.02 21.8V21H111.78V24.32C111.78 24.56 112.06 24.64 112.3 24.24C113.98 21.36 115.5 20.6 117.1 20.6C119.86 20.6 122.3 21.96 122.3 26.44V36.24C122.3 38.44 122.46 39.2 124.66 39.2ZM146.232 39.2V40H138.072V39.2C140.272 39.2 140.472 38.44 140.472 36.24V26.56C140.472 23.44 139.032 22.24 137.072 22.24C135.992 22.24 134.312 22.96 132.872 25.48C132.712 25.76 132.432 26.6 132.432 27.12V36.24C132.432 38.44 132.632 39.2 134.832 39.2V40H126.672V39.2C128.872 39.2 129.072 38.44 129.072 36.24V24.72C129.072 22.56 128.872 21.8 126.672 21.8V21H132.432V24.32C132.432 24.56 132.752 24.64 132.992 24.24C134.672 21.36 136.672 20.6 138.432 20.6C141.192 20.6 143.832 21.96 143.832 26.44V36.24C143.832 38.44 144.032 39.2 146.232 39.2ZM167.794 39.2V40H162.034V36.68C162.034 36.44 161.714 36.36 161.474 36.76C159.794 39.64 157.794 40.4 156.034 40.4C153.274 40.4 150.634 39.04 150.634 34.56V24.76C150.634 22.56 150.434 21.8 148.234 21.8V21H153.994V34.44C153.994 37.56 155.434 38.76 157.394 38.76C158.474 38.76 160.154 38.04 161.594 35.52C161.754 35.24 162.034 34.4 162.034 33.88V24.76C162.034 22.56 161.834 21.8 159.634 21.8V21H165.394V36.28C165.394 38.44 165.594 39.2 167.794 39.2Z" fill="#252222"></path><path d="M284.696 40H268.896V37.6C274.376 34 280.856 27.64 280.856 21.24C280.856 16.88 278.616 14.72 275.536 14.72C272.976 14.72 270.056 16.92 270.056 21.28H269.176C269.176 16.68 271.936 13 276.296 13C281.816 13 284.496 16.6 284.496 21.24C284.496 27.56 278.296 32.44 272.496 36.24C272.096 36.52 272.056 36.68 272.616 36.68H280.936C283.136 36.68 283.816 36.32 283.816 34.12H284.696V40ZM296.346 40.4C289.906 40.4 286.826 34.56 286.826 26.24C286.826 18.64 290.266 13 296.346 13C302.426 13 305.866 18.64 305.866 26.24C305.866 34.56 302.786 40.4 296.346 40.4ZM296.346 39.64C300.026 39.64 302.226 35.76 302.226 26.16C302.226 17.72 299.826 13.76 296.346 13.76C292.866 13.76 290.466 17.72 290.466 26.16C290.466 35.76 292.666 39.64 296.346 39.64ZM324.462 40H308.662V37.6C314.142 34 320.622 27.64 320.622 21.24C320.622 16.88 318.382 14.72 315.302 14.72C312.742 14.72 309.822 16.92 309.822 21.28H308.942C308.942 16.68 311.702 13 316.062 13C321.582 13 324.262 16.6 324.262 21.24C324.262 27.56 318.062 32.44 312.262 36.24C311.862 36.52 311.822 36.68 312.382 36.68H320.702C322.902 36.68 323.582 36.32 323.582 34.12H324.462V40ZM343.351 40H334.711V39.12C336.911 39.12 337.271 38.44 337.271 36.24V35.28C337.271 34.48 336.911 34.56 336.431 34.56H325.711V32.36L339.631 13H340.871V30.76C340.871 31.56 341.191 31.48 341.671 31.48H344.711V34.56H341.671C341.191 34.56 340.871 34.52 340.871 35.32V36.24C340.871 38.44 341.151 39.12 343.351 39.12V40ZM337.271 30.76V19C337.271 18.2 336.991 18.4 336.631 18.92L328.231 30.56C327.871 31.08 327.831 31.48 328.591 31.48H336.471C337.151 31.48 337.271 31.56 337.271 30.76Z" fill="#252222"></path><path d="M172.143 102.8H176.223V114H174.687V104.192H172.143V102.8Z" fill="black"></path><path d="M175.518 148.736C177.774 148.736 179.166 149.808 179.166 151.584C179.166 152.704 178.51 153.568 177.438 154.016C178.846 154.464 179.726 155.472 179.726 156.864C179.726 158.848 178.11 160.08 175.534 160.08C172.958 160.08 171.342 158.864 171.342 156.896C171.342 155.488 172.254 154.464 173.694 154.016C172.558 153.536 171.886 152.672 171.886 151.536C171.886 149.792 173.294 148.736 175.518 148.736ZM175.534 149.856C174.062 149.856 173.198 150.528 173.198 151.664C173.198 152.816 174.062 153.488 175.534 153.488C177.006 153.488 177.854 152.816 177.854 151.664C177.854 150.528 177.006 149.856 175.534 149.856ZM175.518 154.704C173.806 154.704 172.798 155.456 172.798 156.72C172.798 158.064 173.806 158.848 175.534 158.848C177.246 158.848 178.27 158.064 178.27 156.736C178.27 155.472 177.246 154.704 175.518 154.704Z" fill="black"></path><path d="M171.221 192.8H175.301V204H173.765V194.192H171.221V192.8ZM182.103 196.976C184.615 196.976 186.215 198.4 186.215 200.336C186.215 202.592 184.551 204.08 181.991 204.08C180.647 204.08 179.079 203.568 177.943 202.816L178.567 201.584C179.543 202.304 180.743 202.704 181.847 202.704C183.527 202.704 184.583 201.824 184.583 200.448C184.583 199.168 183.591 198.368 181.751 198.368C181.159 198.368 179.623 198.464 178.791 198.592V192.8H185.751V194.192H180.231V197.04C180.791 196.992 181.607 196.976 182.103 196.976Z" fill="black"></path><path d="M170.874 246.608H176.954V248H168.858V246.816L173.194 242.32C174.122 241.392 174.73 240.4 174.73 239.712C174.73 238.704 173.914 238.096 172.538 238.096C171.498 238.096 170.298 238.608 169.37 239.456L168.714 238.288C169.898 237.328 171.322 236.736 172.73 236.736C174.89 236.736 176.33 237.808 176.33 239.504C176.33 240.592 175.482 241.872 174.25 243.152L170.874 246.608ZM180.124 246.608H186.204V248H178.108V246.816L182.444 242.32C183.372 241.392 183.98 240.4 183.98 239.712C183.98 238.704 183.164 238.096 181.788 238.096C180.748 238.096 179.548 238.608 178.62 239.456L177.964 238.288C179.148 237.328 180.572 236.736 181.98 236.736C184.14 236.736 185.58 237.808 185.58 239.504C185.58 240.592 184.732 241.872 183.5 243.152L180.124 246.608Z" fill="black"></path><path d="M174.929 297.608H181.009V299H172.913V297.816L177.249 293.32C178.177 292.392 178.785 291.4 178.785 290.712C178.785 289.704 177.969 289.096 176.593 289.096C175.553 289.096 174.353 289.608 173.425 290.456L172.769 289.288C173.953 288.328 175.377 287.736 176.785 287.736C178.945 287.736 180.385 288.808 180.385 290.504C180.385 291.592 179.537 292.872 178.305 294.152L174.929 297.608ZM183.459 297.08C184.179 297.528 185.123 297.784 185.987 297.784C188.291 297.784 189.427 295.928 189.283 293.112C188.755 294.344 187.619 295 186.067 295C183.843 295 182.483 293.624 182.483 291.448C182.483 289.16 184.019 287.736 186.339 287.736C189.107 287.736 190.803 289.72 190.803 293.144C190.803 296.728 188.979 299.08 186.083 299.08C185.027 299.08 183.763 298.744 182.851 298.248L183.459 297.08ZM186.435 289.064C184.947 289.064 183.923 289.96 183.923 291.464C183.923 292.872 184.867 293.768 186.339 293.768C188.019 293.768 188.995 292.632 188.995 291.368C188.995 290.344 188.227 289.064 186.435 289.064Z" fill="black"></path><path d="M225.999 112.608H232.079V114H223.983V112.816L228.319 108.32C229.247 107.392 229.855 106.4 229.855 105.712C229.855 104.704 229.039 104.096 227.663 104.096C226.623 104.096 225.423 104.608 224.495 105.456L223.839 104.288C225.023 103.328 226.447 102.736 227.855 102.736C230.015 102.736 231.455 103.808 231.455 105.504C231.455 106.592 230.607 107.872 229.375 109.152L225.999 112.608Z" fill="black"></path><path d="M223.334 158.08C224.054 158.528 224.998 158.784 225.862 158.784C228.166 158.784 229.302 156.928 229.158 154.112C228.63 155.344 227.494 156 225.942 156C223.718 156 222.358 154.624 222.358 152.448C222.358 150.16 223.894 148.736 226.214 148.736C228.982 148.736 230.678 150.72 230.678 154.144C230.678 157.728 228.854 160.08 225.958 160.08C224.902 160.08 223.638 159.744 222.726 159.248L223.334 158.08ZM226.31 150.064C224.822 150.064 223.798 150.96 223.798 152.464C223.798 153.872 224.742 154.768 226.214 154.768C227.894 154.768 228.87 153.632 228.87 152.368C228.87 151.344 228.102 150.064 226.31 150.064Z" fill="black"></path><path d="M222.549 192.8H226.629V204H225.093V194.192H222.549V192.8ZM236.727 194.72C236.007 194.272 235.047 194.016 234.183 194.016C231.847 194.016 230.711 195.872 230.855 198.672C231.399 197.456 232.535 196.8 234.103 196.8C236.343 196.8 237.719 198.176 237.719 200.352C237.719 202.64 236.167 204.08 233.831 204.08C231.031 204.08 229.335 202.08 229.335 198.64C229.335 195.072 231.175 192.736 234.071 192.736C235.143 192.736 236.423 193.056 237.335 193.552L236.727 194.72ZM233.831 198.032C232.135 198.032 231.143 199.152 231.159 200.416C231.143 201.456 231.927 202.736 233.735 202.736C235.239 202.736 236.279 201.84 236.279 200.336C236.279 198.912 235.319 198.032 233.831 198.032Z" fill="black"></path><path d="M221.819 246.608H227.899V248H219.803V246.816L224.139 242.32C225.067 241.392 225.675 240.4 225.675 239.712C225.675 238.704 224.859 238.096 223.483 238.096C222.443 238.096 221.243 238.608 220.315 239.456L219.659 238.288C220.843 237.328 222.267 236.736 223.675 236.736C225.835 236.736 227.275 237.808 227.275 239.504C227.275 240.592 226.427 241.872 225.195 243.152L221.819 246.608ZM233.325 241.552C235.517 241.68 236.989 242.752 236.989 244.544C236.989 246.624 235.309 248.08 232.637 248.08C231.197 248.08 229.693 247.6 228.685 246.912L229.341 245.664C230.221 246.352 231.389 246.768 232.541 246.768C234.397 246.768 235.485 245.888 235.485 244.592C235.485 243.248 234.365 242.56 232.493 242.56H230.957V241.584L234.397 238.192H229.229L229.213 236.8H236.413V237.776L232.653 241.504L233.325 241.552Z" fill="black"></path><path d="M228.013 292.552C230.205 292.68 231.677 293.752 231.677 295.544C231.677 297.624 229.997 299.08 227.325 299.08C225.885 299.08 224.381 298.6 223.373 297.912L224.029 296.664C224.909 297.352 226.077 297.768 227.229 297.768C229.085 297.768 230.173 296.888 230.173 295.592C230.173 294.248 229.053 293.56 227.181 293.56H225.645V292.584L229.085 289.192H223.917L223.901 287.8H231.101V288.776L227.341 292.504L228.013 292.552ZM238.284 287.736C241.292 287.736 242.972 289.752 242.972 293.4C242.972 297.048 241.292 299.08 238.284 299.08C235.26 299.08 233.596 297.048 233.596 293.4C233.596 289.752 235.26 287.736 238.284 287.736ZM238.284 288.952C236.236 288.952 235.18 290.424 235.18 293.4C235.18 296.36 236.236 297.848 238.284 297.848C240.332 297.848 241.388 296.36 241.388 293.4C241.388 290.424 240.332 288.952 238.284 288.952Z" fill="black"></path><path d="M282.2 107.552C284.392 107.68 285.864 108.752 285.864 110.544C285.864 112.624 284.184 114.08 281.512 114.08C280.072 114.08 278.568 113.6 277.56 112.912L278.216 111.664C279.096 112.352 280.264 112.768 281.416 112.768C283.272 112.768 284.36 111.888 284.36 110.592C284.36 109.248 283.24 108.56 281.368 108.56H279.832V107.584L283.272 104.192H278.104L278.088 102.8H285.288V103.776L281.528 107.504L282.2 107.552Z" fill="black"></path><path d="M275.455 148.8H279.535V160H277.999V150.192H275.455V148.8ZM287.058 148.736C290.066 148.736 291.746 150.752 291.746 154.4C291.746 158.048 290.066 160.08 287.058 160.08C284.034 160.08 282.37 158.048 282.37 154.4C282.37 150.752 284.034 148.736 287.058 148.736ZM287.058 149.952C285.01 149.952 283.954 151.424 283.954 154.4C283.954 157.36 285.01 158.848 287.058 158.848C289.106 158.848 290.162 157.36 290.162 154.4C290.162 151.424 289.106 149.952 287.058 149.952Z" fill="black"></path><path d="M276.104 192.8H280.184V204H278.648V194.192H276.104V192.8ZM282.138 192.8H290.522V194L285.642 204H284.01L288.794 194.192H283.53L283.514 195.808H282.138V192.8Z" fill="black"></path><path d="M275.772 246.608H281.852V248H273.756V246.816L278.092 242.32C279.02 241.392 279.628 240.4 279.628 239.712C279.628 238.704 278.812 238.096 277.436 238.096C276.396 238.096 275.196 238.608 274.268 239.456L273.612 238.288C274.796 237.328 276.22 236.736 277.628 236.736C279.788 236.736 281.228 237.808 281.228 239.504C281.228 240.592 280.38 241.872 279.148 243.152L275.772 246.608ZM291.374 243.744V245.12H289.646V248H288.206V245.12H282.654V243.936L286.654 236.8H288.158L284.318 243.744H288.206V240.88H289.646V243.744H291.374Z" fill="black"></path><path d="M282.247 292.552C284.439 292.68 285.911 293.752 285.911 295.544C285.911 297.624 284.231 299.08 281.559 299.08C280.119 299.08 278.615 298.6 277.607 297.912L278.263 296.664C279.143 297.352 280.311 297.768 281.463 297.768C283.319 297.768 284.407 296.888 284.407 295.592C284.407 294.248 283.287 293.56 281.415 293.56H279.879V292.584L283.319 289.192H278.151L278.135 287.8H285.335V288.776L281.575 292.504L282.247 292.552ZM286.823 287.8H290.903V299H289.367V289.192H286.823V287.8Z" fill="black"></path><path d="M342.249 109.744V111.12H340.521V114H339.081V111.12H333.529V109.936L337.529 102.8H339.033L335.193 109.744H339.081V106.88H340.521V109.744H342.249Z" fill="black"></path><path d="M331.19 148.8H335.27V160H333.734V150.192H331.19V148.8ZM337.096 148.8H341.176V160H339.64V150.192H337.096V148.8Z" fill="black"></path><path d="M332.557 192.8H336.637V204H335.101V194.192H332.557V192.8ZM343.471 192.736C345.727 192.736 347.119 193.808 347.119 195.584C347.119 196.704 346.463 197.568 345.391 198.016C346.799 198.464 347.679 199.472 347.679 200.864C347.679 202.848 346.063 204.08 343.487 204.08C340.911 204.08 339.295 202.864 339.295 200.896C339.295 199.488 340.207 198.464 341.647 198.016C340.511 197.536 339.839 196.672 339.839 195.536C339.839 193.792 341.247 192.736 343.471 192.736ZM343.487 193.856C342.015 193.856 341.151 194.528 341.151 195.664C341.151 196.816 342.015 197.488 343.487 197.488C344.959 197.488 345.807 196.816 345.807 195.664C345.807 194.528 344.959 193.856 343.487 193.856ZM343.471 198.704C341.759 198.704 340.751 199.456 340.751 200.72C340.751 202.064 341.759 202.848 343.487 202.848C345.199 202.848 346.223 202.064 346.223 200.736C346.223 199.472 345.199 198.704 343.471 198.704Z" fill="black"></path><path d="M332.077 246.608H338.157V248H330.061V246.816L334.397 242.32C335.325 241.392 335.933 240.4 335.933 239.712C335.933 238.704 335.117 238.096 333.741 238.096C332.701 238.096 331.501 238.608 330.573 239.456L329.917 238.288C331.101 237.328 332.525 236.736 333.933 236.736C336.093 236.736 337.533 237.808 337.533 239.504C337.533 240.592 336.685 241.872 335.453 243.152L332.077 246.608ZM343.775 240.976C346.287 240.976 347.887 242.4 347.887 244.336C347.887 246.592 346.223 248.08 343.663 248.08C342.319 248.08 340.751 247.568 339.615 246.816L340.239 245.584C341.215 246.304 342.415 246.704 343.519 246.704C345.199 246.704 346.255 245.824 346.255 244.448C346.255 243.168 345.263 242.368 343.423 242.368C342.831 242.368 341.295 242.464 340.463 242.592V236.8H347.423V238.192H341.903V241.04C342.463 240.992 343.279 240.976 343.775 240.976Z" fill="black"></path><path d="M10.1501 152.976C12.6621 152.976 14.2621 154.4 14.2621 156.336C14.2621 158.592 12.5981 160.08 10.0381 160.08C8.69413 160.08 7.12613 159.568 5.99013 158.816L6.61413 157.584C7.59013 158.304 8.79013 158.704 9.89413 158.704C11.5741 158.704 12.6301 157.824 12.6301 156.448C12.6301 155.168 11.6381 154.368 9.79813 154.368C9.20613 154.368 7.67013 154.464 6.83813 154.592V148.8H13.7981V150.192H8.27813V153.04C8.83813 152.992 9.65413 152.976 10.1501 152.976Z" fill="black"></path><path d="M2.51788 192.8H6.59788V204H5.06188V194.192H2.51788V192.8ZM10.9521 202.608H17.0321V204H8.93613V202.816L13.2721 198.32C14.2001 197.392 14.8081 196.4 14.8081 195.712C14.8081 194.704 13.9921 194.096 12.6161 194.096C11.5761 194.096 10.3761 194.608 9.44813 195.456L8.79213 194.288C9.97613 193.328 11.4001 192.736 12.8081 192.736C14.9681 192.736 16.4081 193.808 16.4081 195.504C16.4081 196.592 15.5601 197.872 14.3281 199.152L10.9521 202.608Z" fill="black"></path><path d="M2.57256 236.8H6.65256V248H5.11656V238.192H2.57256V236.8ZM10.2868 246.08C11.0068 246.528 11.9508 246.784 12.8148 246.784C15.1188 246.784 16.2548 244.928 16.1108 242.112C15.5828 243.344 14.4468 244 12.8948 244C10.6708 244 9.31081 242.624 9.31081 240.448C9.31081 238.16 10.8468 236.736 13.1668 236.736C15.9348 236.736 17.6308 238.72 17.6308 242.144C17.6308 245.728 15.8068 248.08 12.9108 248.08C11.8548 248.08 10.5908 247.744 9.67881 247.248L10.2868 246.08ZM13.2628 238.064C11.7748 238.064 10.7508 238.96 10.7508 240.464C10.7508 241.872 11.6948 242.768 13.1668 242.768C14.8468 242.768 15.8228 241.632 15.8228 240.368C15.8228 239.344 15.0548 238.064 13.2628 238.064Z" fill="black"></path><path d="M4.90525 297.608H10.9853V299H2.88925V297.816L7.22525 293.32C8.15325 292.392 8.76125 291.4 8.76125 290.712C8.76125 289.704 7.94525 289.096 6.56925 289.096C5.52925 289.096 4.32925 289.608 3.40125 290.456L2.74525 289.288C3.92925 288.328 5.35325 287.736 6.76125 287.736C8.92125 287.736 10.3612 288.808 10.3612 290.504C10.3612 291.592 9.51325 292.872 8.28125 294.152L4.90525 297.608ZM19.8993 289.72C19.1793 289.272 18.2193 289.016 17.3553 289.016C15.0193 289.016 13.8832 290.872 14.0273 293.672C14.5713 292.456 15.7073 291.8 17.2753 291.8C19.5153 291.8 20.8913 293.176 20.8913 295.352C20.8913 297.64 19.3393 299.08 17.0033 299.08C14.2033 299.08 12.5073 297.08 12.5073 293.64C12.5073 290.072 14.3473 287.736 17.2433 287.736C18.3153 287.736 19.5953 288.056 20.5073 288.552L19.8993 289.72ZM17.0033 293.032C15.3073 293.032 14.3153 294.152 14.3313 295.416C14.3153 296.456 15.0993 297.736 16.9073 297.736C18.4113 297.736 19.4513 296.84 19.4513 295.336C19.4513 293.912 18.4913 293.032 17.0033 293.032Z" fill="black"></path><path d="M75.7743 150.72C75.0543 150.272 74.0943 150.016 73.2303 150.016C70.8943 150.016 69.7582 151.872 69.9023 154.672C70.4463 153.456 71.5823 152.8 73.1503 152.8C75.3903 152.8 76.7663 154.176 76.7663 156.352C76.7663 158.64 75.2143 160.08 72.8783 160.08C70.0783 160.08 68.3823 158.08 68.3823 154.64C68.3823 151.072 70.2223 148.736 73.1183 148.736C74.1903 148.736 75.4703 149.056 76.3823 149.552L75.7743 150.72ZM72.8783 154.032C71.1823 154.032 70.1903 155.152 70.2063 156.416C70.1903 157.456 70.9743 158.736 72.7823 158.736C74.2863 158.736 75.3263 157.84 75.3263 156.336C75.3263 154.912 74.3663 154.032 72.8783 154.032Z" fill="black"></path><path d="M61.9632 192.8H66.0432V204H64.5072V194.192H61.9632V192.8ZM72.6534 197.552C74.8454 197.68 76.3174 198.752 76.3174 200.544C76.3174 202.624 74.6374 204.08 71.9654 204.08C70.5254 204.08 69.0214 203.6 68.0134 202.912L68.6694 201.664C69.5494 202.352 70.7174 202.768 71.8694 202.768C73.7254 202.768 74.8134 201.888 74.8134 200.592C74.8134 199.248 73.6934 198.56 71.8214 198.56H70.2854V197.584L73.7254 194.192H68.5574L68.5414 192.8H75.7414V193.776L71.9814 197.504L72.6534 197.552Z" fill="black"></path><path d="M61.8115 246.608H67.8915V248H59.7955V246.816L64.1315 242.32C65.0595 241.392 65.6675 240.4 65.6675 239.712C65.6675 238.704 64.8515 238.096 63.4755 238.096C62.4355 238.096 61.2355 238.608 60.3075 239.456L59.6515 238.288C60.8355 237.328 62.2595 236.736 63.6675 236.736C65.8275 236.736 67.2675 237.808 67.2675 239.504C67.2675 240.592 66.4195 241.872 65.1875 243.152L61.8115 246.608ZM74.2295 236.736C77.2375 236.736 78.9175 238.752 78.9175 242.4C78.9175 246.048 77.2375 248.08 74.2295 248.08C71.2055 248.08 69.5415 246.048 69.5415 242.4C69.5415 238.752 71.2055 236.736 74.2295 236.736ZM74.2295 237.952C72.1815 237.952 71.1255 239.424 71.1255 242.4C71.1255 245.36 72.1815 246.848 74.2295 246.848C76.2775 246.848 77.3335 245.36 77.3335 242.4C77.3335 239.424 76.2775 237.952 74.2295 237.952Z" fill="black"></path><path d="M62.9599 297.608H69.0399V299H60.9439V297.816L65.2799 293.32C66.2079 292.392 66.8159 291.4 66.8159 290.712C66.8159 289.704 65.9999 289.096 64.6239 289.096C63.5839 289.096 62.3839 289.608 61.4559 290.456L60.7999 289.288C61.9839 288.328 63.4079 287.736 64.8159 287.736C66.9759 287.736 68.4159 288.808 68.4159 290.504C68.4159 291.592 67.5679 292.872 66.3359 294.152L62.9599 297.608ZM69.8099 287.8H78.1939V289L73.3139 299H71.6819L76.4659 289.192H71.2019L71.1859 290.808H69.8099V287.8Z" fill="black"></path><path d="M120.685 148.8H129.069V150L124.189 160H122.557L127.341 150.192H122.077L122.061 151.808H120.685V148.8Z" fill="black"></path><path d="M114.416 192.8H118.496V204H116.96V194.192H114.416V192.8ZM129.203 199.744V201.12H127.475V204H126.035V201.12H120.483V199.936L124.483 192.8H125.987L122.147 199.744H126.035V196.88H127.475V199.744H129.203Z" fill="black"></path><path d="M117.046 246.608H123.126V248H115.03V246.816L119.366 242.32C120.294 241.392 120.902 240.4 120.902 239.712C120.902 238.704 120.086 238.096 118.71 238.096C117.67 238.096 116.47 238.608 115.542 239.456L114.886 238.288C116.07 237.328 117.494 236.736 118.902 236.736C121.062 236.736 122.502 237.808 122.502 239.504C122.502 240.592 121.654 241.872 120.422 243.152L117.046 246.608ZM123.768 236.8H127.848V248H126.312V238.192H123.768V236.8Z" fill="black"></path><path d="M114.913 297.608H120.993V299H112.897V297.816L117.233 293.32C118.161 292.392 118.769 291.4 118.769 290.712C118.769 289.704 117.953 289.096 116.577 289.096C115.537 289.096 114.337 289.608 113.409 290.456L112.753 289.288C113.937 288.328 115.361 287.736 116.769 287.736C118.929 287.736 120.369 288.808 120.369 290.504C120.369 291.592 119.521 292.872 118.289 294.152L114.913 297.608ZM126.643 287.736C128.899 287.736 130.291 288.808 130.291 290.584C130.291 291.704 129.635 292.568 128.563 293.016C129.971 293.464 130.851 294.472 130.851 295.864C130.851 297.848 129.235 299.08 126.659 299.08C124.083 299.08 122.467 297.864 122.467 295.896C122.467 294.488 123.379 293.464 124.819 293.016C123.683 292.536 123.011 291.672 123.011 290.536C123.011 288.792 124.419 287.736 126.643 287.736ZM126.659 288.856C125.187 288.856 124.323 289.528 124.323 290.664C124.323 291.816 125.187 292.488 126.659 292.488C128.131 292.488 128.979 291.816 128.979 290.664C128.979 289.528 128.131 288.856 126.659 288.856ZM126.643 293.704C124.931 293.704 123.923 294.456 123.923 295.72C123.923 297.064 124.931 297.848 126.659 297.848C128.371 297.848 129.395 297.064 129.395 295.736C129.395 294.472 128.371 293.704 126.643 293.704Z" fill="black"></path></svg> 