<?xml version="1.0" encoding="UTF-8"?> <svg xmlns="http://www.w3.org/2000/svg" width="26" height="29" viewBox="0 0 26 29" fill="none"><path d="M11.584 7.992C13.632 7.33067 15.072 6.648 15.904 5.944C16.7573 5.24 17.184 4.38667 17.184 3.384C17.184 2.82933 16.992 2.36 16.608 1.976C16.1813 1.61333 15.6693 1.432 15.072 1.432C14.1333 1.432 13.28 1.92267 12.512 2.904C11.7653 3.88533 11.392 5.048 11.392 6.392C11.392 6.54133 11.4027 6.73333 11.424 6.968C11.4453 7.20267 11.488 7.49067 11.552 7.832L11.584 7.992ZM13.92 15.288L12.32 11.608L11.296 8.792C9.35467 9.58133 7.86133 10.5733 6.816 11.768C5.77067 12.9413 5.248 14.2 5.248 15.544C5.248 16.4613 5.51467 17.2187 6.048 17.816C6.58133 18.4133 7.24267 18.712 8.032 18.712C9.07733 18.712 10.08 18.4347 11.04 17.88C12.0213 17.3253 12.9813 16.4613 13.92 15.288ZM14.496 15.352C14.5813 15.5227 14.688 15.8213 14.816 16.248C14.944 16.6533 15.0507 17.0907 15.136 17.56C15.2427 18.0293 15.296 18.648 15.296 19.416C15.296 22.0613 14.4 24.312 12.608 26.168C10.8373 28.024 8.68267 28.952 6.144 28.952C4.58667 28.952 3.28533 28.536 2.24 27.704C1.216 26.8933 0.704 25.848 0.704 24.568C0.704 23.6293 1.088 22.776 1.856 22.008C2.624 21.24 3.40267 20.856 4.192 20.856L4.384 20.888L4.448 20.952C4.384 20.9947 4.34133 21.0267 4.32 21.048C4.17067 21.1547 4.032 21.24 3.904 21.304L3.168 21.624C2.784 21.816 2.48533 21.9867 2.272 22.136C2.08 22.3067 1.89867 22.5413 1.728 22.84C1.38667 23.3307 1.216 23.8853 1.216 24.504C1.216 25.4213 1.6 26.1787 2.368 26.776C3.15733 27.3947 4.14933 27.704 5.344 27.704C6.64533 27.704 7.92533 27.384 9.184 26.744C10.464 26.104 11.584 25.208 12.544 24.056C13.2907 23.1387 13.8453 22.2107 14.208 21.272C14.5707 20.3333 14.752 19.3947 14.752 18.456C14.752 18.0933 14.6987 17.6987 14.592 17.272C14.5067 16.824 14.4427 16.5467 14.4 16.44C14.3787 16.3333 14.2933 16.0987 14.144 15.736C13.184 16.888 12.1813 17.752 11.136 18.328C10.0907 18.8827 9.01333 19.16 7.904 19.16C6.58133 19.16 5.51467 18.776 4.704 18.008C3.89333 17.2187 3.488 16.2053 3.488 14.968C3.488 13.4747 4.10667 12.1733 5.344 11.064C6.58133 9.95467 8.512 8.97333 11.136 8.12L10.944 6.36C10.944 4.86667 11.3493 3.59733 12.16 2.552C12.992 1.50667 13.9413 0.983999 15.008 0.983999C15.8187 0.983999 16.4587 1.21867 16.928 1.688C17.4187 2.136 17.664 2.75467 17.664 3.544C17.664 4.568 17.2267 5.464 16.352 6.232C15.4773 6.97867 13.952 7.768 11.776 8.6C11.84 8.856 11.936 9.18667 12.064 9.592C12.2133 9.976 12.3947 10.4453 12.608 11C13.0987 12.2587 13.3973 13.0053 13.504 13.24C13.8453 13.944 14.1013 14.488 14.272 14.872L15.616 13.08C19.6267 7.768 22.4427 5.112 24.064 5.112C24.4053 5.112 24.6933 5.25067 24.928 5.528C25.184 5.784 25.312 6.09333 25.312 6.456C25.312 6.79733 25.2053 7.07467 24.992 7.288C24.7787 7.50133 24.4907 7.608 24.128 7.608C23.808 7.608 23.488 7.43733 23.168 7.096C22.848 6.75467 22.6027 6.584 22.432 6.584C21.6 6.584 19.648 8.6 16.576 12.632L14.496 15.352Z" fill="#252222"></path></svg> 