<?xml version="1.0" encoding="UTF-8"?> <svg xmlns="http://www.w3.org/2000/svg" width="78" height="30" viewBox="0 0 78 30" fill="none"><path d="M16.328 27.48C16.8613 27.288 17.4693 27 18.152 26.616C18.8347 26.2533 19.5173 25.8373 20.2 25.368C20.904 24.8987 21.4907 24.44 21.96 23.992C22.4293 23.544 22.92 23.0213 23.432 22.424C24.3067 21.4 24.9147 20.376 25.256 19.352C23.5067 19.352 21.8747 19.5547 20.36 19.96C18.8453 20.3653 17.384 20.984 15.976 21.816C15.2933 22.2213 14.6747 22.6373 14.12 23.064C13.5653 23.4907 13.096 23.9173 12.712 24.344C11.9227 25.2613 11.528 26.0507 11.528 26.712C11.528 27.16 11.688 27.512 12.008 27.768C12.328 28.024 12.7867 28.152 13.384 28.152C14.3013 28.152 15.2827 27.928 16.328 27.48ZM14.152 1.336C13.9387 1.16533 13.5653 1.02666 13.032 0.919998C12.4987 0.813332 11.912 0.759998 11.272 0.759998C10.6747 0.759998 10.0987 0.823999 9.544 0.952C6.96267 1.74133 4.84 2.94667 3.176 4.568C1.53333 6.18933 0.712 7.8 0.712 9.4C0.712 10.168 0.914667 10.7653 1.32 11.192C1.74667 11.6187 2.312 11.832 3.016 11.832C3.89067 11.832 4.85067 11.544 5.896 10.968C6.94133 10.3707 7.816 9.61333 8.52 8.696C9.16 7.90667 9.68267 7.01067 10.088 6.008C10.4933 4.984 10.696 4.088 10.696 3.32C10.696 2.78667 10.6107 2.36 10.44 2.04C10.2907 1.72 10.056 1.4 9.736 1.08C10.0347 0.930665 10.2587 0.887999 10.408 0.952C10.8773 1.464 11.1973 2.008 11.368 2.584C11.5387 3.13867 11.624 3.66133 11.624 4.152C11.624 5.28267 11.3787 6.38133 10.888 7.448C10.3973 8.51467 9.69333 9.496 8.776 10.392C8.008 11.16 7.144 11.768 6.184 12.216C5.71467 12.4293 5.256 12.5893 4.808 12.696C4.36 12.7813 3.912 12.824 3.464 12.824C2.48267 12.824 1.68267 12.536 1.064 11.96C0.466667 11.384 0.168 10.5947 0.168 9.592C0.168 7.928 1 6.232 2.664 4.504C3.496 3.672 4.53067 2.91467 5.768 2.232C7.02667 1.528 8.34933 0.941332 9.736 0.471998L10.856 0.311998L11.912 0.247999C13.256 0.247999 14.2907 0.621332 15.016 1.368C15.7627 2.09333 16.136 3.128 16.136 4.472C16.136 5.368 15.9227 6.33867 15.496 7.384C15.0693 8.42933 14.216 9.93333 12.936 11.896L9.256 17.528C9 17.9333 8.72267 18.4027 8.424 18.936C8.12533 19.448 7.912 19.832 7.784 20.088C7.57067 20.4933 7.45333 20.7387 7.432 20.824C7.32533 21.1013 7.26133 21.368 7.24 21.624C7.24 21.88 7.31467 22.104 7.464 22.296C7.61333 22.4027 7.86933 22.4773 8.232 22.52C9.27733 22.52 10.8453 21.4853 12.936 19.416C15.048 17.3467 17.192 14.6373 19.368 11.288L26.216 0.664L28.904 0.504L19.848 14.168C19.6133 14.5093 19.3787 14.8507 19.144 15.192C18.7387 15.7893 18.4827 16.1947 18.376 16.408L21.608 14.584C22.6747 13.9867 23.7093 13.688 24.712 13.688C25.672 13.688 26.44 14.008 27.016 14.648C27.3147 14.968 27.5387 15.448 27.688 16.088C27.8373 16.7067 27.912 17.3253 27.912 17.944C28.8933 17.944 29.7467 18.0933 30.472 18.392C31.1973 18.6907 31.88 19.1173 32.52 19.672C33.6507 20.6747 34.216 21.9333 34.216 23.448C34.216 25.1333 33.544 26.552 32.2 27.704C30.856 28.856 29.1813 29.432 27.176 29.432C25.8533 29.432 24.6267 29.176 23.496 28.664C22.8987 28.408 22.3867 28.1307 21.96 27.832C21.5547 27.5547 21.1387 27.1813 20.712 26.712C20.7973 26.648 20.8827 26.5947 20.968 26.552C21.0533 26.5093 21.1067 26.4987 21.128 26.52C21.8747 27.2667 22.76 27.8853 23.784 28.376C24.8293 28.8667 25.96 29.112 27.176 29.112C28.0293 29.112 28.8507 28.984 29.64 28.728C30.4293 28.472 31.112 28.1093 31.688 27.64C32.9467 26.68 33.576 25.528 33.576 24.184C33.576 22.904 33.0213 21.8053 31.912 20.888C31.272 20.3973 30.6 20.024 29.896 19.768C29.192 19.512 28.4027 19.384 27.528 19.384C26.952 20.6853 26.1093 21.9013 25 23.032C24.4453 23.608 23.8267 24.1413 23.144 24.632C22.4613 25.144 21.6933 25.6667 20.84 26.2C20.2 26.5413 19.4853 26.872 18.696 27.192C17.928 27.5333 17.2453 27.8 16.648 27.992C15.3893 28.376 14.312 28.568 13.416 28.568C12.648 28.568 12.0933 28.408 11.752 28.088C11.3467 27.8107 11.144 27.384 11.144 26.808C11.144 25.8693 11.688 24.856 12.776 23.768C13.864 22.68 15.3787 21.6133 17.32 20.568C18.0453 20.184 18.7493 19.8533 19.432 19.576C20.136 19.2773 20.8187 19.032 21.48 18.84C22.1413 18.6267 22.8347 18.4453 23.56 18.296C24.3067 18.1467 25.0213 18.0293 25.704 17.944C25.8107 17.7093 25.864 17.336 25.864 16.824C25.864 16.3547 25.8213 15.928 25.736 15.544C25.6507 15.1387 25.5547 14.8613 25.448 14.712C25.2133 14.3493 24.7867 14.168 24.168 14.168C23.8907 14.168 23.5707 14.232 23.208 14.36C22.8667 14.488 22.3333 14.776 21.608 15.224C21.3733 15.3733 20.936 15.7253 20.296 16.28C18.76 17.624 17.6613 18.5413 17 19.032C15.528 20.248 14.3653 21.496 13.512 22.776L11.752 23.16C12.7547 21.7093 13.768 20.2587 14.792 18.808C15.624 17.592 16.1253 16.8133 16.296 16.472C15.4427 17.5173 14.6213 18.4347 13.832 19.224C13.064 20.0133 12.2747 20.7173 11.464 21.336C9.94933 22.552 8.76533 23.16 7.912 23.16C7.35733 23.16 6.92 22.9467 6.6 22.52C6.28 22.072 6.12 21.464 6.12 20.696C6.12 19.8213 6.344 18.8507 6.792 17.784C7.176 16.8027 7.99733 15.352 9.256 13.432L13.32 7.288C13.64 6.81867 13.8853 6.424 14.056 6.104C14.1413 5.95467 14.3227 5.56 14.6 4.92C14.8773 4.25867 15.016 3.704 15.016 3.256C15.016 2.424 14.728 1.784 14.152 1.336ZM38.4585 4.376V3.512H44.9545L41.7865 8.472L41.5625 8.792C41.2212 9.32533 40.4852 10.6587 39.3545 12.792C38.0318 15.2453 36.9758 17.2507 36.1865 18.808C35.1198 20.8773 34.5865 21.976 34.5865 22.104C34.5865 22.2747 34.6292 22.4133 34.7145 22.52C34.8212 22.6267 34.9492 22.68 35.0985 22.68C35.9305 22.68 37.0505 21.944 38.4585 20.472C39.0985 19.7893 39.7918 18.9147 40.5385 17.848C41.3065 16.7813 42.0852 15.5867 42.8745 14.264L45.0185 14.136L41.1785 20.216L41.1465 20.312C40.5705 21.1867 40.2825 21.784 40.2825 22.104C40.2825 22.296 40.3252 22.4453 40.4105 22.552C40.4958 22.6373 40.6238 22.68 40.7945 22.68C41.0932 22.68 41.4985 22.4667 42.0105 22.04C42.2878 21.8267 42.6078 21.5493 42.9705 21.208C43.3332 20.8667 43.7598 20.4507 44.2505 19.96L45.1145 19C45.2425 18.8507 45.3812 18.712 45.5305 18.584C45.5732 18.5413 45.6372 18.4987 45.7225 18.456L45.8505 18.488L45.9145 18.584C45.8932 18.648 45.8718 18.7013 45.8505 18.744C45.8505 18.7867 45.7972 18.8827 45.6905 19.032L44.6665 20.152C43.7705 21.112 42.9705 21.8587 42.2665 22.392C41.5838 22.904 41.0825 23.16 40.7625 23.16C40.3145 23.16 39.9518 22.968 39.6745 22.584C39.3972 22.2 39.2585 21.6667 39.2585 20.984L39.2905 20.6L39.3865 20.056C38.5758 21.0373 37.7972 21.8053 37.0505 22.36C36.3038 22.8933 35.6852 23.16 35.1945 23.16C34.6398 23.16 34.2025 22.9787 33.8825 22.616C33.5838 22.2533 33.4345 21.7627 33.4345 21.144C33.4345 20.9093 34.0425 19.6507 35.2585 17.368C35.8558 16.2587 37.0505 14.04 38.8425 10.712C40.3145 8.00267 41.1785 6.33867 41.4345 5.72L42.0105 4.376C40.9865 4.376 40.2718 4.376 39.8665 4.376C39.4825 4.376 39.0132 4.376 38.4585 4.376ZM50.5128 4.376V3.512H57.0088L53.8408 8.472L53.6168 8.792C53.2754 9.32533 52.5394 10.6587 51.4088 12.792C50.0861 15.2453 49.0301 17.2507 48.2408 18.808C47.1741 20.8773 46.6408 21.976 46.6408 22.104C46.6408 22.2747 46.6834 22.4133 46.7688 22.52C46.8754 22.6267 47.0034 22.68 47.1528 22.68C47.9848 22.68 49.1048 21.944 50.5128 20.472C51.1528 19.7893 51.8461 18.9147 52.5928 17.848C53.3608 16.7813 54.1394 15.5867 54.9288 14.264L57.0728 14.136L53.2328 20.216L53.2008 20.312C52.6248 21.1867 52.3368 21.784 52.3368 22.104C52.3368 22.296 52.3794 22.4453 52.4648 22.552C52.5501 22.6373 52.6781 22.68 52.8488 22.68C53.1474 22.68 53.5528 22.4667 54.0648 22.04C54.3421 21.8267 54.6621 21.5493 55.0248 21.208C55.3874 20.8667 55.8141 20.4507 56.3048 19.96L57.1688 19C57.2968 18.8507 57.4354 18.712 57.5848 18.584C57.6274 18.5413 57.6914 18.4987 57.7768 18.456L57.9048 18.488L57.9688 18.584C57.9474 18.648 57.9261 18.7013 57.9048 18.744C57.9048 18.7867 57.8514 18.8827 57.7448 19.032L56.7208 20.152C55.8248 21.112 55.0248 21.8587 54.3208 22.392C53.6381 22.904 53.1368 23.16 52.8168 23.16C52.3688 23.16 52.0061 22.968 51.7288 22.584C51.4514 22.2 51.3128 21.6667 51.3128 20.984L51.3448 20.6L51.4408 20.056C50.6301 21.0373 49.8514 21.8053 49.1048 22.36C48.3581 22.8933 47.7394 23.16 47.2488 23.16C46.6941 23.16 46.2568 22.9787 45.9368 22.616C45.6381 22.2533 45.4888 21.7627 45.4888 21.144C45.4888 20.9093 46.0968 19.6507 47.3128 17.368C47.9101 16.2587 49.1048 14.04 50.8968 10.712C52.3688 8.00267 53.2328 6.33867 53.4888 5.72L54.0648 4.376C53.0408 4.376 52.3261 4.376 51.9208 4.376C51.5368 4.376 51.0674 4.376 50.5128 4.376ZM76.679 13.752L72.487 19.992L72.359 20.184C71.7617 21.0587 71.463 21.6347 71.463 21.912C71.463 22.04 71.495 22.1467 71.559 22.232C71.6443 22.296 71.7617 22.328 71.911 22.328C72.2097 22.328 72.6577 22.1147 73.255 21.688C73.703 21.304 74.503 20.5147 75.655 19.32L76.423 18.424C76.7857 18.0187 77.031 17.7947 77.159 17.752L77.255 17.784L77.319 17.88L77.159 18.232L76.583 18.936L75.559 20.056C74.5137 21.1653 73.735 21.912 73.223 22.296C72.711 22.6587 72.231 22.84 71.783 22.84C71.4203 22.84 71.1217 22.7013 70.887 22.424C70.6523 22.1467 70.535 21.784 70.535 21.336C70.535 20.824 70.6417 20.312 70.855 19.8C71.0683 19.1813 71.3883 18.5413 71.815 17.88C70.407 19.672 69.2657 20.952 68.391 21.72C67.5377 22.4667 66.823 22.84 66.247 22.84C65.8843 22.84 65.575 22.712 65.319 22.456C65.0843 22.1787 64.967 21.8587 64.967 21.496C64.967 21.0053 65.0737 20.4507 65.287 19.832C65.5217 19.192 65.863 18.5627 66.311 17.944C64.583 19.8853 63.3243 21.1867 62.535 21.848C61.767 22.5093 61.1483 22.84 60.679 22.84C60.3377 22.84 60.039 22.7013 59.783 22.424C59.5697 22.104 59.463 21.72 59.463 21.272C59.463 20.4827 59.9963 19.3627 61.063 17.912L61.447 17.368L62.631 15.608C62.823 15.224 62.919 14.9147 62.919 14.68C62.919 14.488 62.8763 14.3493 62.791 14.264C62.727 14.1573 62.599 14.104 62.407 14.104C62.151 14.104 61.703 14.3493 61.063 14.84C60.423 15.3307 59.719 15.992 58.951 16.824L58.087 17.784C57.9163 17.9547 57.7883 18.0827 57.703 18.168C57.639 18.232 57.5643 18.2853 57.479 18.328L57.351 18.264L57.287 18.168C57.287 17.9973 57.7457 17.4427 58.663 16.504L58.855 16.312C59.431 15.736 59.8363 15.3413 60.071 15.128C60.4337 14.808 60.775 14.5307 61.095 14.296C61.671 13.848 62.119 13.624 62.439 13.624C62.887 13.624 63.2497 13.8373 63.527 14.264C63.8257 14.6907 63.975 15.2347 63.975 15.896C63.975 16.3653 63.8363 16.8773 63.559 17.432C63.303 17.9867 62.759 18.7867 61.927 19.832L61.447 20.44C60.8283 21.1867 60.519 21.688 60.519 21.944C60.519 22.072 60.5617 22.168 60.647 22.232C60.7323 22.296 60.807 22.328 60.871 22.328C61.3403 22.328 62.2897 21.5707 63.719 20.056C65.1697 18.52 66.8763 16.4933 68.839 13.976L71.079 13.752L66.919 19.992L66.119 21.304C65.991 21.56 65.927 21.7733 65.927 21.944C65.927 22.072 65.959 22.168 66.023 22.232C66.087 22.296 66.2043 22.328 66.375 22.328C67.207 22.328 69.575 19.928 73.479 15.128L74.407 13.976L76.679 13.752Z" fill="#252222"></path></svg> 