<?xml version="1.0" encoding="UTF-8"?> <svg xmlns="http://www.w3.org/2000/svg" width="235" height="36" viewBox="0 0 235 36" fill="none"><path d="M18.8989 19.08C18.2589 20.5307 17.3309 21.8747 16.1149 23.112C14.9202 24.328 13.3735 25.512 11.4749 26.664C12.3922 27.688 13.4589 28.4773 14.6749 29.032C15.9122 29.608 17.1922 29.896 18.5149 29.896C20.5202 29.896 22.2055 29.352 23.5709 28.264C24.9362 27.1973 25.6189 25.9173 25.6189 24.424C25.6189 23.016 25.0002 21.8 23.7629 20.776C23.0802 20.2427 22.3442 19.8267 21.5549 19.528C20.7655 19.2293 19.8802 19.08 18.8989 19.08ZM16.3709 19.048C14.4935 19.048 12.6909 19.2827 10.9629 19.752C9.23487 20.2213 7.59221 20.9147 6.03487 21.832C4.49887 22.728 3.29354 23.6667 2.41887 24.648C1.56554 25.6293 1.13887 26.4933 1.13887 27.24C1.13887 27.752 1.30954 28.1467 1.65087 28.424C1.99221 28.7013 2.50421 28.84 3.18687 28.84C4.16821 28.84 5.26687 28.5947 6.48287 28.104C7.69887 27.6347 8.98954 26.9413 10.3549 26.024C9.90687 25.448 9.51221 24.84 9.17087 24.2C8.91487 23.7307 8.76554 23.368 8.72287 23.112L8.75487 22.92L8.81887 22.856C8.90421 22.9627 8.96821 23.048 9.01087 23.112C9.18154 23.3467 9.34154 23.6133 9.49087 23.912C9.66154 24.1893 9.85354 24.488 10.0669 24.808C10.2802 25.128 10.5042 25.448 10.7389 25.768C12.1255 24.808 13.3309 23.7093 14.3549 22.472C15.3149 21.3627 15.9869 20.2213 16.3709 19.048ZM8.49887 16.84C9.88554 15.4533 11.1655 14.4293 12.3389 13.768C13.5122 13.1067 14.6535 12.776 15.7629 12.776C16.8082 12.776 17.6722 13.1387 18.3549 13.864C19.0375 14.568 19.3789 15.4747 19.3789 16.584V17.064L19.3469 17.48C21.5229 17.672 23.2295 18.3227 24.4669 19.432C25.7042 20.5413 26.3229 21.9387 26.3229 23.624C26.3229 25.5013 25.5762 27.08 24.0829 28.36C22.5895 29.64 20.7335 30.28 18.5149 30.28C17.0429 30.28 15.6669 29.9813 14.3869 29.384C13.1282 28.808 12.0189 27.9653 11.0589 26.856C10.3762 27.2187 9.66154 27.56 8.91487 27.88C8.16821 28.2 7.46421 28.4667 6.80287 28.68C5.39487 29.1067 4.20021 29.32 3.21887 29.32C2.40821 29.32 1.78954 29.1387 1.36287 28.776C0.914872 28.456 0.690872 27.976 0.690872 27.336C0.690872 26.312 1.29887 25.192 2.51487 23.976C3.75221 22.7387 5.43754 21.5547 7.57087 20.424C9.10687 19.6133 10.6215 18.984 12.1149 18.536C13.6082 18.0667 15.1762 17.7467 16.8189 17.576L17.0109 16.648L17.0749 15.784C17.0749 14.952 16.9255 14.3333 16.6269 13.928C16.3282 13.5013 15.8482 13.288 15.1869 13.288C14.3335 13.288 13.4162 13.5867 12.4349 14.184C11.9655 14.4827 11.3575 14.952 10.6109 15.592C9.88554 16.232 9.01087 17.032 7.98687 17.992L7.21887 18.76C6.34421 19.6347 5.77887 20.072 5.52287 20.072L5.42687 20.04L5.36287 19.912C5.36287 19.784 5.49087 19.528 5.74687 19.144L6.35487 18.184C6.76021 17.3947 7.29354 16.2213 7.95487 14.664C8.25354 13.9387 8.55221 13.2347 8.85087 12.552C9.14954 11.8693 9.37354 11.3787 9.52287 11.08C11.0162 7.92267 13.0749 5.448 15.6989 3.656C18.3229 1.864 21.1922 0.967999 24.3069 0.967999C26.8029 0.967999 28.8402 1.576 30.4189 2.792C31.9975 4.008 32.7869 5.56533 32.7869 7.464C32.7869 9.46933 31.9122 11.2187 30.1629 12.712C28.4349 14.184 26.4189 14.92 24.1149 14.92C22.3442 14.92 20.8402 14.4507 19.6029 13.512C18.3869 12.5733 17.7789 11.4107 17.7789 10.024C17.7789 8.53067 18.4189 7.25067 19.6989 6.184C21.0002 5.11733 22.5682 4.584 24.4029 4.584C25.2989 4.584 26.1629 4.712 26.9949 4.968C27.8269 5.20267 28.2429 5.42667 28.2429 5.64L28.2109 5.736L28.0509 5.768L27.6029 5.64C26.9842 5.42667 26.4082 5.26667 25.8749 5.16C25.3629 5.05333 24.8295 5 24.2749 5C22.6535 5 21.2669 5.48 20.1149 6.44C18.9629 7.4 18.3869 8.52 18.3869 9.8C18.3869 10.888 18.8242 11.784 19.6989 12.488C20.5949 13.192 21.7575 13.544 23.1869 13.544C23.8482 13.544 24.4242 13.5013 24.9149 13.416C25.4055 13.3307 25.9815 13.16 26.6429 12.904C27.7735 12.52 28.7655 11.944 29.6189 11.176C30.3655 10.5573 30.9309 9.864 31.3149 9.096C31.5069 8.712 31.6455 8.33867 31.7309 7.976C31.8375 7.61333 31.8909 7.22933 31.8909 6.824C31.8909 5.352 31.2189 4.09333 29.8749 3.048C28.5522 2.00267 26.8775 1.48 24.8509 1.48C21.8642 1.48 19.1335 2.64267 16.6589 4.968C14.1842 7.272 11.4642 11.2293 8.49887 16.84ZM33.1104 17.32L30.9344 19.688C30.209 20.5413 29.761 20.9893 29.5904 21.032L29.4944 21L29.4304 20.904L29.5904 20.552L30.1664 19.848L33.3024 16.264L35.5744 16.104L33.3664 20.648L31.0624 25.064C32.385 24.168 33.569 23.176 34.6144 22.088L36.2144 20.456L36.3424 20.488L36.4064 20.584C36.4064 20.84 35.8304 21.5333 34.6784 22.664C33.5264 23.7733 32.1824 24.8187 30.6464 25.8C29.1104 28.7227 27.617 31.0053 26.1664 32.648C24.7157 34.2907 23.4357 35.112 22.3264 35.112C21.793 35.112 21.3877 34.9733 21.1104 34.696C20.833 34.4187 20.6944 34.024 20.6944 33.512C20.6944 32.488 21.3557 31.368 22.6784 30.152C23.9797 28.936 26.1664 27.4213 29.2384 25.608L33.1104 17.32ZM28.8544 26.28C26.5717 27.6027 24.7797 28.904 23.4784 30.184C22.177 31.4853 21.5264 32.616 21.5264 33.576C21.5264 33.8747 21.601 34.1413 21.7504 34.376C21.921 34.568 22.1557 34.664 22.4544 34.664C23.2224 34.664 24.1184 34.0027 25.1424 32.68C26.1664 31.3787 27.4037 29.2453 28.8544 26.28ZM35.6579 25.032L39.8179 18.792L40.0099 18.504C40.5645 17.6933 40.8419 17.1493 40.8419 16.872C40.8419 16.744 40.7992 16.648 40.7139 16.584C40.6499 16.4987 40.5432 16.456 40.3939 16.456C40.0952 16.456 39.6472 16.6693 39.0499 17.096C38.6019 17.48 37.8019 18.2693 36.6499 19.464L35.8819 20.36C35.5192 20.7653 35.2739 20.9893 35.1459 21.032L35.0499 21L34.9859 20.904L35.1459 20.552L35.7219 19.848L36.7459 18.728C37.7912 17.6187 38.5699 16.8827 39.0819 16.52C39.5939 16.136 40.0739 15.944 40.5219 15.944C40.8845 15.944 41.1832 16.0827 41.4179 16.36C41.6525 16.6373 41.7699 17 41.7699 17.448C41.7699 17.96 41.6632 18.472 41.4499 18.984C41.2365 19.6027 40.9165 20.2427 40.4899 20.904C42.2179 18.984 43.4659 17.704 44.2339 17.064C45.0872 16.3387 45.7805 15.976 46.3139 15.976C46.6552 15.976 46.9539 16.1147 47.2099 16.392C47.4232 16.712 47.5299 17.0853 47.5299 17.512C47.5299 18.344 46.9965 19.464 45.9299 20.872L45.5459 21.416L44.3619 23.176C44.1699 23.56 44.0739 23.8693 44.0739 24.104C44.0739 24.296 44.1059 24.4453 44.1699 24.552C44.2552 24.6373 44.3939 24.68 44.5859 24.68C44.8419 24.68 45.2792 24.4453 45.8979 23.976C46.5165 23.5067 47.2312 22.8347 48.0419 21.96L48.9059 21C49.0765 20.8293 49.1939 20.712 49.2579 20.648C49.3432 20.5627 49.4285 20.4987 49.5139 20.456L49.6419 20.52L49.7059 20.616C49.7059 20.7867 49.2472 21.3413 48.3299 22.28L48.1379 22.472C48.0312 22.5787 47.7219 22.8773 47.2099 23.368C46.6979 23.8587 46.2605 24.232 45.8979 24.488C45.3219 24.936 44.8739 25.16 44.5539 25.16C44.1059 25.16 43.7325 24.9467 43.4339 24.52C43.1565 24.0933 43.0179 23.5493 43.0179 22.888C43.0179 22.4187 43.1459 21.9067 43.4019 21.352C43.6792 20.7973 44.2339 19.9973 45.0659 18.952L45.5459 18.344C46.1645 17.5973 46.4739 17.096 46.4739 16.84C46.4739 16.6907 46.4525 16.5947 46.4099 16.552L46.1219 16.488C45.6099 16.488 44.6179 17.224 43.1459 18.696C41.6952 20.168 39.9459 22.2053 37.8979 24.808L35.6579 25.032ZM51.8934 17.992L50.0694 19.944C49.4294 20.648 49.056 21 48.9494 21L48.8214 20.904C48.8214 20.7973 49.1734 20.328 49.8774 19.496C50.1334 19.1973 50.56 18.728 51.1574 18.088C51.6267 17.5973 52.2027 16.9893 52.8854 16.264L55.1894 16.104L52.0214 21.096L50.7094 23.24C50.6027 23.4747 50.528 23.6453 50.4854 23.752C50.464 23.8587 50.4534 23.976 50.4534 24.104C50.4534 24.2747 50.5067 24.424 50.6134 24.552C50.72 24.6587 50.848 24.712 50.9974 24.712C51.4027 24.712 51.8827 24.5093 52.4374 24.104C52.6934 23.912 53.024 23.624 53.4294 23.24C53.856 22.8347 54.2934 22.3973 54.7414 21.928L55.4454 21.16C55.8294 20.6907 56.0854 20.456 56.2134 20.456L56.3414 20.488L56.4054 20.616C56.384 20.68 56.3627 20.744 56.3414 20.808C56.32 20.872 56.256 20.9573 56.1494 21.064L54.9334 22.376C54.3574 22.952 53.8774 23.4107 53.4934 23.752C53.1307 24.0933 52.8 24.3707 52.5014 24.584C51.9467 24.968 51.456 25.16 51.0294 25.16C50.5174 25.16 50.0907 24.9787 49.7494 24.616C49.4507 24.2533 49.3014 23.7627 49.3014 23.144C49.3014 22.3333 50.0374 20.808 51.5094 18.568L51.8934 17.992ZM51.7246 33.224L49.6446 33.448L58.9886 17.672L56.4286 20.424L55.9806 20.872L55.6926 21.032L55.5646 21L55.5006 20.904L57.7726 18.344C59.2873 16.6587 60.6846 14.8133 61.9646 12.808L62.4126 11.816L64.3326 11.656L58.8926 20.904C60.7273 18.92 62.018 17.6187 62.7646 17C63.5966 16.296 64.258 15.944 64.7486 15.944C65.09 15.944 65.3886 16.0827 65.6446 16.36C65.858 16.68 65.9646 17.064 65.9646 17.512C65.9646 18.3013 65.4313 19.4213 64.3646 20.872L63.9806 21.416L62.7966 23.176C62.6046 23.56 62.5086 23.8693 62.5086 24.104C62.5086 24.296 62.5406 24.4453 62.6046 24.552C62.69 24.6373 62.8286 24.68 63.0206 24.68C63.298 24.68 63.746 24.4347 64.3646 23.944C65.0046 23.4533 65.7086 22.792 66.4766 21.96L67.3406 21C67.5113 20.8293 67.6286 20.712 67.6926 20.648C67.778 20.5627 67.8633 20.4987 67.9486 20.456L68.0766 20.488L68.1086 20.616C68.0873 20.7013 68.0553 20.776 68.0126 20.84C67.97 20.904 67.906 20.9893 67.8206 21.096L66.5726 22.472C65.7193 23.368 64.9833 24.04 64.3646 24.488C63.746 24.936 63.2873 25.16 62.9886 25.16C62.5406 25.16 62.1673 24.9467 61.8686 24.52C61.5913 24.0933 61.4526 23.5493 61.4526 22.888C61.4526 22.4187 61.5806 21.9067 61.8366 21.352C62.114 20.7973 62.6686 19.9973 63.5006 18.952L63.9806 18.344C64.5993 17.5973 64.9086 17.096 64.9086 16.84C64.9086 16.712 64.8766 16.616 64.8126 16.552C64.7486 16.488 64.6633 16.456 64.5566 16.456C63.938 16.456 62.7433 17.384 60.9726 19.24C59.202 21.0747 57.5273 23.3467 55.9486 26.056L51.7246 33.224ZM63.5951 32.968L71.9791 17.672L69.4191 20.424L68.9711 20.872L68.6831 21.032L68.5551 21L68.4911 20.904L70.6991 18.408C72.1925 16.7227 73.5471 14.8347 74.7631 12.744L78.8591 5.736L80.9391 5.448L71.8831 20.904C73.7178 18.92 75.0085 17.6187 75.7551 17C76.5871 16.296 77.2485 15.944 77.7391 15.944C78.0805 15.944 78.3791 16.0827 78.6351 16.36C78.8485 16.68 78.9551 17.064 78.9551 17.512C78.9551 18.3013 78.4218 19.4213 77.3551 20.872L76.9711 21.416L75.7871 23.176C75.5951 23.56 75.4991 23.8693 75.4991 24.104C75.4991 24.296 75.5311 24.4453 75.5951 24.552C75.6805 24.6373 75.8191 24.68 76.0111 24.68C76.2885 24.68 76.7365 24.4347 77.3551 23.944C77.9951 23.4533 78.6991 22.792 79.4671 21.96L80.3311 21C80.5018 20.8293 80.6191 20.712 80.6831 20.648C80.7685 20.5627 80.8538 20.4987 80.9391 20.456L81.0671 20.488L81.0991 20.616C81.0778 20.7013 81.0458 20.776 81.0031 20.84C80.9605 20.904 80.8965 20.9893 80.8111 21.096L79.5631 22.472C78.7098 23.368 77.9738 24.04 77.3551 24.488C76.7365 24.936 76.2778 25.16 75.9791 25.16C75.5311 25.16 75.1578 24.9467 74.8591 24.52C74.5818 24.0933 74.4431 23.5493 74.4431 22.888C74.4431 22.4187 74.5711 21.9067 74.8271 21.352C75.1045 20.7973 75.6591 19.9973 76.4911 18.952L76.9711 18.344C77.5898 17.5973 77.8991 17.096 77.8991 16.84C77.8991 16.712 77.8671 16.616 77.8031 16.552C77.7391 16.488 77.6538 16.456 77.5471 16.456C77.0565 16.456 76.0645 17.2133 74.5711 18.728C74.1231 19.176 73.2805 20.392 72.0431 22.376C70.8271 24.36 69.6325 26.3333 68.4591 28.296C67.0725 30.5573 66.1018 32.04 65.5471 32.744L63.5951 32.968ZM85.3246 25.032L89.9326 17.672L87.3726 20.424L86.9246 20.872L86.6366 21.032L86.5086 21L86.4446 20.904L88.6526 18.408C90.146 16.7227 91.5006 14.8347 92.7166 12.744L96.8126 5.736L98.8926 5.448L89.8366 20.904C91.6713 18.92 92.962 17.6187 93.7086 17C94.5406 16.296 95.202 15.944 95.6926 15.944C96.034 15.944 96.3326 16.0827 96.5886 16.36C96.802 16.68 96.9086 17.064 96.9086 17.512C96.9086 18.3013 96.3753 19.4213 95.3086 20.872L94.9246 21.416L93.7406 23.176C93.5486 23.56 93.4526 23.8693 93.4526 24.104C93.4526 24.296 93.4846 24.4453 93.5486 24.552C93.634 24.6373 93.7726 24.68 93.9646 24.68C94.242 24.68 94.69 24.4347 95.3086 23.944C95.9486 23.4533 96.6526 22.792 97.4206 21.96L98.2846 21C98.4553 20.8293 98.5726 20.712 98.6366 20.648C98.722 20.5627 98.8073 20.4987 98.8926 20.456L99.0206 20.488L99.0526 20.616C99.0313 20.7013 98.9993 20.776 98.9566 20.84C98.914 20.904 98.85 20.9893 98.7646 21.096L97.5166 22.472C96.6633 23.368 95.9273 24.04 95.3086 24.488C94.69 24.936 94.2313 25.16 93.9326 25.16C93.4846 25.16 93.1113 24.9467 92.8126 24.52C92.5353 24.0933 92.3966 23.5493 92.3966 22.888C92.3966 22.4187 92.5246 21.9067 92.7806 21.352C93.058 20.7973 93.6126 19.9973 94.4446 18.952L94.9246 18.344C95.5433 17.5973 95.8526 17.096 95.8526 16.84C95.8526 16.712 95.8206 16.616 95.7566 16.552C95.6926 16.488 95.6073 16.456 95.5006 16.456C95.01 16.456 94.0286 17.2027 92.5566 18.696C91.0846 20.168 89.3246 22.2053 87.2766 24.808L85.3246 25.032ZM117.739 15.752L113.547 21.992L113.419 22.184C112.822 23.0587 112.523 23.6347 112.523 23.912C112.523 24.04 112.555 24.1467 112.619 24.232C112.704 24.296 112.822 24.328 112.971 24.328C113.27 24.328 113.718 24.1147 114.315 23.688C114.763 23.304 115.563 22.5147 116.715 21.32L117.483 20.424C117.846 20.0187 118.091 19.7947 118.219 19.752L118.315 19.784L118.379 19.88L118.219 20.232L117.643 20.936L116.619 22.056C115.574 23.1653 114.795 23.912 114.283 24.296C113.771 24.6587 113.291 24.84 112.843 24.84C112.48 24.84 112.182 24.7013 111.947 24.424C111.712 24.1467 111.595 23.784 111.595 23.336C111.595 22.824 111.702 22.312 111.915 21.8C112.128 21.1813 112.448 20.5413 112.875 19.88C111.467 21.672 110.326 22.952 109.451 23.72C108.598 24.4667 107.883 24.84 107.307 24.84C106.944 24.84 106.635 24.712 106.379 24.456C106.144 24.1787 106.027 23.8587 106.027 23.496C106.027 23.0053 106.134 22.4507 106.347 21.832C106.582 21.192 106.923 20.5627 107.371 19.944C105.643 21.8853 104.384 23.1867 103.595 23.848C102.827 24.5093 102.208 24.84 101.739 24.84C101.398 24.84 101.099 24.7013 100.843 24.424C100.63 24.104 100.523 23.72 100.523 23.272C100.523 22.4827 101.056 21.3627 102.123 19.912L102.507 19.368L103.691 17.608C103.883 17.224 103.979 16.9147 103.979 16.68C103.979 16.488 103.936 16.3493 103.851 16.264C103.787 16.1573 103.659 16.104 103.467 16.104C103.211 16.104 102.763 16.3493 102.123 16.84C101.483 17.3307 100.779 17.992 100.011 18.824L99.1471 19.784C98.9765 19.9547 98.8485 20.0827 98.7631 20.168C98.6991 20.232 98.6245 20.2853 98.5391 20.328L98.4111 20.264L98.3471 20.168C98.3471 19.9973 98.8058 19.4427 99.7231 18.504L99.9151 18.312C100.491 17.736 100.896 17.3413 101.131 17.128C101.494 16.808 101.835 16.5307 102.155 16.296C102.731 15.848 103.179 15.624 103.499 15.624C103.947 15.624 104.31 15.8373 104.587 16.264C104.886 16.6907 105.035 17.2347 105.035 17.896C105.035 18.3653 104.896 18.8773 104.619 19.432C104.363 19.9867 103.819 20.7867 102.987 21.832L102.507 22.44C101.888 23.1867 101.579 23.688 101.579 23.944C101.579 24.072 101.622 24.168 101.707 24.232C101.792 24.296 101.867 24.328 101.931 24.328C102.4 24.328 103.35 23.5707 104.779 22.056C106.23 20.52 107.936 18.4933 109.899 15.976L112.139 15.752L107.979 21.992L107.179 23.304C107.051 23.56 106.987 23.7733 106.987 23.944C106.987 24.072 107.019 24.168 107.083 24.232C107.147 24.296 107.264 24.328 107.435 24.328C108.267 24.328 110.635 21.928 114.539 17.128L115.467 15.976L117.739 15.752ZM113.277 33.224L111.197 33.448L120.541 17.672L117.981 20.424L117.533 20.872L117.245 21.032L117.117 21L117.053 20.904L119.325 18.344C120.84 16.6587 122.237 14.8133 123.517 12.808L123.965 11.816L125.885 11.656L120.445 20.904C122.28 18.92 123.57 17.6187 124.317 17C125.149 16.296 125.81 15.944 126.301 15.944C126.642 15.944 126.941 16.0827 127.197 16.36C127.41 16.68 127.517 17.064 127.517 17.512C127.517 18.3013 126.984 19.4213 125.917 20.872L125.533 21.416L124.349 23.176C124.157 23.56 124.061 23.8693 124.061 24.104C124.061 24.296 124.093 24.4453 124.157 24.552C124.242 24.6373 124.381 24.68 124.573 24.68C124.85 24.68 125.298 24.4347 125.917 23.944C126.557 23.4533 127.261 22.792 128.029 21.96L128.893 21C129.064 20.8293 129.181 20.712 129.245 20.648C129.33 20.5627 129.416 20.4987 129.501 20.456L129.629 20.488L129.661 20.616C129.64 20.7013 129.608 20.776 129.565 20.84C129.522 20.904 129.458 20.9893 129.373 21.096L128.125 22.472C127.272 23.368 126.536 24.04 125.917 24.488C125.298 24.936 124.84 25.16 124.541 25.16C124.093 25.16 123.72 24.9467 123.421 24.52C123.144 24.0933 123.005 23.5493 123.005 22.888C123.005 22.4187 123.133 21.9067 123.389 21.352C123.666 20.7973 124.221 19.9973 125.053 18.952L125.533 18.344C126.152 17.5973 126.461 17.096 126.461 16.84C126.461 16.712 126.429 16.616 126.365 16.552C126.301 16.488 126.216 16.456 126.109 16.456C125.49 16.456 124.296 17.384 122.525 19.24C120.754 21.0747 119.08 23.3467 117.501 26.056L113.277 33.224ZM135.42 26.28C133.137 27.6027 131.345 28.904 130.044 30.184C128.742 31.4853 128.092 32.616 128.092 33.576C128.092 33.8747 128.166 34.1413 128.316 34.376C128.486 34.568 128.721 34.664 129.02 34.664C129.788 34.664 130.641 34.0453 131.58 32.808C132.54 31.592 133.82 29.416 135.42 26.28ZM138.3 20.744C137.148 22.088 136.102 23.1227 135.164 23.848C134.246 24.552 133.5 24.904 132.924 24.904C132.561 24.904 132.241 24.7227 131.964 24.36C131.708 23.9973 131.58 23.5493 131.58 23.016C131.58 22.056 132.102 20.8827 133.148 19.496L133.308 19.272C133.521 18.9947 133.713 18.728 133.884 18.472C134.054 18.1947 134.193 17.96 134.3 17.768L134.588 16.872C134.588 16.7227 134.545 16.616 134.46 16.552C134.396 16.488 134.278 16.456 134.108 16.456C133.809 16.456 133.382 16.68 132.828 17.128C132.273 17.576 131.473 18.3653 130.428 19.496L129.66 20.36C129.297 20.7653 129.052 20.9893 128.924 21.032L128.828 21L128.764 20.904L128.924 20.552L129.5 19.848L130.524 18.728C131.612 17.576 132.412 16.808 132.924 16.424C133.478 16.0827 133.958 15.912 134.364 15.912C134.769 15.912 135.1 16.072 135.356 16.392C135.612 16.6907 135.74 17.096 135.74 17.608C135.74 17.992 135.665 18.3653 135.516 18.728C135.388 19.0693 135.238 19.3893 135.068 19.688C134.897 19.9653 134.684 20.296 134.428 20.68L134.236 21C133.19 22.5573 132.668 23.496 132.668 23.816C132.668 23.9653 132.721 24.1147 132.828 24.264C132.934 24.392 133.052 24.456 133.18 24.456C133.82 24.456 134.908 23.656 136.444 22.056C137.98 20.456 139.42 18.5147 140.764 16.232L142.716 16.104L139.996 20.744L137.628 25.064C138.886 24.2747 140.081 23.2933 141.212 22.12L142.812 20.456L142.94 20.488L142.972 20.616C142.972 20.9147 142.385 21.6187 141.212 22.728C140.06 23.8373 138.716 24.8613 137.18 25.8C135.622 28.744 134.118 31.0267 132.668 32.648C131.217 34.2907 129.948 35.112 128.86 35.112C128.326 35.112 127.921 34.9733 127.644 34.696C127.366 34.44 127.228 34.0453 127.228 33.512C127.228 32.488 127.878 31.368 129.18 30.152C130.502 28.936 132.7 27.4213 135.772 25.608L138.3 20.744ZM161.652 15.752L157.46 21.992L157.332 22.184C156.735 23.0587 156.436 23.6347 156.436 23.912C156.436 24.04 156.468 24.1467 156.532 24.232C156.617 24.296 156.735 24.328 156.884 24.328C157.183 24.328 157.631 24.1147 158.228 23.688C158.676 23.304 159.476 22.5147 160.628 21.32L161.396 20.424C161.759 20.0187 162.004 19.7947 162.132 19.752L162.228 19.784L162.292 19.88L162.132 20.232L161.556 20.936L160.532 22.056C159.487 23.1653 158.708 23.912 158.196 24.296C157.684 24.6587 157.204 24.84 156.756 24.84C156.393 24.84 156.095 24.7013 155.86 24.424C155.625 24.1467 155.508 23.784 155.508 23.336C155.508 22.824 155.615 22.312 155.828 21.8C156.041 21.1813 156.361 20.5413 156.788 19.88C155.38 21.672 154.239 22.952 153.364 23.72C152.511 24.4667 151.796 24.84 151.22 24.84C150.857 24.84 150.548 24.712 150.292 24.456C150.057 24.1787 149.94 23.8587 149.94 23.496C149.94 23.0053 150.047 22.4507 150.26 21.832C150.495 21.192 150.836 20.5627 151.284 19.944C149.556 21.8853 148.297 23.1867 147.508 23.848C146.74 24.5093 146.121 24.84 145.652 24.84C145.311 24.84 145.012 24.7013 144.756 24.424C144.543 24.104 144.436 23.72 144.436 23.272C144.436 22.4827 144.969 21.3627 146.036 19.912L146.42 19.368L147.604 17.608C147.796 17.224 147.892 16.9147 147.892 16.68C147.892 16.488 147.849 16.3493 147.764 16.264C147.7 16.1573 147.572 16.104 147.38 16.104C147.124 16.104 146.676 16.3493 146.036 16.84C145.396 17.3307 144.692 17.992 143.924 18.824L143.06 19.784C142.889 19.9547 142.761 20.0827 142.676 20.168C142.612 20.232 142.537 20.2853 142.452 20.328L142.324 20.264L142.26 20.168C142.26 19.9973 142.719 19.4427 143.636 18.504L143.828 18.312C144.404 17.736 144.809 17.3413 145.044 17.128C145.407 16.808 145.748 16.5307 146.068 16.296C146.644 15.848 147.092 15.624 147.412 15.624C147.86 15.624 148.223 15.8373 148.5 16.264C148.799 16.6907 148.948 17.2347 148.948 17.896C148.948 18.3653 148.809 18.8773 148.532 19.432C148.276 19.9867 147.732 20.7867 146.9 21.832L146.42 22.44C145.801 23.1867 145.492 23.688 145.492 23.944C145.492 24.072 145.535 24.168 145.62 24.232C145.705 24.296 145.78 24.328 145.844 24.328C146.313 24.328 147.263 23.5707 148.692 22.056C150.143 20.52 151.849 18.4933 153.812 15.976L156.052 15.752L151.892 21.992L151.092 23.304C150.964 23.56 150.9 23.7733 150.9 23.944C150.9 24.072 150.932 24.168 150.996 24.232C151.06 24.296 151.177 24.328 151.348 24.328C152.18 24.328 154.548 21.928 158.452 17.128L159.38 15.976L161.652 15.752ZM167.526 24.392C167.569 24.6053 167.665 24.744 167.814 24.808C167.857 24.9147 167.985 24.9467 168.198 24.904C168.902 24.7973 169.617 24.1787 170.342 23.048C171.11 21.96 171.622 20.6587 171.878 19.144C170.577 19.6987 169.478 20.5093 168.582 21.576C167.771 22.664 167.419 23.6027 167.526 24.392ZM166.438 19.304C164.667 21.096 162.993 23.3467 161.414 26.056L157.19 33.224L155.11 33.448L164.454 17.672L161.894 20.424L161.446 20.872L161.158 21.032L161.03 21L160.966 20.904L163.238 18.344C164.753 16.6587 166.15 14.8133 167.43 12.808L167.878 11.816L169.798 11.656L164.358 20.904C166.193 18.92 167.483 17.6187 168.23 17C168.721 16.5947 169.137 16.2747 169.478 16.04C169.819 15.8053 170.086 15.6667 170.278 15.624C170.491 15.56 170.694 15.528 170.886 15.528C171.163 15.528 171.441 15.5813 171.718 15.688C171.995 15.7947 172.283 15.9547 172.582 16.168C172.881 16.4667 173.115 16.8187 173.286 17.224C173.478 17.608 173.627 18.0453 173.734 18.536L173.83 19.144C173.809 19.4853 173.787 19.7413 173.766 19.912L174.118 19.304L174.342 19.144L174.502 19.112L174.566 19.24C174.523 19.2827 174.502 19.3253 174.502 19.368C174.417 19.56 174.353 19.6987 174.31 19.784L173.574 21C173.19 21.6187 172.795 22.1733 172.39 22.664C171.985 23.1333 171.537 23.5493 171.046 23.912C170.214 24.6587 169.329 25.128 168.39 25.32C168.305 25.3413 168.177 25.352 168.006 25.352C167.665 25.352 167.334 25.2667 167.014 25.096C166.715 24.9467 166.513 24.6267 166.406 24.136C166.385 24.0507 166.374 23.9333 166.374 23.784C166.374 23.0587 166.811 22.2373 167.686 21.32C168.134 20.8507 168.742 20.3813 169.51 19.912C170.278 19.4427 171.099 19.016 171.974 18.632L171.942 17.8L171.91 17.288C171.803 16.8187 171.611 16.4773 171.334 16.264C171.078 16.0507 170.747 15.9867 170.342 16.072C170.065 16.072 169.574 16.36 168.87 16.936C168.187 17.512 167.377 18.3013 166.438 19.304ZM180.868 22.216L180.836 22.312C180.26 23.1867 179.972 23.784 179.972 24.104C179.972 24.296 180.015 24.4453 180.1 24.552C180.186 24.6373 180.314 24.68 180.484 24.68C180.783 24.68 181.188 24.4667 181.7 24.04C181.978 23.8267 182.298 23.5493 182.66 23.208C183.023 22.8667 183.45 22.4507 183.94 21.96L184.804 21C184.932 20.8507 185.071 20.712 185.22 20.584C185.263 20.5413 185.327 20.4987 185.412 20.456L185.54 20.488L185.604 20.584C185.583 20.648 185.562 20.7013 185.54 20.744C185.54 20.7867 185.487 20.8827 185.38 21.032L184.356 22.152C183.46 23.112 182.66 23.8587 181.956 24.392C181.274 24.904 180.772 25.16 180.452 25.16C180.004 25.16 179.642 24.968 179.364 24.584C179.087 24.2 178.948 23.6667 178.948 22.984L178.98 22.6L179.076 22.056C178.266 23.0373 177.487 23.8053 176.74 24.36C175.994 24.8933 175.375 25.16 174.884 25.16C174.33 25.16 173.892 24.9787 173.572 24.616C173.274 24.2533 173.124 23.7627 173.124 23.144C173.124 22.8667 173.754 21.544 175.012 19.176C175.844 17.6187 177.135 15.304 178.884 12.232C180.399 9.58667 181.391 7.912 181.86 7.208L182.084 6.856L180.292 8.776C179.652 9.50133 179.279 9.864 179.172 9.864L179.012 9.768C179.012 9.61867 179.354 9.17067 180.036 8.424L183.076 5.128L185.38 5L182.212 9.96L181.988 10.28C181.562 10.9627 180.762 12.3387 179.588 14.408C178.543 16.2427 177.391 18.2907 176.132 20.552C174.895 22.8133 174.276 23.9973 174.276 24.104C174.276 24.2747 174.319 24.4133 174.404 24.52C174.511 24.6267 174.639 24.68 174.788 24.68C175.62 24.68 176.74 23.944 178.148 22.472C178.788 21.7893 179.482 20.9147 180.228 19.848C180.996 18.7813 181.775 17.5867 182.564 16.264L184.708 16.136L180.868 22.216ZM180.484 11.176C180.954 11.112 181.423 11.176 181.892 11.368C182.383 11.56 182.842 11.7307 183.268 11.88C183.887 12.0293 184.506 12.104 185.124 12.104C186.191 12.104 187.194 11.6773 188.132 10.824C188.516 10.4827 188.954 10.12 189.444 9.736C189.508 9.69333 189.594 9.62933 189.7 9.544L189.796 9.64C189.775 9.704 189.754 9.768 189.732 9.832C189.711 9.87467 189.647 9.96 189.54 10.088L188.9 10.728C188.516 11.0907 188.122 11.4107 187.716 11.688C187.332 11.9653 186.948 12.2107 186.564 12.424C185.818 12.808 185.146 13 184.548 13C184.207 13 183.674 12.9147 182.948 12.744C182.479 12.5733 182.116 12.4453 181.86 12.36C181.348 12.1893 180.89 12.104 180.484 12.104V11.176ZM182.205 33.224L180.125 33.448L189.469 17.672L186.909 20.424L186.461 20.872L186.173 21.032L186.045 21L185.981 20.904L188.253 18.344C189.767 16.6587 191.165 14.8133 192.445 12.808L192.893 11.816L194.813 11.656L189.373 20.904C191.207 18.92 192.498 17.6187 193.245 17C194.077 16.296 194.738 15.944 195.229 15.944C195.57 15.944 195.869 16.0827 196.125 16.36C196.338 16.68 196.445 17.064 196.445 17.512C196.445 18.3013 195.911 19.4213 194.845 20.872L194.461 21.416L193.277 23.176C193.085 23.56 192.989 23.8693 192.989 24.104C192.989 24.296 193.021 24.4453 193.085 24.552C193.17 24.6373 193.309 24.68 193.501 24.68C193.778 24.68 194.226 24.4347 194.845 23.944C195.485 23.4533 196.189 22.792 196.957 21.96L197.821 21C197.991 20.8293 198.109 20.712 198.173 20.648C198.258 20.5627 198.343 20.4987 198.429 20.456L198.557 20.488L198.589 20.616C198.567 20.7013 198.535 20.776 198.493 20.84C198.45 20.904 198.386 20.9893 198.301 21.096L197.053 22.472C196.199 23.368 195.463 24.04 194.845 24.488C194.226 24.936 193.767 25.16 193.469 25.16C193.021 25.16 192.647 24.9467 192.349 24.52C192.071 24.0933 191.933 23.5493 191.933 22.888C191.933 22.4187 192.061 21.9067 192.317 21.352C192.594 20.7973 193.149 19.9973 193.981 18.952L194.461 18.344C195.079 17.5973 195.389 17.096 195.389 16.84C195.389 16.712 195.357 16.616 195.293 16.552C195.229 16.488 195.143 16.456 195.037 16.456C194.418 16.456 193.223 17.384 191.453 19.24C189.682 21.0747 188.007 23.3467 186.429 26.056L182.205 33.224ZM204.251 24.392C204.294 24.6053 204.39 24.744 204.539 24.808C204.582 24.9147 204.71 24.9467 204.923 24.904C205.627 24.7973 206.342 24.1787 207.067 23.048C207.835 21.96 208.347 20.6587 208.603 19.144C207.302 19.6987 206.203 20.5093 205.307 21.576C204.496 22.664 204.144 23.6027 204.251 24.392ZM203.163 19.304C201.392 21.096 199.718 23.3467 198.139 26.056L193.915 33.224L191.835 33.448L201.179 17.672L198.619 20.424L198.171 20.872L197.883 21.032L197.755 21L197.691 20.904L199.963 18.344C201.478 16.6587 202.875 14.8133 204.155 12.808L204.603 11.816L206.523 11.656L201.083 20.904C202.918 18.92 204.208 17.6187 204.955 17C205.446 16.5947 205.862 16.2747 206.203 16.04C206.544 15.8053 206.811 15.6667 207.003 15.624C207.216 15.56 207.419 15.528 207.611 15.528C207.888 15.528 208.166 15.5813 208.443 15.688C208.72 15.7947 209.008 15.9547 209.307 16.168C209.606 16.4667 209.84 16.8187 210.011 17.224C210.203 17.608 210.352 18.0453 210.459 18.536L210.555 19.144C210.534 19.4853 210.512 19.7413 210.491 19.912L210.843 19.304L211.067 19.144L211.227 19.112L211.291 19.24C211.248 19.2827 211.227 19.3253 211.227 19.368C211.142 19.56 211.078 19.6987 211.035 19.784L210.299 21C209.915 21.6187 209.52 22.1733 209.115 22.664C208.71 23.1333 208.262 23.5493 207.771 23.912C206.939 24.6587 206.054 25.128 205.115 25.32C205.03 25.3413 204.902 25.352 204.731 25.352C204.39 25.352 204.059 25.2667 203.739 25.096C203.44 24.9467 203.238 24.6267 203.131 24.136C203.11 24.0507 203.099 23.9333 203.099 23.784C203.099 23.0587 203.536 22.2373 204.411 21.32C204.859 20.8507 205.467 20.3813 206.235 19.912C207.003 19.4427 207.824 19.016 208.699 18.632L208.667 17.8L208.635 17.288C208.528 16.8187 208.336 16.4773 208.059 16.264C207.803 16.0507 207.472 15.9867 207.067 16.072C206.79 16.072 206.299 16.36 205.595 16.936C204.912 17.512 204.102 18.3013 203.163 19.304ZM205.786 32.968L214.17 17.672L211.61 20.424L211.162 20.872L210.874 21.032L210.746 21L210.682 20.904L212.89 18.408C214.383 16.7227 215.738 14.8347 216.954 12.744L221.05 5.736L223.13 5.448L214.074 20.904C215.908 18.92 217.199 17.6187 217.946 17C218.778 16.296 219.439 15.944 219.93 15.944C220.271 15.944 220.57 16.0827 220.826 16.36C221.039 16.68 221.146 17.064 221.146 17.512C221.146 18.3013 220.612 19.4213 219.546 20.872L219.162 21.416L217.978 23.176C217.786 23.56 217.69 23.8693 217.69 24.104C217.69 24.296 217.722 24.4453 217.786 24.552C217.871 24.6373 218.01 24.68 218.202 24.68C218.479 24.68 218.927 24.4347 219.546 23.944C220.186 23.4533 220.89 22.792 221.658 21.96L222.522 21C222.692 20.8293 222.81 20.712 222.874 20.648C222.959 20.5627 223.044 20.4987 223.13 20.456L223.258 20.488L223.29 20.616C223.268 20.7013 223.236 20.776 223.194 20.84C223.151 20.904 223.087 20.9893 223.002 21.096L221.754 22.472C220.9 23.368 220.164 24.04 219.546 24.488C218.927 24.936 218.468 25.16 218.17 25.16C217.722 25.16 217.348 24.9467 217.05 24.52C216.772 24.0933 216.634 23.5493 216.634 22.888C216.634 22.4187 216.762 21.9067 217.018 21.352C217.295 20.7973 217.85 19.9973 218.682 18.952L219.162 18.344C219.78 17.5973 220.09 17.096 220.09 16.84C220.09 16.712 220.058 16.616 219.994 16.552C219.93 16.488 219.844 16.456 219.738 16.456C219.247 16.456 218.255 17.2133 216.762 18.728C216.314 19.176 215.471 20.392 214.234 22.376C213.018 24.36 211.823 26.3333 210.65 28.296C209.263 30.5573 208.292 32.04 207.738 32.744L205.786 32.968ZM230.617 22.216L230.585 22.312C230.414 22.5893 229.774 23.7093 228.665 25.672C228.174 26.5467 227.193 28.3493 225.721 31.08C224.675 33.0213 224.153 34.024 224.153 34.088C224.153 34.28 224.195 34.4187 224.281 34.504C224.366 34.6107 224.494 34.664 224.665 34.664C224.963 34.664 225.369 34.4507 225.881 34.024C226.158 33.8107 226.478 33.5333 226.841 33.192C227.203 32.8507 227.63 32.4347 228.121 31.944L228.985 30.984C229.113 30.8347 229.251 30.696 229.401 30.568C229.443 30.5253 229.507 30.4827 229.593 30.44L229.721 30.472L229.785 30.568C229.763 30.632 229.742 30.6853 229.721 30.728C229.721 30.7707 229.667 30.8667 229.561 31.016L228.537 32.136C227.641 33.096 226.841 33.832 226.137 34.344C225.454 34.8773 224.953 35.144 224.633 35.144C224.185 35.144 223.822 34.952 223.545 34.568C223.267 34.184 223.129 33.6507 223.129 32.968L223.161 32.584C223.161 32.52 223.641 31.6027 224.601 29.832C224.75 29.576 225.657 27.912 227.321 24.84C228.323 23.0267 228.825 22.0987 228.825 22.056C228.014 23.0373 227.235 23.8053 226.489 24.36C225.742 24.8933 225.123 25.16 224.633 25.16C224.078 25.16 223.641 24.9787 223.321 24.616C223.022 24.2533 222.873 23.7627 222.873 23.144C222.873 22.888 223.47 21.544 224.665 19.112C225.859 16.6587 227.033 14.3333 228.185 12.136C229.55 9.55467 230.499 7.86933 231.033 7.08L231.257 6.728L229.465 8.648C228.825 9.37333 228.451 9.736 228.345 9.736L228.185 9.64C228.185 9.49067 228.526 9.04267 229.209 8.296L232.249 5L234.553 4.872L225.593 21.096L225.369 21.416C224.473 22.8667 224.025 23.7627 224.025 24.104C224.025 24.2747 224.067 24.4133 224.153 24.52C224.259 24.6267 224.387 24.68 224.537 24.68C225.369 24.68 226.489 23.944 227.897 22.472C228.537 21.7893 229.23 20.9147 229.977 19.848C230.745 18.7813 231.523 17.5867 232.313 16.264L234.457 16.136L230.617 22.216Z" fill="#444433"></path></svg> 