<?xml version="1.0" encoding="UTF-8"?> <svg xmlns="http://www.w3.org/2000/svg" width="78" height="35" viewBox="0 0 78 35" fill="none"><path d="M17.096 6.08C18.4187 5.888 19.5493 5.39733 20.488 4.608C21.4267 3.79733 21.896 3.008 21.896 2.24C21.896 2.048 21.8213 1.83467 21.672 1.6C21.5013 1.408 21.32 1.312 21.128 1.312C20.4027 1.312 19.688 1.71733 18.984 2.528C18.3013 3.33867 17.672 4.52267 17.096 6.08ZM14.728 24.768H15.048C15.688 24.768 16.3493 24.64 17.032 24.384C17.736 24.128 18.408 23.7547 19.048 23.264C20.0293 22.5173 20.808 21.6533 21.384 20.672C21.96 19.6693 22.248 18.688 22.248 17.728C22.248 17.0667 22.088 16.5547 21.768 16.192C21.4693 15.808 21.0427 15.616 20.488 15.616C19.8907 15.616 19.2613 15.8507 18.6 16.32C17.9387 16.7893 17.2987 17.44 16.68 18.272C16.3813 18.6987 16.1147 19.1467 15.88 19.616C15.6453 20.064 15.432 20.5653 15.24 21.12C14.8987 22.1227 14.728 23.0933 14.728 24.032V24.768ZM14.216 12.8L11.976 17.344C11.4 18.496 11.112 19.6907 11.112 20.928C11.112 21.9733 11.3787 22.8373 11.912 23.52C12.4667 24.2027 13.2027 24.608 14.12 24.736L14.088 24.288V23.776C14.088 21.3013 14.6853 19.2213 15.88 17.536C17.0747 15.8293 18.4827 14.976 20.104 14.976C20.872 14.976 21.4907 15.2213 21.96 15.712C22.4507 16.2027 22.696 16.8213 22.696 17.568C22.696 19.424 21.9493 21.0987 20.456 22.592C18.984 24.0853 17.0853 24.992 14.76 25.312L15.048 27.072L15.272 28.064L15.24 28.224L15.176 28.288C15.0693 28.288 14.92 28.0533 14.728 27.584L14.216 25.312H14.056C12.456 25.312 11.1867 24.896 10.248 24.064C9.33067 23.232 8.872 22.0907 8.872 20.64C8.872 19.6373 9.20267 18.2507 9.864 16.48C10.5467 14.688 11.3253 13.0987 12.2 11.712C12.8827 10.6453 13.4053 9.792 13.768 9.152C13.9813 8.768 14.4187 7.904 15.08 6.56C14.4187 6.56 13.832 6.41067 13.32 6.112C12.808 5.81333 12.296 5.32267 11.784 4.64C11.656 4.46933 11.5387 4.29867 11.432 4.128C11.3253 3.936 11.176 3.66933 10.984 3.328C10.344 2.112 9.62933 1.504 8.84 1.504C8.11467 1.504 7.28267 1.696 6.344 2.08C5.85333 2.29333 5.416 2.51733 5.032 2.752C4.648 2.98667 4.24267 3.27467 3.816 3.616C2.77067 4.49067 1.98133 5.41867 1.448 6.4C0.914667 7.38133 0.648 8.384 0.648 9.408C0.648 10.24 0.882667 10.9227 1.352 11.456C1.82133 11.9893 2.42933 12.256 3.176 12.256C4.264 12.256 5.33067 11.84 6.376 11.008C7.44267 10.1547 8.33867 9.00267 9.064 7.552C9.32 7.06133 9.544 6.47467 9.736 5.792C9.928 5.088 10.0773 4.736 10.184 4.736C10.2693 4.82133 10.312 4.896 10.312 4.96L10.376 5.504C10.376 7.552 9.736 9.39733 8.456 11.04C7.176 12.6613 5.672 13.472 3.944 13.472C2.83467 13.472 1.928 13.12 1.224 12.416C0.541333 11.6693 0.2 10.72 0.2 9.568C0.2 8.58667 0.424 7.59467 0.872 6.592C1.32 5.58933 1.97067 4.69333 2.824 3.904C3.86933 2.92267 5.032 2.16533 6.312 1.632C7.61333 1.07733 8.86133 0.799999 10.056 0.799999C10.888 0.799999 11.6027 1.01333 12.2 1.44C12.7973 1.90933 13.2987 2.60267 13.704 3.52L13.96 4.128C14.3867 5.19467 14.8453 5.792 15.336 5.92C16.36 4.29867 17.3627 3.05067 18.344 2.176C19.3253 1.28 20.2213 0.831999 21.032 0.831999C21.416 0.831999 21.7253 0.970666 21.96 1.248C22.216 1.504 22.344 1.83467 22.344 2.24C22.344 3.136 21.832 4.02133 20.808 4.896C20.2533 5.344 19.688 5.70667 19.112 5.984C18.536 6.26133 17.8533 6.464 17.064 6.592C16.5307 7.82933 16.0293 8.96 15.56 9.984C15.0907 10.9867 14.6427 11.9253 14.216 12.8ZM40.9143 14.752L36.7223 20.992L36.5943 21.184C35.9969 22.0587 35.6983 22.6347 35.6983 22.912C35.6983 23.04 35.7303 23.1467 35.7943 23.232C35.8796 23.296 35.9969 23.328 36.1463 23.328C36.4449 23.328 36.8929 23.1147 37.4903 22.688C37.9383 22.304 38.7383 21.5147 39.8903 20.32L40.6583 19.424C41.0209 19.0187 41.2663 18.7947 41.3943 18.752L41.4903 18.784L41.5543 18.88L41.3943 19.232L40.8183 19.936L39.7943 21.056C38.7489 22.1653 37.9703 22.912 37.4583 23.296C36.9463 23.6587 36.4663 23.84 36.0183 23.84C35.6556 23.84 35.3569 23.7013 35.1223 23.424C34.8876 23.1467 34.7703 22.784 34.7703 22.336C34.7703 21.824 34.8769 21.312 35.0903 20.8C35.3036 20.1813 35.6236 19.5413 36.0503 18.88C34.6423 20.672 33.5009 21.952 32.6263 22.72C31.7729 23.4667 31.0583 23.84 30.4823 23.84C30.1196 23.84 29.8103 23.712 29.5543 23.456C29.3196 23.1787 29.2023 22.8587 29.2023 22.496C29.2023 22.0053 29.3089 21.4507 29.5223 20.832C29.7569 20.192 30.0983 19.5627 30.5463 18.944C28.8183 20.8853 27.5596 22.1867 26.7703 22.848C26.0023 23.5093 25.3836 23.84 24.9143 23.84C24.5729 23.84 24.2743 23.7013 24.0183 23.424C23.8049 23.104 23.6983 22.72 23.6983 22.272C23.6983 21.4827 24.2316 20.3627 25.2983 18.912L25.6823 18.368L26.8663 16.608C27.0583 16.224 27.1543 15.9147 27.1543 15.68C27.1543 15.488 27.1116 15.3493 27.0263 15.264C26.9623 15.1573 26.8343 15.104 26.6423 15.104C26.3863 15.104 25.9383 15.3493 25.2983 15.84C24.6583 16.3307 23.9543 16.992 23.1863 17.824L22.3223 18.784C22.1516 18.9547 22.0236 19.0827 21.9383 19.168C21.8743 19.232 21.7996 19.2853 21.7143 19.328L21.5863 19.264L21.5223 19.168C21.5223 18.9973 21.9809 18.4427 22.8983 17.504L23.0903 17.312C23.6663 16.736 24.0716 16.3413 24.3063 16.128C24.6689 15.808 25.0103 15.5307 25.3303 15.296C25.9063 14.848 26.3543 14.624 26.6743 14.624C27.1223 14.624 27.4849 14.8373 27.7623 15.264C28.0609 15.6907 28.2103 16.2347 28.2103 16.896C28.2103 17.3653 28.0716 17.8773 27.7943 18.432C27.5383 18.9867 26.9943 19.7867 26.1623 20.832L25.6823 21.44C25.0636 22.1867 24.7543 22.688 24.7543 22.944C24.7543 23.072 24.7969 23.168 24.8823 23.232C24.9676 23.296 25.0423 23.328 25.1063 23.328C25.5756 23.328 26.5249 22.5707 27.9543 21.056C29.4049 19.52 31.1116 17.4933 33.0743 14.976L35.3143 14.752L31.1543 20.992L30.3543 22.304C30.2263 22.56 30.1623 22.7733 30.1623 22.944C30.1623 23.072 30.1943 23.168 30.2583 23.232C30.3223 23.296 30.4396 23.328 30.6103 23.328C31.4423 23.328 33.8103 20.928 37.7143 16.128L38.6423 14.976L40.9143 14.752ZM36.4523 32.224L34.3723 32.448L43.7163 16.672L41.1563 19.424L40.7083 19.872L40.4203 20.032L40.2923 20L40.2283 19.904L42.5003 17.344C44.0149 15.6587 45.4123 13.8133 46.6923 11.808L47.1403 10.816L49.0603 10.656L43.6203 19.904C45.4549 17.92 46.7456 16.6187 47.4923 16C48.3243 15.296 48.9856 14.944 49.4763 14.944C49.8176 14.944 50.1163 15.0827 50.3723 15.36C50.5856 15.68 50.6923 16.064 50.6923 16.512C50.6923 17.3013 50.1589 18.4213 49.0923 19.872L48.7083 20.416L47.5243 22.176C47.3323 22.56 47.2363 22.8693 47.2363 23.104C47.2363 23.296 47.2683 23.4453 47.3323 23.552C47.4176 23.6373 47.5563 23.68 47.7483 23.68C48.0256 23.68 48.4736 23.4347 49.0923 22.944C49.7323 22.4533 50.4363 21.792 51.2043 20.96L52.0683 20C52.2389 19.8293 52.3563 19.712 52.4203 19.648C52.5056 19.5627 52.5909 19.4987 52.6763 19.456L52.8043 19.488L52.8363 19.616C52.8149 19.7013 52.7829 19.776 52.7403 19.84C52.6976 19.904 52.6336 19.9893 52.5483 20.096L51.3003 21.472C50.4469 22.368 49.7109 23.04 49.0923 23.488C48.4736 23.936 48.0149 24.16 47.7163 24.16C47.2683 24.16 46.8949 23.9467 46.5963 23.52C46.3189 23.0933 46.1803 22.5493 46.1803 21.888C46.1803 21.4187 46.3083 20.9067 46.5643 20.352C46.8416 19.7973 47.3963 18.9973 48.2283 17.952L48.7083 17.344C49.3269 16.5973 49.6363 16.096 49.6363 15.84C49.6363 15.712 49.6043 15.616 49.5403 15.552C49.4763 15.488 49.3909 15.456 49.2843 15.456C48.6656 15.456 47.4709 16.384 45.7003 18.24C43.9296 20.0747 42.2549 22.3467 40.6763 25.056L36.4523 32.224ZM60.1308 21.216L60.0988 21.312C59.5228 22.1867 59.2348 22.784 59.2348 23.104C59.2348 23.296 59.2774 23.4453 59.3628 23.552C59.4481 23.6373 59.5761 23.68 59.7468 23.68C60.0454 23.68 60.4508 23.4667 60.9628 23.04C61.2401 22.8267 61.5601 22.5493 61.9228 22.208C62.2854 21.8667 62.7121 21.4507 63.2028 20.96L64.0668 20C64.1948 19.8507 64.3334 19.712 64.4828 19.584C64.5254 19.5413 64.5894 19.4987 64.6748 19.456L64.8028 19.488L64.8668 19.584C64.8454 19.648 64.8241 19.7013 64.8028 19.744C64.8028 19.7867 64.7494 19.8827 64.6428 20.032L63.6188 21.152C62.7228 22.112 61.9228 22.8587 61.2188 23.392C60.5361 23.904 60.0348 24.16 59.7148 24.16C59.2668 24.16 58.9041 23.968 58.6268 23.584C58.3494 23.2 58.2108 22.6667 58.2108 21.984L58.2428 21.6L58.3388 21.056C57.5281 22.0373 56.7494 22.8053 56.0028 23.36C55.2561 23.8933 54.6374 24.16 54.1468 24.16C53.5921 24.16 53.1548 23.9787 52.8348 23.616C52.5361 23.2533 52.3868 22.7627 52.3868 22.144C52.3868 21.8667 53.0161 20.544 54.2748 18.176C55.1068 16.6187 56.3974 14.304 58.1468 11.232C59.6614 8.58667 60.6534 6.912 61.1228 6.208L61.3468 5.856L59.5548 7.776C58.9148 8.50133 58.5414 8.864 58.4348 8.864L58.2748 8.768C58.2748 8.61867 58.6161 8.17067 59.2988 7.424L62.3388 4.128L64.6428 4L61.4748 8.96L61.2508 9.28C60.8241 9.96267 60.0241 11.3387 58.8508 13.408C57.8054 15.2427 56.6534 17.2907 55.3948 19.552C54.1574 21.8133 53.5388 22.9973 53.5388 23.104C53.5388 23.2747 53.5814 23.4133 53.6668 23.52C53.7734 23.6267 53.9014 23.68 54.0508 23.68C54.8828 23.68 56.0028 22.944 57.4108 21.472C58.0508 20.7893 58.7441 19.9147 59.4908 18.848C60.2588 17.7813 61.0374 16.5867 61.8268 15.264L63.9708 15.136L60.1308 21.216ZM59.7468 10.176C60.2161 10.112 60.6854 10.176 61.1548 10.368C61.6454 10.56 62.1041 10.7307 62.5308 10.88C63.1494 11.0293 63.7681 11.104 64.3868 11.104C65.4534 11.104 66.4561 10.6773 67.3948 9.824C67.7788 9.48267 68.2161 9.12 68.7068 8.736C68.7708 8.69333 68.8561 8.62933 68.9628 8.544L69.0588 8.64C69.0374 8.704 69.0161 8.768 68.9948 8.832C68.9734 8.87467 68.9094 8.96 68.8028 9.088L68.1628 9.728C67.7788 10.0907 67.3841 10.4107 66.9788 10.688C66.5948 10.9653 66.2108 11.2107 65.8268 11.424C65.0801 11.808 64.4081 12 63.8108 12C63.4694 12 62.9361 11.9147 62.2108 11.744C61.7414 11.5733 61.3788 11.4453 61.1228 11.36C60.6108 11.1893 60.1521 11.104 59.7468 11.104V10.176ZM73.435 21.216L73.403 21.312C73.2323 21.5893 72.5923 22.7093 71.483 24.672C70.9923 25.5467 70.011 27.3493 68.539 30.08C67.4937 32.0213 66.971 33.024 66.971 33.088C66.971 33.28 67.0137 33.4187 67.099 33.504C67.1843 33.6107 67.3123 33.664 67.483 33.664C67.7817 33.664 68.187 33.4507 68.699 33.024C68.9763 32.8107 69.2963 32.5333 69.659 32.192C70.0217 31.8507 70.4483 31.4347 70.939 30.944L71.803 29.984C71.931 29.8347 72.0697 29.696 72.219 29.568C72.2617 29.5253 72.3257 29.4827 72.411 29.44L72.539 29.472L72.603 29.568C72.5817 29.632 72.5603 29.6853 72.539 29.728C72.539 29.7707 72.4857 29.8667 72.379 30.016L71.355 31.136C70.459 32.096 69.659 32.832 68.955 33.344C68.2723 33.8773 67.771 34.144 67.451 34.144C67.003 34.144 66.6403 33.952 66.363 33.568C66.0857 33.184 65.947 32.6507 65.947 31.968L65.979 31.584C65.979 31.52 66.459 30.6027 67.419 28.832C67.5683 28.576 68.475 26.912 70.139 23.84C71.1417 22.0267 71.643 21.0987 71.643 21.056C70.8323 22.0373 70.0537 22.8053 69.307 23.36C68.5603 23.8933 67.9417 24.16 67.451 24.16C66.8963 24.16 66.459 23.9787 66.139 23.616C65.8403 23.2533 65.691 22.7627 65.691 22.144C65.691 21.888 66.2883 20.544 67.483 18.112C68.6777 15.6587 69.851 13.3333 71.003 11.136C72.3683 8.55467 73.3177 6.86933 73.851 6.08L74.075 5.728L72.283 7.648C71.643 8.37333 71.2697 8.736 71.163 8.736L71.003 8.64C71.003 8.49067 71.3443 8.04267 72.027 7.296L75.067 4L77.371 3.872L68.411 20.096L68.187 20.416C67.291 21.8667 66.843 22.7627 66.843 23.104C66.843 23.2747 66.8857 23.4133 66.971 23.52C67.0777 23.6267 67.2057 23.68 67.355 23.68C68.187 23.68 69.307 22.944 70.715 21.472C71.355 20.7893 72.0483 19.9147 72.795 18.848C73.563 17.7813 74.3417 16.5867 75.131 15.264L77.275 15.136L73.435 21.216Z" fill="#252222"></path></svg> 