<?xml version="1.0" encoding="UTF-8"?> <svg xmlns="http://www.w3.org/2000/svg" width="173" height="35" viewBox="0 0 173 35" fill="none"><path d="M14.424 1.952C11.8427 2.74133 9.72 3.94667 8.056 5.568C6.41333 7.18933 5.592 8.8 5.592 10.4C5.592 11.168 5.79467 11.7653 6.2 12.192C6.62667 12.6187 7.192 12.832 7.896 12.832C8.77067 12.832 9.73067 12.544 10.776 11.968C11.8213 11.3707 12.696 10.6133 13.4 9.696C14.04 8.90667 14.5627 8.01067 14.968 7.008C15.3733 5.984 15.576 5.088 15.576 4.32C15.576 3.78667 15.48 3.33867 15.288 2.976C15.096 2.592 14.808 2.25067 14.424 1.952ZM21.176 17.472C20.3227 18.5173 19.5013 19.4347 18.712 20.224C17.944 21.0133 17.1547 21.7173 16.344 22.336C14.8293 23.552 13.6453 24.16 12.792 24.16C12.2373 24.16 11.8 23.9467 11.48 23.52C11.16 23.072 11 22.464 11 21.696C11 20.8213 11.224 19.8507 11.672 18.784C11.864 18.2933 12.1733 17.664 12.6 16.896C13.048 16.128 13.56 15.3067 14.136 14.432L18.2 8.288C18.4347 7.94667 18.6693 7.552 18.904 7.104C19.1387 6.656 19.32 6.29333 19.448 6.016C19.7467 5.29067 19.896 4.704 19.896 4.256C19.896 3.424 19.608 2.784 19.032 2.336C18.456 1.888 17.624 1.664 16.536 1.664L15.224 1.792C15.608 2.176 15.928 2.63467 16.184 3.168C16.3973 3.76533 16.504 4.42667 16.504 5.152C16.504 5.74933 16.4507 6.304 16.344 6.816C16.2373 7.30667 16.0453 7.85067 15.768 8.448C15.2773 9.51467 14.5733 10.496 13.656 11.392C12.888 12.16 12.024 12.768 11.064 13.216C10.1253 13.6213 9.21867 13.824 8.344 13.824C7.36267 13.824 6.56267 13.536 5.944 12.96C5.34667 12.384 5.048 11.5947 5.048 10.592C5.048 8.928 5.88 7.24267 7.544 5.536C9.22933 3.82933 11.352 2.54933 13.912 1.696L12.792 1.344L11.704 1.248C9.93333 1.248 8.17333 1.89867 6.424 3.2C4.696 4.48 3.36267 6.13333 2.424 8.16C1.976 9.16267 1.656 10.176 1.464 11.2C1.4 11.648 1.304 12.0747 1.176 12.48C1.176 12.544 1.15467 12.6187 1.112 12.704L1.016 12.576L0.952 12.192C0.952 11.2533 1.15467 10.2187 1.56 9.088C1.77333 8.49067 2.008 7.92533 2.264 7.392C2.54133 6.85867 2.85067 6.35733 3.192 5.888C4.32267 4.30933 5.63467 3.08267 7.128 2.208C8.64267 1.312 10.2 0.863998 11.8 0.863998C12.3547 0.863998 12.8453 0.917332 13.272 1.024C13.72 1.13066 14.008 1.216 14.136 1.28C14.264 1.32267 14.424 1.38667 14.616 1.472L15.736 1.312L16.792 1.248C18.136 1.248 19.1707 1.62133 19.896 2.368C20.6427 3.09333 21.016 4.128 21.016 5.472C21.016 6.368 20.8027 7.33867 20.376 8.384C19.9493 9.42933 19.096 10.9333 17.816 12.896L14.136 18.528C13.752 19.1467 13.4747 19.5947 13.304 19.872C13.048 20.2987 12.8347 20.704 12.664 21.088C12.344 21.728 12.1627 22.24 12.12 22.624C12.12 22.88 12.1947 23.104 12.344 23.296C12.4933 23.4027 12.7493 23.4773 13.112 23.52C14.1573 23.52 15.7253 22.496 17.816 20.448C19.928 18.3787 22.072 15.6587 24.248 12.288L31.096 1.664L33.784 1.504L22.968 18.4C22.392 19.296 21.9227 20.16 21.56 20.992C21.2187 21.824 21.048 22.3893 21.048 22.688C21.048 22.8587 21.112 23.0187 21.24 23.168C21.368 23.3173 21.5173 23.4027 21.688 23.424C22.136 23.424 22.616 23.2533 23.128 22.912C23.64 22.5707 24.3653 21.92 25.304 20.96L26.168 20C26.3173 19.8507 26.456 19.712 26.584 19.584C26.6267 19.5413 26.68 19.4987 26.744 19.456L26.872 19.52L26.936 19.616C26.9147 19.68 26.8827 19.7547 26.84 19.84C26.8187 19.904 26.7547 20 26.648 20.128L25.304 21.568C24.4933 22.4 23.7787 23.0293 23.16 23.456C22.5413 23.8613 21.9867 24.064 21.496 24.064C21.0053 24.064 20.632 23.872 20.376 23.488C20.12 23.0827 19.992 22.496 19.992 21.728C19.992 21.1307 20.0773 20.512 20.248 19.872C20.4187 19.232 20.728 18.432 21.176 17.472ZM22.433 31.968L30.817 16.672L28.257 19.424L27.809 19.872L27.521 20.032L27.393 20L27.329 19.904L29.537 17.408C31.0303 15.7227 32.385 13.8347 33.601 11.744L37.697 4.736L39.777 4.448L30.721 19.904C32.5557 17.92 33.8463 16.6187 34.593 16C35.425 15.296 36.0863 14.944 36.577 14.944C36.9183 14.944 37.217 15.0827 37.473 15.36C37.6863 15.68 37.793 16.064 37.793 16.512C37.793 17.3013 37.2597 18.4213 36.193 19.872L35.809 20.416L34.625 22.176C34.433 22.56 34.337 22.8693 34.337 23.104C34.337 23.296 34.369 23.4453 34.433 23.552C34.5183 23.6373 34.657 23.68 34.849 23.68C35.1263 23.68 35.5743 23.4347 36.193 22.944C36.833 22.4533 37.537 21.792 38.305 20.96L39.169 20C39.3397 19.8293 39.457 19.712 39.521 19.648C39.6063 19.5627 39.6917 19.4987 39.777 19.456L39.905 19.488L39.937 19.616C39.9157 19.7013 39.8837 19.776 39.841 19.84C39.7983 19.904 39.7343 19.9893 39.649 20.096L38.401 21.472C37.5477 22.368 36.8117 23.04 36.193 23.488C35.5743 23.936 35.1157 24.16 34.817 24.16C34.369 24.16 33.9957 23.9467 33.697 23.52C33.4197 23.0933 33.281 22.5493 33.281 21.888C33.281 21.4187 33.409 20.9067 33.665 20.352C33.9423 19.7973 34.497 18.9973 35.329 17.952L35.809 17.344C36.4277 16.5973 36.737 16.096 36.737 15.84C36.737 15.712 36.705 15.616 36.641 15.552C36.577 15.488 36.4917 15.456 36.385 15.456C35.8943 15.456 34.9023 16.2133 33.409 17.728C32.961 18.176 32.1183 19.392 30.881 21.376C29.665 23.36 28.4703 25.3333 27.297 27.296C25.9103 29.5573 24.9397 31.04 24.385 31.744L22.433 31.968ZM35.296 32.224L33.216 32.448L42.56 16.672L40 19.424L39.552 19.872L39.264 20.032L39.136 20L39.072 19.904L41.344 17.344C42.8587 15.6587 44.256 13.8133 45.536 11.808L45.984 10.816L47.904 10.656L42.464 19.904C44.2987 17.92 45.5893 16.6187 46.336 16C47.168 15.296 47.8293 14.944 48.32 14.944C48.6613 14.944 48.96 15.0827 49.216 15.36C49.4293 15.68 49.536 16.064 49.536 16.512C49.536 17.3013 49.0027 18.4213 47.936 19.872L47.552 20.416L46.368 22.176C46.176 22.56 46.08 22.8693 46.08 23.104C46.08 23.296 46.112 23.4453 46.176 23.552C46.2613 23.6373 46.4 23.68 46.592 23.68C46.8693 23.68 47.3173 23.4347 47.936 22.944C48.576 22.4533 49.28 21.792 50.048 20.96L50.912 20C51.0827 19.8293 51.2 19.712 51.264 19.648C51.3493 19.5627 51.4347 19.4987 51.52 19.456L51.648 19.488L51.68 19.616C51.6587 19.7013 51.6267 19.776 51.584 19.84C51.5413 19.904 51.4773 19.9893 51.392 20.096L50.144 21.472C49.2907 22.368 48.5547 23.04 47.936 23.488C47.3173 23.936 46.8587 24.16 46.56 24.16C46.112 24.16 45.7387 23.9467 45.44 23.52C45.1627 23.0933 45.024 22.5493 45.024 21.888C45.024 21.4187 45.152 20.9067 45.408 20.352C45.6853 19.7973 46.24 18.9973 47.072 17.952L47.552 17.344C48.1707 16.5973 48.48 16.096 48.48 15.84C48.48 15.712 48.448 15.616 48.384 15.552C48.32 15.488 48.2347 15.456 48.128 15.456C47.5093 15.456 46.3147 16.384 44.544 18.24C42.7733 20.0747 41.0987 22.3467 39.52 25.056L35.296 32.224ZM58.9745 21.216L58.9425 21.312C58.3665 22.1867 58.0785 22.784 58.0785 23.104C58.0785 23.296 58.1212 23.4453 58.2065 23.552C58.2918 23.6373 58.4198 23.68 58.5905 23.68C58.8892 23.68 59.2945 23.4667 59.8065 23.04C60.0838 22.8267 60.4038 22.5493 60.7665 22.208C61.1292 21.8667 61.5558 21.4507 62.0465 20.96L62.9105 20C63.0385 19.8507 63.1772 19.712 63.3265 19.584C63.3692 19.5413 63.4332 19.4987 63.5185 19.456L63.6465 19.488L63.7105 19.584C63.6892 19.648 63.6678 19.7013 63.6465 19.744C63.6465 19.7867 63.5932 19.8827 63.4865 20.032L62.4625 21.152C61.5665 22.112 60.7665 22.8587 60.0625 23.392C59.3798 23.904 58.8785 24.16 58.5585 24.16C58.1105 24.16 57.7478 23.968 57.4705 23.584C57.1932 23.2 57.0545 22.6667 57.0545 21.984L57.0865 21.6L57.1825 21.056C56.3718 22.0373 55.5932 22.8053 54.8465 23.36C54.0998 23.8933 53.4812 24.16 52.9905 24.16C52.4358 24.16 51.9985 23.9787 51.6785 23.616C51.3798 23.2533 51.2305 22.7627 51.2305 22.144C51.2305 21.8667 51.8598 20.544 53.1185 18.176C53.9505 16.6187 55.2412 14.304 56.9905 11.232C58.5052 8.58667 59.4972 6.912 59.9665 6.208L60.1905 5.856L58.3985 7.776C57.7585 8.50133 57.3852 8.864 57.2785 8.864L57.1185 8.768C57.1185 8.61867 57.4598 8.17067 58.1425 7.424L61.1825 4.128L63.4865 4L60.3185 8.96L60.0945 9.28C59.6678 9.96267 58.8678 11.3387 57.6945 13.408C56.6492 15.2427 55.4972 17.2907 54.2385 19.552C53.0012 21.8133 52.3825 22.9973 52.3825 23.104C52.3825 23.2747 52.4252 23.4133 52.5105 23.52C52.6172 23.6267 52.7452 23.68 52.8945 23.68C53.7265 23.68 54.8465 22.944 56.2545 21.472C56.8945 20.7893 57.5878 19.9147 58.3345 18.848C59.1025 17.7813 59.8812 16.5867 60.6705 15.264L62.8145 15.136L58.9745 21.216ZM58.5905 10.176C59.0598 10.112 59.5292 10.176 59.9985 10.368C60.4892 10.56 60.9478 10.7307 61.3745 10.88C61.9932 11.0293 62.6118 11.104 63.2305 11.104C64.2972 11.104 65.2998 10.6773 66.2385 9.824C66.6225 9.48267 67.0598 9.12 67.5505 8.736C67.6145 8.69333 67.6998 8.62933 67.8065 8.544L67.9025 8.64C67.8812 8.704 67.8598 8.768 67.8385 8.832C67.8172 8.87467 67.7532 8.96 67.6465 9.088L67.0065 9.728C66.6225 10.0907 66.2278 10.4107 65.8225 10.688C65.4385 10.9653 65.0545 11.2107 64.6705 11.424C63.9238 11.808 63.2518 12 62.6545 12C62.3132 12 61.7798 11.9147 61.0545 11.744C60.5852 11.5733 60.2225 11.4453 59.9665 11.36C59.4545 11.1893 58.9958 11.104 58.5905 11.104V10.176ZM67.1588 16.992L65.3348 18.944C64.6948 19.648 64.3214 20 64.2148 20L64.0868 19.904C64.0868 19.7973 64.4388 19.328 65.1428 18.496C65.3988 18.1973 65.8254 17.728 66.4228 17.088C66.8921 16.5973 67.4681 15.9893 68.1508 15.264L70.4548 15.104L67.2868 20.096C67.0734 20.4373 66.4654 21.5253 65.4628 23.36C64.5454 25.0453 63.6281 26.7307 62.7108 28.416C62.1988 29.3547 61.6868 30.304 61.1748 31.264C61.0681 31.4987 61.0041 31.6693 60.9828 31.776C60.9401 31.8827 60.9188 32 60.9188 32.128C60.9188 32.2987 60.9721 32.4373 61.0788 32.544C61.1854 32.672 61.3134 32.736 61.4628 32.736C61.8681 32.736 62.3481 32.5333 62.9028 32.128C63.1588 31.936 63.5001 31.6373 63.9268 31.232C64.3321 30.848 64.7588 30.4213 65.2068 29.952L65.9108 29.184C66.2948 28.7147 66.5508 28.48 66.6788 28.48L66.8068 28.512L66.8708 28.64C66.8494 28.704 66.8281 28.768 66.8068 28.832C66.7854 28.896 66.7214 28.9813 66.6148 29.088L65.3988 30.4C64.8228 30.976 64.3534 31.4347 63.9908 31.776C63.6068 32.1173 63.2654 32.3947 62.9668 32.608C62.4121 32.992 61.9214 33.184 61.4948 33.184C60.9828 33.184 60.5561 33.0027 60.2148 32.64C59.9161 32.2773 59.7668 31.7867 59.7668 31.168C59.7668 30.912 60.2788 29.76 61.3028 27.712C62.3054 25.664 63.2974 23.7333 64.2788 21.92C65.3881 19.8507 66.2201 18.4 66.7748 17.568L67.1588 16.992ZM67.15 31.968L75.534 16.672L72.974 19.424L72.526 19.872L72.238 20.032L72.11 20L72.046 19.904L74.254 17.408C75.7473 15.7227 77.102 13.8347 78.318 11.744L82.414 4.736L84.494 4.448L75.438 19.904C77.2727 17.92 78.5633 16.6187 79.31 16C80.142 15.296 80.8033 14.944 81.294 14.944C81.6353 14.944 81.934 15.0827 82.19 15.36C82.4033 15.68 82.51 16.064 82.51 16.512C82.51 17.3013 81.9767 18.4213 80.91 19.872L80.526 20.416L79.342 22.176C79.15 22.56 79.054 22.8693 79.054 23.104C79.054 23.296 79.086 23.4453 79.15 23.552C79.2353 23.6373 79.374 23.68 79.566 23.68C79.8433 23.68 80.2913 23.4347 80.91 22.944C81.55 22.4533 82.254 21.792 83.022 20.96L83.886 20C84.0567 19.8293 84.174 19.712 84.238 19.648C84.3233 19.5627 84.4087 19.4987 84.494 19.456L84.622 19.488L84.654 19.616C84.6327 19.7013 84.6007 19.776 84.558 19.84C84.5153 19.904 84.4513 19.9893 84.366 20.096L83.118 21.472C82.2647 22.368 81.5287 23.04 80.91 23.488C80.2913 23.936 79.8327 24.16 79.534 24.16C79.086 24.16 78.7127 23.9467 78.414 23.52C78.1367 23.0933 77.998 22.5493 77.998 21.888C77.998 21.4187 78.126 20.9067 78.382 20.352C78.6593 19.7973 79.214 18.9973 80.046 17.952L80.526 17.344C81.1447 16.5973 81.454 16.096 81.454 15.84C81.454 15.712 81.422 15.616 81.358 15.552C81.294 15.488 81.2087 15.456 81.102 15.456C80.6113 15.456 79.6193 16.2133 78.126 17.728C77.678 18.176 76.8353 19.392 75.598 21.376C74.382 23.36 73.1873 25.3333 72.014 27.296C70.6273 29.5573 69.6567 31.04 69.102 31.744L67.15 31.968ZM90.285 7.84C90.221 8.20267 90.0077 8.608 89.645 9.056C89.4957 9.248 89.3037 9.45067 89.069 9.664C88.8343 9.87733 88.5677 10.0907 88.269 10.304L86.221 11.648C85.581 11.9893 85.1863 12.1493 85.037 12.128C84.909 12.0853 84.8237 12.0427 84.781 12L84.749 11.808L85.997 10.976C86.4237 10.7413 86.7543 10.5173 86.989 10.304C87.245 10.0693 87.4583 9.80267 87.629 9.504C87.7357 9.312 87.8743 8.928 88.045 8.352C88.4077 7.17867 88.8877 6.656 89.485 6.784C89.7837 6.82667 89.9863 6.93333 90.093 7.104C90.221 7.25333 90.285 7.49867 90.285 7.84ZM95.0587 24.032L99.6667 16.672L97.1067 19.424L96.6587 19.872L96.3707 20.032L96.2427 20L96.1787 19.904L98.3867 17.408C99.8801 15.7227 101.235 13.8347 102.451 11.744L106.547 4.736L108.627 4.448L99.5707 19.904C101.405 17.92 102.696 16.6187 103.443 16C104.275 15.296 104.936 14.944 105.427 14.944C105.768 14.944 106.067 15.0827 106.323 15.36C106.536 15.68 106.643 16.064 106.643 16.512C106.643 17.3013 106.109 18.4213 105.043 19.872L104.659 20.416L103.475 22.176C103.283 22.56 103.187 22.8693 103.187 23.104C103.187 23.296 103.219 23.4453 103.283 23.552C103.368 23.6373 103.507 23.68 103.699 23.68C103.976 23.68 104.424 23.4347 105.043 22.944C105.683 22.4533 106.387 21.792 107.155 20.96L108.019 20C108.189 19.8293 108.307 19.712 108.371 19.648C108.456 19.5627 108.541 19.4987 108.627 19.456L108.755 19.488L108.787 19.616C108.765 19.7013 108.733 19.776 108.691 19.84C108.648 19.904 108.584 19.9893 108.499 20.096L107.251 21.472C106.397 22.368 105.661 23.04 105.043 23.488C104.424 23.936 103.965 24.16 103.667 24.16C103.219 24.16 102.845 23.9467 102.547 23.52C102.269 23.0933 102.131 22.5493 102.131 21.888C102.131 21.4187 102.259 20.9067 102.515 20.352C102.792 19.7973 103.347 18.9973 104.179 17.952L104.659 17.344C105.277 16.5973 105.587 16.096 105.587 15.84C105.587 15.712 105.555 15.616 105.491 15.552C105.427 15.488 105.341 15.456 105.235 15.456C104.744 15.456 103.763 16.2027 102.291 17.696C100.819 19.168 99.0587 21.2053 97.0107 23.808L95.0587 24.032ZM112.849 16.32L110.673 18.688C109.948 19.5413 109.5 19.9893 109.329 20.032L109.233 20L109.169 19.904L109.329 19.552L109.905 18.848L113.041 15.264L115.313 15.104L113.105 19.648L110.801 24.064C112.124 23.168 113.308 22.176 114.353 21.088L115.953 19.456L116.081 19.488L116.145 19.584C116.145 19.84 115.569 20.5333 114.417 21.664C113.265 22.7733 111.921 23.8187 110.385 24.8C108.849 27.7227 107.356 30.0053 105.905 31.648C104.455 33.2907 103.175 34.112 102.065 34.112C101.532 34.112 101.127 33.9733 100.849 33.696C100.572 33.4187 100.433 33.024 100.433 32.512C100.433 31.488 101.095 30.368 102.417 29.152C103.719 27.936 105.905 26.4213 108.977 24.608L112.849 16.32ZM108.593 25.28C106.311 26.6027 104.519 27.904 103.217 29.184C101.916 30.4853 101.265 31.616 101.265 32.576C101.265 32.8747 101.34 33.1413 101.489 33.376C101.66 33.568 101.895 33.664 102.193 33.664C102.961 33.664 103.857 33.0027 104.881 31.68C105.905 30.3787 107.143 28.2453 108.593 25.28ZM115.397 24.032L119.557 17.792L119.749 17.504C120.303 16.6933 120.581 16.1493 120.581 15.872C120.581 15.744 120.538 15.648 120.453 15.584C120.389 15.4987 120.282 15.456 120.133 15.456C119.834 15.456 119.386 15.6693 118.789 16.096C118.341 16.48 117.541 17.2693 116.389 18.464L115.621 19.36C115.258 19.7653 115.013 19.9893 114.885 20.032L114.789 20L114.725 19.904L114.885 19.552L115.461 18.848L116.485 17.728C117.53 16.6187 118.309 15.8827 118.821 15.52C119.333 15.136 119.813 14.944 120.261 14.944C120.623 14.944 120.922 15.0827 121.157 15.36C121.391 15.6373 121.509 16 121.509 16.448C121.509 16.96 121.402 17.472 121.189 17.984C120.975 18.6027 120.655 19.2427 120.229 19.904C121.957 17.984 123.205 16.704 123.973 16.064C124.826 15.3387 125.519 14.976 126.053 14.976C126.394 14.976 126.693 15.1147 126.949 15.392C127.162 15.712 127.269 16.0853 127.269 16.512C127.269 17.344 126.735 18.464 125.669 19.872L125.285 20.416L124.101 22.176C123.909 22.56 123.813 22.8693 123.813 23.104C123.813 23.296 123.845 23.4453 123.909 23.552C123.994 23.6373 124.133 23.68 124.325 23.68C124.581 23.68 125.018 23.4453 125.637 22.976C126.255 22.5067 126.97 21.8347 127.781 20.96L128.645 20C128.815 19.8293 128.933 19.712 128.997 19.648C129.082 19.5627 129.167 19.4987 129.253 19.456L129.381 19.52L129.445 19.616C129.445 19.7867 128.986 20.3413 128.069 21.28L127.877 21.472C127.77 21.5787 127.461 21.8773 126.949 22.368C126.437 22.8587 125.999 23.232 125.637 23.488C125.061 23.936 124.613 24.16 124.293 24.16C123.845 24.16 123.471 23.9467 123.173 23.52C122.895 23.0933 122.757 22.5493 122.757 21.888C122.757 21.4187 122.885 20.9067 123.141 20.352C123.418 19.7973 123.973 18.9973 124.805 17.952L125.285 17.344C125.903 16.5973 126.213 16.096 126.213 15.84C126.213 15.6907 126.191 15.5947 126.149 15.552L125.861 15.488C125.349 15.488 124.357 16.224 122.885 17.696C121.434 19.168 119.685 21.2053 117.637 23.808L115.397 24.032ZM131.632 16.992L129.808 18.944C129.168 19.648 128.795 20 128.688 20L128.56 19.904C128.56 19.7973 128.912 19.328 129.616 18.496C129.872 18.1973 130.299 17.728 130.896 17.088C131.366 16.5973 131.942 15.9893 132.624 15.264L134.928 15.104L131.76 20.096L130.448 22.24C130.342 22.4747 130.267 22.6453 130.224 22.752C130.203 22.8587 130.192 22.976 130.192 23.104C130.192 23.2747 130.246 23.424 130.352 23.552C130.459 23.6587 130.587 23.712 130.736 23.712C131.142 23.712 131.622 23.5093 132.176 23.104C132.432 22.912 132.763 22.624 133.168 22.24C133.595 21.8347 134.032 21.3973 134.48 20.928L135.184 20.16C135.568 19.6907 135.824 19.456 135.952 19.456L136.08 19.488L136.144 19.616C136.123 19.68 136.102 19.744 136.08 19.808C136.059 19.872 135.995 19.9573 135.888 20.064L134.672 21.376C134.096 21.952 133.616 22.4107 133.232 22.752C132.87 23.0933 132.539 23.3707 132.24 23.584C131.686 23.968 131.195 24.16 130.768 24.16C130.256 24.16 129.83 23.9787 129.488 23.616C129.19 23.2533 129.04 22.7627 129.04 22.144C129.04 21.3333 129.776 19.808 131.248 17.568L131.632 16.992ZM131.464 32.224L129.384 32.448L138.728 16.672L136.168 19.424L135.72 19.872L135.432 20.032L135.304 20L135.24 19.904L137.512 17.344C139.026 15.6587 140.424 13.8133 141.704 11.808L142.152 10.816L144.072 10.656L138.632 19.904C140.466 17.92 141.757 16.6187 142.504 16C143.336 15.296 143.997 14.944 144.488 14.944C144.829 14.944 145.128 15.0827 145.384 15.36C145.597 15.68 145.704 16.064 145.704 16.512C145.704 17.3013 145.17 18.4213 144.104 19.872L143.72 20.416L142.536 22.176C142.344 22.56 142.248 22.8693 142.248 23.104C142.248 23.296 142.28 23.4453 142.344 23.552C142.429 23.6373 142.568 23.68 142.76 23.68C143.037 23.68 143.485 23.4347 144.104 22.944C144.744 22.4533 145.448 21.792 146.216 20.96L147.08 20C147.25 19.8293 147.368 19.712 147.432 19.648C147.517 19.5627 147.602 19.4987 147.688 19.456L147.816 19.488L147.848 19.616C147.826 19.7013 147.794 19.776 147.752 19.84C147.709 19.904 147.645 19.9893 147.56 20.096L146.312 21.472C145.458 22.368 144.722 23.04 144.104 23.488C143.485 23.936 143.026 24.16 142.728 24.16C142.28 24.16 141.906 23.9467 141.608 23.52C141.33 23.0933 141.192 22.5493 141.192 21.888C141.192 21.4187 141.32 20.9067 141.576 20.352C141.853 19.7973 142.408 18.9973 143.24 17.952L143.72 17.344C144.338 16.5973 144.648 16.096 144.648 15.84C144.648 15.712 144.616 15.616 144.552 15.552C144.488 15.488 144.402 15.456 144.296 15.456C143.677 15.456 142.482 16.384 140.712 18.24C138.941 20.0747 137.266 22.3467 135.688 25.056L131.464 32.224ZM155.142 21.216L155.11 21.312C154.534 22.1867 154.246 22.784 154.246 23.104C154.246 23.296 154.289 23.4453 154.374 23.552C154.459 23.6373 154.587 23.68 154.758 23.68C155.057 23.68 155.462 23.4667 155.974 23.04C156.251 22.8267 156.571 22.5493 156.934 22.208C157.297 21.8667 157.723 21.4507 158.214 20.96L159.078 20C159.206 19.8507 159.345 19.712 159.494 19.584C159.537 19.5413 159.601 19.4987 159.686 19.456L159.814 19.488L159.878 19.584C159.857 19.648 159.835 19.7013 159.814 19.744C159.814 19.7867 159.761 19.8827 159.654 20.032L158.63 21.152C157.734 22.112 156.934 22.8587 156.23 23.392C155.547 23.904 155.046 24.16 154.726 24.16C154.278 24.16 153.915 23.968 153.638 23.584C153.361 23.2 153.222 22.6667 153.222 21.984L153.254 21.6L153.35 21.056C152.539 22.0373 151.761 22.8053 151.014 23.36C150.267 23.8933 149.649 24.16 149.158 24.16C148.603 24.16 148.166 23.9787 147.846 23.616C147.547 23.2533 147.398 22.7627 147.398 22.144C147.398 21.8667 148.027 20.544 149.286 18.176C150.118 16.6187 151.409 14.304 153.158 11.232C154.673 8.58667 155.665 6.912 156.134 6.208L156.358 5.856L154.566 7.776C153.926 8.50133 153.553 8.864 153.446 8.864L153.286 8.768C153.286 8.61867 153.627 8.17067 154.31 7.424L157.35 4.128L159.654 4L156.486 8.96L156.262 9.28C155.835 9.96267 155.035 11.3387 153.862 13.408C152.817 15.2427 151.665 17.2907 150.406 19.552C149.169 21.8133 148.55 22.9973 148.55 23.104C148.55 23.2747 148.593 23.4133 148.678 23.52C148.785 23.6267 148.913 23.68 149.062 23.68C149.894 23.68 151.014 22.944 152.422 21.472C153.062 20.7893 153.755 19.9147 154.502 18.848C155.27 17.7813 156.049 16.5867 156.838 15.264L158.982 15.136L155.142 21.216ZM154.758 10.176C155.227 10.112 155.697 10.176 156.166 10.368C156.657 10.56 157.115 10.7307 157.542 10.88C158.161 11.0293 158.779 11.104 159.398 11.104C160.465 11.104 161.467 10.6773 162.406 9.824C162.79 9.48267 163.227 9.12 163.718 8.736C163.782 8.69333 163.867 8.62933 163.974 8.544L164.07 8.64C164.049 8.704 164.027 8.768 164.006 8.832C163.985 8.87467 163.921 8.96 163.814 9.088L163.174 9.728C162.79 10.0907 162.395 10.4107 161.99 10.688C161.606 10.9653 161.222 11.2107 160.838 11.424C160.091 11.808 159.419 12 158.822 12C158.481 12 157.947 11.9147 157.222 11.744C156.753 11.5733 156.39 11.4453 156.134 11.36C155.622 11.1893 155.163 11.104 154.758 11.104V10.176ZM156.478 32.224L154.398 32.448L163.742 16.672L161.182 19.424L160.734 19.872L160.446 20.032L160.318 20L160.254 19.904L162.526 17.344C164.041 15.6587 165.438 13.8133 166.718 11.808L167.166 10.816L169.086 10.656L163.646 19.904C165.481 17.92 166.772 16.6187 167.518 16C168.35 15.296 169.012 14.944 169.502 14.944C169.844 14.944 170.142 15.0827 170.398 15.36C170.612 15.68 170.718 16.064 170.718 16.512C170.718 17.3013 170.185 18.4213 169.118 19.872L168.734 20.416L167.55 22.176C167.358 22.56 167.262 22.8693 167.262 23.104C167.262 23.296 167.294 23.4453 167.358 23.552C167.444 23.6373 167.582 23.68 167.774 23.68C168.052 23.68 168.5 23.4347 169.118 22.944C169.758 22.4533 170.462 21.792 171.23 20.96L172.094 20C172.265 19.8293 172.382 19.712 172.446 19.648C172.532 19.5627 172.617 19.4987 172.702 19.456L172.83 19.488L172.862 19.616C172.841 19.7013 172.809 19.776 172.766 19.84C172.724 19.904 172.66 19.9893 172.574 20.096L171.326 21.472C170.473 22.368 169.737 23.04 169.118 23.488C168.5 23.936 168.041 24.16 167.742 24.16C167.294 24.16 166.921 23.9467 166.622 23.52C166.345 23.0933 166.206 22.5493 166.206 21.888C166.206 21.4187 166.334 20.9067 166.59 20.352C166.868 19.7973 167.422 18.9973 168.254 17.952L168.734 17.344C169.353 16.5973 169.662 16.096 169.662 15.84C169.662 15.712 169.63 15.616 169.566 15.552C169.502 15.488 169.417 15.456 169.31 15.456C168.692 15.456 167.497 16.384 165.726 18.24C163.956 20.0747 162.281 22.3467 160.702 25.056L156.478 32.224Z" fill="#DADDC2"></path></svg> 