<?xml version="1.0" encoding="UTF-8"?> <svg xmlns="http://www.w3.org/2000/svg" width="109" height="35" viewBox="0 0 109 35" fill="none"><path d="M13.736 2.336C12.5413 2.592 11.4 2.98667 10.312 3.52C9.24533 4.032 8.232 4.704 7.272 5.536C6.03467 6.624 5.07467 7.744 4.392 8.896C3.70933 10.048 3.368 11.136 3.368 12.16C3.368 13.0987 3.63467 13.8347 4.168 14.368C4.70133 14.9013 5.42667 15.168 6.344 15.168C7.176 15.168 8.05067 14.912 8.968 14.4C9.90667 13.8667 10.8347 13.0773 11.752 12.032C12.6907 10.9867 13.4267 9.856 13.96 8.64C14.5147 7.40267 14.792 6.19733 14.792 5.024C14.792 4.46933 14.7067 3.968 14.536 3.52C14.3653 3.072 14.0987 2.67733 13.736 2.336ZM28.616 8.704C25.6293 9.45067 23.112 10.816 21.064 12.8C19.0373 14.7627 18.024 16.736 18.024 18.72C18.024 19.616 18.2693 20.3413 18.76 20.896C19.272 21.408 19.976 21.664 20.872 21.664C21.7467 21.664 22.6853 21.3867 23.688 20.832C24.6907 20.256 25.6613 19.4453 26.6 18.4C27.5387 17.3547 28.264 16.256 28.776 15.104C29.288 13.9307 29.544 12.768 29.544 11.616C29.544 11.0827 29.4587 10.5813 29.288 10.112C29.1387 9.62133 29.0533 9.36533 29.032 9.344C28.9253 9.10933 28.7867 8.896 28.616 8.704ZM28.616 8.096C28.36 7.49867 28.1253 7.008 27.912 6.624C27.6987 6.24 27.4107 5.83467 27.048 5.408C26.7067 4.96 26.312 4.544 25.864 4.16C25.4373 3.75467 24.904 3.36 24.264 2.976C23.0693 3.936 21.4587 6.29333 19.432 10.048C18.216 12.3307 17.2453 14.0693 16.52 15.264C14.7707 18.1013 12.8187 20.2987 10.664 21.856C8.50933 23.4133 6.36533 24.192 4.232 24.192C3.05867 24.192 2.09867 23.936 1.352 23.424C0.626667 22.8907 0.264 22.24 0.264 21.472C0.264 20.96 0.402667 20.5333 0.68 20.192C0.978667 19.8293 1.34133 19.648 1.768 19.648C2.13067 19.648 2.44 19.7867 2.696 20.064C2.97333 20.32 3.112 20.64 3.112 21.024C3.112 21.152 3.048 21.3867 2.92 21.728C2.792 22.0693 2.728 22.3147 2.728 22.464C2.728 22.784 2.93067 23.072 3.336 23.328C3.74133 23.5627 4.24267 23.68 4.84 23.68C6.48267 23.68 8.072 22.944 9.608 21.472C11.144 20 12.9573 17.3547 15.048 13.536C15.9227 11.9787 16.712 10.656 17.416 9.568C18.12 8.45867 18.8027 7.50933 19.464 6.72C20.7227 5.22667 22.1733 3.88267 23.816 2.688C23.2187 2.432 22.472 2.19733 21.576 1.984C21.1493 1.92 20.7227 1.86667 20.296 1.824C19.8907 1.78133 19.464 1.76 19.016 1.76C18.632 1.76 18.312 1.76 18.056 1.76C17.8 1.76 17.384 1.80267 16.808 1.888C16.104 1.952 15.6667 1.99467 15.496 2.016C15.3467 2.03733 15.0693 2.09067 14.664 2.176C14.8773 2.41067 15.0587 2.66667 15.208 2.944C15.3787 3.2 15.528 3.49867 15.656 3.84C15.8693 4.416 15.976 5.12 15.976 5.952C15.976 7.232 15.7093 8.49067 15.176 9.728C14.664 10.944 13.928 12.0427 12.968 13.024C12.1147 13.8987 11.0907 14.624 9.896 15.2C8.70133 15.776 7.592 16.064 6.568 16.064C5.39467 16.064 4.47733 15.744 3.816 15.104C3.15467 14.4427 2.824 13.5253 2.824 12.352C2.824 11.264 3.208 10.0693 3.976 8.768C4.744 7.44533 5.77867 6.24 7.08 5.152C7.44267 4.87466 7.79467 4.608 8.136 4.352C8.79733 3.88267 9.43733 3.488 10.056 3.168C11.1227 2.63467 12.2213 2.22933 13.352 1.952C12.7973 1.61067 12.2533 1.36533 11.72 1.216C11.1867 1.04533 10.6 0.959999 9.96 0.959999C8.488 0.959999 7.06933 1.35467 5.704 2.144C4.33867 2.912 3.144 4 2.12 5.408C1.736 5.94133 1.36267 6.58133 1 7.328C0.893333 7.56267 0.765333 7.808 0.616 8.064C0.573334 8.128 0.52 8.21333 0.456 8.32L0.36 8.288L0.328 8.096C0.328 7.81867 0.477333 7.34933 0.776 6.688C1.096 6.02667 1.52267 5.36533 2.056 4.704C3.10133 3.38133 4.328 2.34667 5.736 1.6C7.144 0.853333 8.59467 0.48 10.088 0.48C10.7493 0.48 11.4747 0.586666 12.264 0.799999C12.9253 1.01333 13.5547 1.344 14.152 1.792L16.68 1.408L18.984 1.28C19.9867 1.28 20.904 1.35467 21.736 1.504C22.2053 1.58933 22.6427 1.68533 23.048 1.792C23.4747 1.87733 23.944 2.016 24.456 2.208L24.904 1.92C25.5227 1.536 25.9493 1.32267 26.184 1.28L26.312 1.344L26.376 1.408C26.3333 1.472 26.28 1.536 26.216 1.6C26.1733 1.64267 26.056 1.728 25.864 1.856L24.968 2.432C25.48 2.77333 26.0027 3.104 26.536 3.424C27.048 3.808 27.5493 4.34133 28.04 5.024C28.36 5.49333 28.6587 5.97333 28.936 6.464C29.2133 6.93333 29.416 7.37067 29.544 7.776C29.7573 7.73333 29.896 7.712 29.96 7.712C30.3227 7.73333 30.696 7.75467 31.08 7.776L33.064 7.648C32.7867 7.88267 32.4453 8.032 32.04 8.096C31.656 8.13867 31.3253 8.17067 31.048 8.192C30.792 8.21333 30.568 8.23467 30.376 8.256C30.184 8.256 29.9493 8.27733 29.672 8.32C29.8213 8.576 29.9387 8.896 30.024 9.28C30.1307 9.664 30.2267 9.99467 30.312 10.272C30.3973 10.5493 30.472 10.8587 30.536 11.2C30.6 11.5413 30.632 11.936 30.632 12.384C30.632 13.024 30.568 13.6533 30.44 14.272C30.312 14.8907 30.0987 15.52 29.8 16.16C29.288 17.3973 28.552 18.5173 27.592 19.52C26.76 20.3947 25.7467 21.0987 24.552 21.632C23.3787 22.1653 22.312 22.432 21.352 22.432C20.136 22.432 19.1867 22.112 18.504 21.472C17.8213 20.7893 17.48 19.872 17.48 18.72C17.48 16.7573 18.504 14.752 20.552 12.704C21.5333 11.7227 22.7493 10.8267 24.2 10.016C25.672 9.184 27.144 8.544 28.616 8.096ZM48.9767 14.752L44.7847 20.992L44.6567 21.184C44.0594 22.0587 43.7607 22.6347 43.7607 22.912C43.7607 23.04 43.7927 23.1467 43.8567 23.232C43.9421 23.296 44.0594 23.328 44.2087 23.328C44.5074 23.328 44.9554 23.1147 45.5527 22.688C46.0008 22.304 46.8008 21.5147 47.9527 20.32L48.7207 19.424C49.0834 19.0187 49.3287 18.7947 49.4567 18.752L49.5527 18.784L49.6167 18.88L49.4567 19.232L48.8808 19.936L47.8568 21.056C46.8114 22.1653 46.0327 22.912 45.5207 23.296C45.0087 23.6587 44.5287 23.84 44.0807 23.84C43.7181 23.84 43.4194 23.7013 43.1847 23.424C42.9501 23.1467 42.8327 22.784 42.8327 22.336C42.8327 21.824 42.9394 21.312 43.1527 20.8C43.3661 20.1813 43.6861 19.5413 44.1127 18.88C42.7047 20.672 41.5634 21.952 40.6887 22.72C39.8354 23.4667 39.1207 23.84 38.5447 23.84C38.1821 23.84 37.8727 23.712 37.6167 23.456C37.3821 23.1787 37.2647 22.8587 37.2647 22.496C37.2647 22.0053 37.3714 21.4507 37.5847 20.832C37.8194 20.192 38.1607 19.5627 38.6087 18.944C36.8807 20.8853 35.6221 22.1867 34.8327 22.848C34.0647 23.5093 33.4461 23.84 32.9767 23.84C32.6354 23.84 32.3367 23.7013 32.0807 23.424C31.8674 23.104 31.7607 22.72 31.7607 22.272C31.7607 21.4827 32.2941 20.3627 33.3607 18.912L33.7447 18.368L34.9287 16.608C35.1207 16.224 35.2167 15.9147 35.2167 15.68C35.2167 15.488 35.1741 15.3493 35.0887 15.264C35.0247 15.1573 34.8967 15.104 34.7047 15.104C34.4487 15.104 34.0007 15.3493 33.3607 15.84C32.7207 16.3307 32.0167 16.992 31.2487 17.824L30.3847 18.784C30.2141 18.9547 30.0861 19.0827 30.0007 19.168C29.9367 19.232 29.8621 19.2853 29.7767 19.328L29.6487 19.264L29.5847 19.168C29.5847 18.9973 30.0434 18.4427 30.9607 17.504L31.1527 17.312C31.7287 16.736 32.1341 16.3413 32.3687 16.128C32.7314 15.808 33.0727 15.5307 33.3927 15.296C33.9687 14.848 34.4167 14.624 34.7367 14.624C35.1847 14.624 35.5474 14.8373 35.8247 15.264C36.1234 15.6907 36.2727 16.2347 36.2727 16.896C36.2727 17.3653 36.1341 17.8773 35.8567 18.432C35.6007 18.9867 35.0567 19.7867 34.2247 20.832L33.7447 21.44C33.1261 22.1867 32.8167 22.688 32.8167 22.944C32.8167 23.072 32.8594 23.168 32.9447 23.232C33.0301 23.296 33.1047 23.328 33.1687 23.328C33.6381 23.328 34.5874 22.5707 36.0167 21.056C37.4674 19.52 39.1741 17.4933 41.1367 14.976L43.3767 14.752L39.2167 20.992L38.4167 22.304C38.2887 22.56 38.2247 22.7733 38.2247 22.944C38.2247 23.072 38.2567 23.168 38.3207 23.232C38.3847 23.296 38.5021 23.328 38.6727 23.328C39.5047 23.328 41.8727 20.928 45.7767 16.128L46.7048 14.976L48.9767 14.752ZM53.2508 16.32L51.0748 18.688C50.3494 19.5413 49.9014 19.9893 49.7308 20.032L49.6348 20L49.5708 19.904L49.7308 19.552L50.3068 18.848L53.4428 15.264L55.7148 15.104L53.5068 19.648L51.2028 24.064C52.5254 23.168 53.7094 22.176 54.7548 21.088L56.3548 19.456L56.4828 19.488L56.5468 19.584C56.5468 19.84 55.9708 20.5333 54.8188 21.664C53.6668 22.7733 52.3228 23.8187 50.7868 24.8C49.2508 27.7227 47.7574 30.0053 46.3068 31.648C44.8561 33.2907 43.5761 34.112 42.4668 34.112C41.9334 34.112 41.5281 33.9733 41.2508 33.696C40.9734 33.4187 40.8348 33.024 40.8348 32.512C40.8348 31.488 41.4961 30.368 42.8188 29.152C44.1201 27.936 46.3068 26.4213 49.3788 24.608L53.2508 16.32ZM48.9948 25.28C46.7121 26.6027 44.9201 27.904 43.6188 29.184C42.3174 30.4853 41.6668 31.616 41.6668 32.576C41.6668 32.8747 41.7414 33.1413 41.8908 33.376C42.0614 33.568 42.2961 33.664 42.5948 33.664C43.3628 33.664 44.2588 33.0027 45.2828 31.68C46.3068 30.3787 47.5441 28.2453 48.9948 25.28ZM70.4543 8.48C69.8783 9.99467 69.0889 11.936 68.0863 14.304C66.6783 17.6107 65.6329 19.8293 64.9503 20.96C64.2676 22.0693 63.4463 22.8907 62.4863 23.424C61.6116 23.8933 60.5556 24.128 59.3183 24.128C58.8063 24.128 58.3903 23.9253 58.0703 23.52C57.7716 23.1147 57.6223 22.592 57.6223 21.952C57.6223 21.0773 58.1236 19.9467 59.1263 18.56L59.3503 18.272C59.6276 17.8667 59.8196 17.5787 59.9263 17.408C60.1396 17.088 60.2783 16.864 60.3423 16.736C60.4063 16.5867 60.4703 16.416 60.5343 16.224C60.5983 16.032 60.6303 15.8933 60.6303 15.808C60.6303 15.7013 60.5983 15.616 60.5343 15.552C60.4703 15.488 60.3636 15.456 60.2143 15.456C59.8943 15.456 59.4356 15.6907 58.8383 16.16C58.5396 16.416 58.2089 16.7147 57.8463 17.056C57.4836 17.3973 57.0249 17.8773 56.4703 18.496L55.7983 19.296C55.3503 19.7867 55.0729 20.032 54.9663 20.032L54.8703 20L54.8063 19.904L54.9663 19.552L55.5423 18.848L56.5663 17.728C57.1423 17.1093 57.6116 16.6293 57.9743 16.288C58.3583 15.9253 58.6783 15.6587 58.9343 15.488C59.4676 15.1253 59.9583 14.944 60.4063 14.944C60.7903 14.944 61.1316 15.0933 61.4303 15.392C61.6863 15.712 61.8143 16.1173 61.8143 16.608C61.8143 16.9707 61.7289 17.376 61.5583 17.824C61.3876 18.2507 61.0569 18.848 60.5663 19.616L60.3423 19.968C59.2756 21.5893 58.7423 22.56 58.7423 22.88C58.7423 23.1147 58.8063 23.3067 58.9343 23.456C59.0623 23.6053 59.2649 23.68 59.5423 23.68C60.0116 23.68 60.6943 23.3067 61.5903 22.56C62.4863 21.8133 63.1369 21.0987 63.5423 20.416C64.0329 19.6053 64.8116 17.9413 65.8783 15.424C66.8596 13.12 67.4783 11.552 67.7343 10.72C67.7769 10.592 68.0009 10.016 68.4063 8.992C68.8329 7.968 69.1103 7.30667 69.2383 7.008C69.5156 6.32533 69.8676 5.67467 70.2943 5.056C70.8276 4.26667 71.3076 3.776 71.7343 3.584C71.9263 3.49867 72.1396 3.424 72.3743 3.36C72.6089 3.296 72.8329 3.264 73.0463 3.264C73.4089 3.264 73.7289 3.37067 74.0063 3.584C74.2836 3.776 74.4756 4.04267 74.5823 4.384L74.6463 4.768C74.7103 5.28 74.8916 5.536 75.1903 5.536C75.3823 5.536 75.6596 5.408 76.0223 5.152C76.2143 5.00267 76.3956 4.84267 76.5663 4.672C76.7369 4.50133 76.9396 4.27733 77.1743 4L77.6863 3.392C77.7929 3.24267 77.9103 3.104 78.0383 2.976C78.0809 2.93333 78.1343 2.89067 78.1983 2.848L78.2623 2.944L78.2943 3.072C78.2516 3.264 78.2089 3.392 78.1663 3.456L77.4943 4.256C76.7476 5.088 76.1503 5.65333 75.7023 5.952C75.2543 6.22933 74.7956 6.368 74.3263 6.368C73.9849 6.368 73.6969 6.304 73.4623 6.176C73.2489 6.02667 73.0783 5.80267 72.9503 5.504L72.8543 4.768C72.8543 4.29867 72.6836 4.064 72.3423 4.064C72.0436 4.14933 71.6916 4.78933 71.2863 5.984C70.7316 7.62667 70.4543 8.45867 70.4543 8.48ZM66.1895 31.968L74.5735 16.672L72.0135 19.424L71.5655 19.872L71.2775 20.032L71.1495 20L71.0855 19.904L73.2935 17.408C74.7868 15.7227 76.1415 13.8347 77.3575 11.744L81.4535 4.736L83.5335 4.448L74.4775 19.904C76.3122 17.92 77.6028 16.6187 78.3495 16C79.1815 15.296 79.8428 14.944 80.3335 14.944C80.6748 14.944 80.9735 15.0827 81.2295 15.36C81.4428 15.68 81.5495 16.064 81.5495 16.512C81.5495 17.3013 81.0162 18.4213 79.9495 19.872L79.5655 20.416L78.3815 22.176C78.1895 22.56 78.0935 22.8693 78.0935 23.104C78.0935 23.296 78.1255 23.4453 78.1895 23.552C78.2748 23.6373 78.4135 23.68 78.6055 23.68C78.8828 23.68 79.3308 23.4347 79.9495 22.944C80.5895 22.4533 81.2935 21.792 82.0615 20.96L82.9255 20C83.0962 19.8293 83.2135 19.712 83.2775 19.648C83.3628 19.5627 83.4482 19.4987 83.5335 19.456L83.6615 19.488L83.6935 19.616C83.6722 19.7013 83.6402 19.776 83.5975 19.84C83.5548 19.904 83.4908 19.9893 83.4055 20.096L82.1575 21.472C81.3042 22.368 80.5682 23.04 79.9495 23.488C79.3308 23.936 78.8722 24.16 78.5735 24.16C78.1255 24.16 77.7522 23.9467 77.4535 23.52C77.1762 23.0933 77.0375 22.5493 77.0375 21.888C77.0375 21.4187 77.1655 20.9067 77.4215 20.352C77.6988 19.7973 78.2535 18.9973 79.0855 17.952L79.5655 17.344C80.1842 16.5973 80.4935 16.096 80.4935 15.84C80.4935 15.712 80.4615 15.616 80.3975 15.552C80.3335 15.488 80.2482 15.456 80.1415 15.456C79.6508 15.456 78.6588 16.2133 77.1655 17.728C76.7175 18.176 75.8748 19.392 74.6375 21.376C73.4215 23.36 72.2268 25.3333 71.0535 27.296C69.6668 29.5573 68.6962 31.04 68.1415 31.744L66.1895 31.968ZM88.3005 5.376V4.512H94.7965L91.6285 9.472L91.4045 9.792C91.0632 10.3253 90.3272 11.6587 89.1965 13.792C87.8738 16.2453 86.8178 18.2507 86.0285 19.808C84.9618 21.8773 84.4285 22.976 84.4285 23.104C84.4285 23.2747 84.4712 23.4133 84.5565 23.52C84.6632 23.6267 84.7912 23.68 84.9405 23.68C85.7725 23.68 86.8925 22.944 88.3005 21.472C88.9405 20.7893 89.6338 19.9147 90.3805 18.848C91.1485 17.7813 91.9272 16.5867 92.7165 15.264L94.8605 15.136L91.0205 21.216L90.9885 21.312C90.4125 22.1867 90.1245 22.784 90.1245 23.104C90.1245 23.296 90.1672 23.4453 90.2525 23.552C90.3378 23.6373 90.4658 23.68 90.6365 23.68C90.9352 23.68 91.3405 23.4667 91.8525 23.04C92.1298 22.8267 92.4498 22.5493 92.8125 22.208C93.1752 21.8667 93.6018 21.4507 94.0925 20.96L94.9565 20C95.0845 19.8507 95.2232 19.712 95.3725 19.584C95.4152 19.5413 95.4792 19.4987 95.5645 19.456L95.6925 19.488L95.7565 19.584C95.7352 19.648 95.7138 19.7013 95.6925 19.744C95.6925 19.7867 95.6392 19.8827 95.5325 20.032L94.5085 21.152C93.6125 22.112 92.8125 22.8587 92.1085 23.392C91.4258 23.904 90.9245 24.16 90.6045 24.16C90.1565 24.16 89.7938 23.968 89.5165 23.584C89.2392 23.2 89.1005 22.6667 89.1005 21.984L89.1325 21.6L89.2285 21.056C88.4178 22.0373 87.6392 22.8053 86.8925 23.36C86.1458 23.8933 85.5272 24.16 85.0365 24.16C84.4818 24.16 84.0445 23.9787 83.7245 23.616C83.4258 23.2533 83.2765 22.7627 83.2765 22.144C83.2765 21.9093 83.8845 20.6507 85.1005 18.368C85.6978 17.2587 86.8925 15.04 88.6845 11.712C90.1565 9.00267 91.0205 7.33867 91.2765 6.72L91.8525 5.376C90.8285 5.376 90.1138 5.376 89.7085 5.376C89.3245 5.376 88.8552 5.376 88.3005 5.376ZM100.931 25.28C98.6481 26.6027 96.8561 27.904 95.5548 29.184C94.2534 30.4853 93.6028 31.616 93.6028 32.576C93.6028 32.8747 93.6774 33.1413 93.8268 33.376C93.9974 33.568 94.2321 33.664 94.5308 33.664C95.2988 33.664 96.1948 33.0027 97.2188 31.68C98.2428 30.3787 99.4801 28.2453 100.931 25.28ZM98.1148 22.592C98.1148 22.912 98.1681 23.1467 98.2748 23.296C98.4028 23.4453 98.6054 23.5413 98.8828 23.584C99.2241 23.584 99.6614 23.4133 100.195 23.072C100.728 22.7093 101.283 22.208 101.859 21.568C102.669 20.6933 103.32 19.7867 103.811 18.848C104.323 17.888 104.579 17.088 104.579 16.448C104.579 16.1707 104.472 15.936 104.259 15.744C104.067 15.552 103.821 15.456 103.523 15.456C103.011 15.456 102.445 15.68 101.827 16.128C101.229 16.576 100.621 17.216 100.003 18.048C99.7468 18.4107 99.5014 18.8053 99.2668 19.232C99.0321 19.6373 98.8188 20.064 98.6268 20.512C98.2854 21.408 98.1148 22.1013 98.1148 22.592ZM104.963 17.152L106.275 15.232L108.227 15.104L105.507 19.744L103.139 24.064C104.397 23.2747 105.592 22.2933 106.723 21.12L108.323 19.456L108.419 19.488L108.483 19.616C108.483 19.9147 107.896 20.6187 106.723 21.728C105.571 22.8373 104.227 23.8613 102.691 24.8C101.155 27.7227 99.6614 30.0053 98.2108 31.648C96.7601 33.2907 95.4801 34.112 94.3708 34.112C93.8374 34.112 93.4321 33.9733 93.1548 33.696C92.8774 33.4187 92.7388 33.024 92.7388 32.512C92.7388 31.488 93.4001 30.368 94.7228 29.152C96.0241 27.936 98.2108 26.4213 101.283 24.608L102.915 21.088C102.424 21.664 101.987 22.1333 101.603 22.496C101.24 22.8587 100.877 23.168 100.515 23.424C99.8321 23.9147 99.2028 24.16 98.6268 24.16C98.0721 24.16 97.6134 23.872 97.2508 23.296C96.9308 22.656 96.7708 21.856 96.7708 20.896L96.8348 20.128C96.8774 19.7867 96.9308 19.5413 96.9948 19.392L96.6108 19.872L96.3228 20.032L96.1948 20L96.1308 19.904C96.1734 19.84 96.2054 19.7867 96.2268 19.744C96.3334 19.5733 96.4401 19.424 96.5468 19.296L97.6348 18.112C98.5948 17.152 99.5868 16.3947 100.611 15.84C101.635 15.264 102.563 14.976 103.395 14.976C103.907 14.976 104.312 15.1147 104.611 15.392C104.931 15.6693 105.091 16.0213 105.091 16.448L105.059 16.768L104.963 17.152Z" fill="#DADDC2"></path></svg> 